<?xml version="1.0" encoding="utf-8"?>
<!-- Generator: Adobe Illustrator 17.1.0, SVG Export Plug-In . SVG Version: 6.00 Build 0)  -->
<!DOCTYPE svg PUBLIC "-//W3C//DTD SVG 1.1//EN" "http://www.w3.org/Graphics/SVG/1.1/DTD/svg11.dtd">
<svg version="1.1" id="Layer_1" xmlns="http://www.w3.org/2000/svg" xmlns:xlink="http://www.w3.org/1999/xlink" x="0px" y="0px"
	 viewBox="0 0 269.9 74" enable-background="new 0 0 269.9 74" xml:space="preserve">
<g>
	<g>
		<path fill="#FBFDF9" d="M80.5,48.1v-29h12.7c3.5,0,6.1,0.7,7.8,2.1c1.7,1.4,2.5,3.3,2.5,5.9c0,1.6-0.5,2.9-1.4,4.1
			c-0.9,1.2-2.3,2-4.1,2.3v0c2,0.3,3.6,1.1,4.7,2.3c1.1,1.2,1.6,2.7,1.6,4.4c0,2.5-0.9,4.4-2.7,5.9c-1.8,1.4-4.4,2.1-7.9,2.1H80.5z
			 M86.4,31.2h6c3.2,0,4.8-1.2,4.8-3.7c0-2.5-1.6-3.7-4.8-3.7h-6V31.2z M86.4,43.5h6.7c1.6,0,2.9-0.3,3.7-1c0.8-0.7,1.2-1.6,1.2-2.8
			c0-1.2-0.4-2.2-1.2-2.8c-0.8-0.6-2-1-3.7-1h-6.7V43.5z"/>
		<path fill="#FBFDF9" d="M108.1,22.9c-1.3,0-2.2-0.3-2.8-0.8c-0.6-0.5-0.9-1.3-0.9-2.4c0-1.1,0.3-1.9,0.9-2.4
			c0.6-0.5,1.6-0.8,2.8-0.8c1.3,0,2.2,0.3,2.8,0.8c0.6,0.5,0.9,1.4,0.9,2.4c0,1.1-0.3,1.9-0.9,2.4C110.3,22.7,109.4,22.9,108.1,22.9
			z M111.1,26.1v22h-6v-22H111.1z"/>
		<path fill="#FBFDF9" d="M126.1,44c2.4,0,4.2,0.5,5.5,1.5c1.3,1,1.9,2.5,1.9,4.3c0,1.7-0.5,3.1-1.5,4.2c-1,1.2-2.3,2-4.1,2.6
			c-1.7,0.6-3.8,0.9-6,0.9c-3.8,0-6.5-0.5-8.3-1.6c-1.7-1.1-2.6-2.4-2.6-4.1c0-1.2,0.5-2.2,1.4-3c0.9-0.8,2.5-1.3,4.6-1.4l-0.2,0.7
			c-1.5-0.3-2.7-0.8-3.5-1.5c-0.8-0.7-1.2-1.8-1.2-3.1c0-1.3,0.5-2.5,1.6-3.3c1-0.9,2.5-1.4,4.2-1.5l2.6,1.2H120
			c-1.3,0.1-2.1,0.3-2.7,0.8c-0.5,0.4-0.8,0.9-0.8,1.4c0,0.6,0.2,1.1,0.7,1.4c0.5,0.3,1.2,0.5,2.1,0.5H126.1z M122.1,25.7
			c2.1,0,3.8,0.3,5.3,0.9c1.5,0.6,2.7,1.5,3.5,2.6c0.8,1.1,1.2,2.4,1.2,4c0,1.5-0.4,2.8-1.2,4c-0.8,1.1-2,2-3.5,2.6
			c-1.5,0.6-3.3,0.9-5.3,0.9c-3.3,0-5.7-0.7-7.5-2c-1.7-1.3-2.6-3.1-2.6-5.4c0-1.6,0.4-2.9,1.2-4c0.8-1.1,2-2,3.5-2.6
			C118.2,26,120,25.7,122.1,25.7z M122.1,53.4c1.5,0,2.8-0.1,3.8-0.4c1-0.3,1.7-0.6,2.2-1c0.5-0.4,0.7-0.9,0.7-1.4
			c0-0.6-0.2-1-0.7-1.3c-0.4-0.3-1.2-0.5-2.4-0.5h-7.4c-0.7,0-1.3,0.2-1.7,0.5c-0.5,0.4-0.7,0.8-0.7,1.5c0,0.8,0.5,1.5,1.6,1.9
			C118.6,53.2,120.1,53.4,122.1,53.4z M122.1,29.4c-1.2,0-2.1,0.3-2.9,1c-0.8,0.6-1.1,1.5-1.1,2.7c0,1.1,0.4,2,1.1,2.7
			c0.8,0.7,1.7,1,2.9,1c1.2,0,2.1-0.3,2.9-1c0.7-0.7,1.1-1.6,1.1-2.7c0-1.1-0.4-2-1.1-2.7C124.2,29.8,123.3,29.4,122.1,29.4z
			 M133.4,20.9l0.7,4.3c-0.1,0-0.2,0-0.4,0c-0.1,0-0.3,0-0.4,0c-1.3,0-2.3,0.3-3,0.9c-0.7,0.6-1,1.4-1,2.5l-2.5-1
			c0-1.2,0.2-2.3,0.7-3.3c0.5-1,1.2-1.8,2.1-2.4c0.9-0.6,2-0.9,3.3-0.9c0.1,0,0.1,0,0.2,0C133.2,20.9,133.3,20.9,133.4,20.9z"/>
		<path fill="#FBFDF9" d="M147.6,48.5c-1.3,0-2.6-0.3-3.7-0.9c-1.1-0.6-2-1.4-2.7-2.4c-0.7-1-1.2-2.1-1.5-3.4l0.6-0.8l-0.4,7h-5.3
			V16.5h6v15.8l-0.6-0.9c0.5-1.6,1.4-3,2.7-4.1c1.3-1.1,3-1.6,5-1.6c1.8,0,3.3,0.5,4.7,1.4c1.4,0.9,2.5,2.2,3.3,3.9
			c0.8,1.7,1.2,3.8,1.2,6.2c0,2.4-0.4,4.4-1.2,6.1c-0.8,1.7-1.9,3-3.3,3.9C151.1,48.1,149.4,48.5,147.6,48.5z M145.8,43.9
			c1.6,0,2.9-0.6,3.8-1.7c0.9-1.2,1.4-2.9,1.4-5.1c0-2.2-0.5-3.9-1.4-5.1c-0.9-1.2-2.2-1.7-3.8-1.7c-1.1,0-2,0.3-2.7,0.8
			c-0.8,0.6-1.4,1.3-1.8,2.4c-0.4,1-0.6,2.2-0.6,3.7c0,1.4,0.2,2.6,0.6,3.7c0.4,1,1,1.8,1.8,2.3C143.9,43.6,144.8,43.9,145.8,43.9z"
			/>
		<path fill="#FBFDF9" d="M178,26.1l-8.9,23.4c-0.7,2-1.5,3.6-2.4,4.8c-0.9,1.2-1.9,2-3,2.6c-1.1,0.5-2.5,0.8-4,0.8
			c-1.1,0-2.2-0.1-3.1-0.4c-1-0.3-1.8-0.6-2.5-1.1l1.3-4.4c0.6,0.4,1.1,0.8,1.8,0.9c0.6,0.2,1.3,0.3,2.1,0.3c0.8,0,1.5-0.2,2.1-0.5
			c0.6-0.4,1.1-1.1,1.5-2.1l0.7-1.9l-2.4-5.7l-6.7-16.6h6.7l4.2,13.2l1.1,4.4l1.4-4.7l4-12.9H178z"/>
		<path fill="#FBFDF9" d="M204.5,19.1l-10.6,29h-7.1l-10.6-29h6.4l6.1,18.5l1.7,5.7l1.6-5.7l6.2-18.5H204.5z"/>
		<path fill="#FBFDF9" d="M216.2,19.1c2.2,0,4.1,0.4,5.7,1.1c1.6,0.7,2.8,1.8,3.7,3.2c0.9,1.4,1.3,3.1,1.3,5c0,2-0.4,3.6-1.3,5
			c-0.9,1.4-2.1,2.5-3.7,3.2c-1.6,0.7-3.5,1.1-5.7,1.1h-6.1v10.3H204v-29H216.2z M215.3,33c1.8,0,3.2-0.4,4.1-1.2
			c0.9-0.8,1.4-1.9,1.4-3.4c0-1.5-0.5-2.7-1.4-3.4c-0.9-0.8-2.3-1.1-4.1-1.1h-5.2V33H215.3z"/>
		<path fill="#FBFDF9" d="M251.6,19.1v29h-7L234.4,31l-2.5-4.8h0l0.2,5v16.8h-5.5v-29h6.9l10.2,17l2.5,4.8h0.1l-0.2-5V19.1H251.6z"
			/>
		<path fill="#FBFDF9" d="M256.3,25.5c-0.5,0-1-0.1-1.4-0.3c-0.4-0.2-0.7-0.5-1-1c-0.2-0.4-0.4-0.9-0.4-1.4c0-0.5,0.1-1,0.4-1.4
			c0.2-0.4,0.6-0.7,1-0.9c0.4-0.2,0.9-0.3,1.4-0.3c0.5,0,1,0.1,1.4,0.3c0.4,0.2,0.7,0.5,1,0.9c0.2,0.4,0.4,0.9,0.4,1.4
			c0,0.5-0.1,1-0.4,1.4c-0.2,0.4-0.6,0.7-1,1C257.3,25.4,256.8,25.5,256.3,25.5z M256.3,24.7c0.4,0,0.7-0.1,1-0.2
			c0.3-0.2,0.5-0.4,0.7-0.7c0.2-0.3,0.2-0.6,0.2-1c0-0.4-0.1-0.7-0.2-1c-0.2-0.3-0.4-0.5-0.7-0.7c-0.3-0.2-0.6-0.2-1-0.2
			c-0.4,0-0.7,0.1-1,0.2c-0.3,0.2-0.5,0.4-0.7,0.7c-0.2,0.3-0.2,0.6-0.2,1c0,0.4,0.1,0.7,0.2,1c0.2,0.3,0.4,0.5,0.7,0.7
			C255.5,24.7,255.9,24.7,256.3,24.7z M255.1,24.2v-2.9h1.5c0.2,0,0.4,0,0.5,0.1c0.1,0.1,0.3,0.2,0.4,0.3c0.1,0.1,0.1,0.3,0.1,0.5
			c0,0.3-0.1,0.5-0.3,0.7c-0.2,0.2-0.5,0.3-0.8,0.3h-0.4v0.9H255.1z M256.4,24.2L256,23l0.9-0.2l0.8,1.3H256.4z M256.1,22.6h0.2
			c0.1,0,0.2,0,0.2,0s0.1-0.1,0.1-0.2c0-0.1,0-0.1-0.1-0.2s-0.1,0-0.2,0h-0.2V22.6z"/>
	</g>
	<g>
		<path fill="#FBFDF9" d="M62.4,26.1L58.9,5.3l-16,11.4h-3.6L22.6,5.3l-3.3,20.9l-8.4,16.5l23.2,25.9h13.4l23.2-26.2L62.4,26.1z
			 M56,12.5l2.2,13.5l-7.9-3.5L56,12.5z M25.6,12.5l5.7,10.1L23.4,26L25.6,12.5z M55.3,45.8l-1.6,9.4L45.8,64L42,65.1l0.1-1.3
			l4.6-4.5l-3.3-1.4h-5.1l-3.3,1.4l4.6,4.5l0,1.3L35.8,64l-7.9-8.9l-1.6-9.4l-3.5,3.9L15.9,42l1.6-4l11.5-7.1l9.8,8.9l2,4.4l2-4.4
			l9.8-8.9L64.1,38l1.6,4l-6.8,7.7L55.3,45.8z"/>
		<polygon fill="#FBFDF9" points="35,45 29.7,43.4 27.7,38.8 32.6,40.5 		"/>
		<polygon fill="#FBFDF9" points="53.9,38.8 51.9,43.4 46.6,45 49,40.5 		"/>
	</g>
</g>
</svg>
