<?xml version="1.0" encoding="utf-8"?>
<!-- Generator: Adobe Illustrator 17.0.0, SVG Export Plug-In . SVG Version: 6.00 Build 0)  -->
<!DOCTYPE svg PUBLIC "-//W3C//DTD SVG 1.1//EN" "http://www.w3.org/Graphics/SVG/1.1/DTD/svg11.dtd">
<svg version="1.1" id="Layer_1" xmlns="http://www.w3.org/2000/svg" xmlns:xlink="http://www.w3.org/1999/xlink" x="0px" y="0px"
	 width="258px" height="72px" viewBox="99.5 0 258 72" enable-background="new 99.5 0 258 72" xml:space="preserve">
<g>
	<g>
		<path fill="#FBFDF9" d="M173.67,51.518V23.302h12.357c3.405,0,5.935,0.681,7.589,2.043s2.432,3.211,2.432,5.741
			c0,1.557-0.486,2.822-1.362,3.989c-0.876,1.168-2.238,1.946-3.989,2.238l0,0c1.946,0.292,3.503,1.07,4.573,2.238
			c1.07,1.168,1.557,2.627,1.557,4.281c0,2.432-0.876,4.281-2.627,5.741c-1.751,1.362-4.281,2.043-7.686,2.043h-12.843v-0.098
			H173.67z M179.41,35.075h5.838c3.114,0,4.67-1.168,4.67-3.6s-1.557-3.6-4.67-3.6h-5.838V35.075z M179.41,47.043h6.519
			c1.557,0,2.822-0.292,3.6-0.973s1.168-1.557,1.168-2.724s-0.389-2.141-1.168-2.724s-1.946-0.973-3.6-0.973h-6.519V47.043z"/>
		<path fill="#FBFDF9" d="M200.524,26.999c-1.265,0-2.141-0.292-2.724-0.778s-0.876-1.265-0.876-2.335s0.292-1.849,0.876-2.335
			s1.557-0.778,2.724-0.778c1.265,0,2.141,0.292,2.724,0.778c0.584,0.486,0.876,1.362,0.876,2.335c0,1.07-0.292,1.849-0.876,2.335
			C202.664,26.805,201.789,26.999,200.524,26.999z M203.443,30.113v21.405h-5.838V30.113H203.443z"/>
		<path fill="#FBFDF9" d="M218.037,47.529c2.335,0,4.086,0.486,5.351,1.459s1.849,2.432,1.849,4.184
			c0,1.654-0.486,3.016-1.459,4.086c-0.973,1.168-2.238,1.946-3.989,2.53c-1.654,0.584-3.697,0.876-5.838,0.876
			c-3.697,0-6.324-0.486-8.076-1.557c-1.654-1.07-2.53-2.335-2.53-3.989c0-1.168,0.486-2.141,1.362-2.919s2.432-1.265,4.476-1.362
			l-0.195,0.681c-1.459-0.292-2.627-0.778-3.405-1.459s-1.168-1.751-1.168-3.016s0.486-2.432,1.557-3.211
			c0.973-0.876,2.432-1.362,4.086-1.459l2.53,1.168h-0.486c-1.265,0.097-2.043,0.292-2.627,0.778
			c-0.486,0.389-0.778,0.876-0.778,1.362c0,0.584,0.195,1.07,0.681,1.362s1.168,0.486,2.043,0.486
			C211.421,47.529,218.037,47.529,218.037,47.529z M214.145,29.724c2.043,0,3.697,0.292,5.157,0.876s2.627,1.459,3.405,2.53
			c0.778,1.07,1.168,2.335,1.168,3.892c0,1.459-0.389,2.724-1.168,3.892c-0.778,1.07-1.946,1.946-3.405,2.53
			s-3.211,0.876-5.157,0.876c-3.211,0-5.546-0.681-7.297-1.946c-1.654-1.265-2.53-3.016-2.53-5.254c0-1.557,0.389-2.822,1.168-3.892
			s1.946-1.946,3.405-2.53C210.351,30.016,212.102,29.724,214.145,29.724z M214.145,56.675c1.459,0,2.724-0.097,3.697-0.389
			s1.654-0.584,2.141-0.973c0.486-0.389,0.681-0.876,0.681-1.362c0-0.584-0.195-0.973-0.681-1.265
			c-0.389-0.292-1.168-0.486-2.335-0.486h-7.2c-0.681,0-1.265,0.195-1.654,0.486c-0.486,0.389-0.681,0.778-0.681,1.459
			c0,0.778,0.486,1.459,1.557,1.849C210.74,56.48,212.199,56.675,214.145,56.675z M214.145,33.324c-1.168,0-2.043,0.292-2.822,0.973
			c-0.778,0.584-1.07,1.459-1.07,2.627c0,1.07,0.389,1.946,1.07,2.627c0.778,0.681,1.654,0.973,2.822,0.973s2.043-0.292,2.822-0.973
			c0.681-0.681,1.07-1.557,1.07-2.627s-0.389-1.946-1.07-2.627C216.189,33.713,215.313,33.324,214.145,33.324z M225.14,25.053
			l0.681,4.184c-0.097,0-0.195,0-0.389,0c-0.097,0-0.292,0-0.389,0c-1.265,0-2.238,0.292-2.919,0.876s-0.973,1.362-0.973,2.432
			l-2.432-0.973c0-1.168,0.195-2.238,0.681-3.211c0.486-0.973,1.168-1.751,2.043-2.335c0.876-0.584,1.946-0.876,3.211-0.876
			c0.097,0,0.097,0,0.195,0C224.945,25.053,225.043,25.053,225.14,25.053z"/>
		<path fill="#FBFDF9" d="M238.956,51.907c-1.265,0-2.53-0.292-3.6-0.876s-1.946-1.362-2.627-2.335s-1.168-2.043-1.459-3.308
			l0.584-0.778l-0.389,6.811h-5.157V20.772h5.838v15.373l-0.584-0.876c0.486-1.557,1.362-2.919,2.627-3.989
			c1.265-1.07,2.919-1.557,4.865-1.557c1.751,0,3.211,0.486,4.573,1.362s2.432,2.141,3.211,3.795s1.168,3.697,1.168,6.032
			c0,2.335-0.389,4.281-1.168,5.935s-1.849,2.919-3.211,3.795C242.362,51.518,240.707,51.907,238.956,51.907z M237.205,47.432
			c1.557,0,2.822-0.584,3.697-1.654c0.876-1.168,1.362-2.822,1.362-4.962c0-2.141-0.486-3.795-1.362-4.962
			c-0.876-1.168-2.141-1.654-3.697-1.654c-1.07,0-1.946,0.292-2.627,0.778c-0.778,0.584-1.362,1.265-1.751,2.335
			c-0.389,0.973-0.584,2.141-0.584,3.6c0,1.362,0.195,2.53,0.584,3.6c0.389,0.973,0.973,1.751,1.751,2.238
			C235.356,47.14,236.232,47.432,237.205,47.432z"/>
		<path fill="#FBFDF9" d="M268.534,30.113l-8.659,22.768c-0.681,1.946-1.459,3.503-2.335,4.67s-1.849,1.946-2.919,2.53
			c-1.07,0.486-2.432,0.778-3.892,0.778c-1.07,0-2.141-0.097-3.016-0.389c-0.973-0.292-1.751-0.584-2.432-1.07l1.265-4.281
			c0.584,0.389,1.07,0.778,1.751,0.876c0.584,0.195,1.265,0.292,2.043,0.292s1.459-0.195,2.043-0.486
			c0.584-0.389,1.07-1.07,1.459-2.043l0.681-1.849l-2.335-5.546l-6.519-16.151h6.519l4.086,12.843l1.07,4.281l1.362-4.573
			l3.892-12.551h5.935L268.534,30.113L268.534,30.113z"/>
		<path fill="#FBFDF9" d="M294.318,23.302l-10.313,28.216h-6.908l-10.314-28.216h6.227l5.935,18l1.654,5.546l1.557-5.546l6.032-18
			C288.189,23.302,294.318,23.302,294.318,23.302z"/>
		<path fill="#FBFDF9" d="M305.702,23.302c2.141,0,3.989,0.389,5.546,1.07c1.557,0.681,2.724,1.751,3.6,3.114
			c0.876,1.362,1.265,3.016,1.265,4.865c0,1.946-0.389,3.503-1.265,4.865s-2.043,2.432-3.6,3.114
			c-1.557,0.681-3.405,1.07-5.546,1.07h-5.935v10.022h-5.935V23.205h11.87V23.302z M304.826,36.826c1.751,0,3.114-0.389,3.989-1.168
			s1.362-1.849,1.362-3.308s-0.486-2.627-1.362-3.308c-0.876-0.778-2.238-1.07-3.989-1.07h-5.059v8.854H304.826z"/>
		<path fill="#FBFDF9" d="M340.145,23.302v28.216h-6.811L323.41,34.88l-2.432-4.67l0,0l0.195,4.865v16.346h-5.351V23.205h6.714
			l9.924,16.541l2.432,4.67h0.097l-0.195-4.865V23.302H340.145z"/>
		<path fill="#FBFDF9" d="M344.718,29.529c-0.486,0-0.973-0.097-1.362-0.292s-0.681-0.486-0.973-0.973
			c-0.195-0.389-0.389-0.876-0.389-1.362s0.097-0.973,0.389-1.362c0.195-0.389,0.584-0.681,0.973-0.876
			c0.389-0.195,0.876-0.292,1.362-0.292c0.487,0,0.973,0.097,1.362,0.292s0.681,0.486,0.973,0.876
			c0.195,0.389,0.389,0.876,0.389,1.362s-0.097,0.973-0.389,1.362c-0.195,0.389-0.584,0.681-0.973,0.973
			C345.691,29.432,345.205,29.529,344.718,29.529z M344.718,28.751c0.389,0,0.681-0.097,0.973-0.195
			c0.292-0.195,0.486-0.389,0.681-0.681s0.195-0.584,0.195-0.973s-0.097-0.681-0.195-0.973c-0.195-0.292-0.389-0.486-0.681-0.681
			s-0.584-0.195-0.973-0.195c-0.389,0-0.681,0.097-0.973,0.195c-0.292,0.195-0.486,0.389-0.681,0.681s-0.195,0.584-0.195,0.973
			s0.097,0.681,0.195,0.973c0.195,0.292,0.389,0.486,0.681,0.681C343.94,28.751,344.329,28.751,344.718,28.751z M343.551,28.264
			v-2.822h1.459c0.195,0,0.389,0,0.486,0.097s0.292,0.195,0.389,0.292c0.097,0.097,0.097,0.292,0.097,0.486
			c0,0.292-0.097,0.486-0.292,0.681s-0.487,0.292-0.778,0.292h-0.389v0.876h-0.973v0.098H343.551z M344.816,28.264l-0.389-1.168
			l0.876-0.195l0.778,1.265h-1.265V28.264z M344.524,26.707h0.195c0.097,0,0.195,0,0.195,0s0.097-0.097,0.097-0.195
			s0-0.097-0.097-0.195c-0.097-0.097-0.097,0-0.195,0h-0.195V26.707z"/>
	</g>
	<g>
		<path fill="#FBFDF9" d="M156.059,25.443l-3.405-20.238l-15.568,11.092h-3.503L117.334,5.205l-3.211,20.335l-8.173,16.054
			l22.573,25.2h13.038l22.573-25.492L156.059,25.443z M149.832,12.21l2.141,13.135l-7.686-3.405L149.832,12.21z M120.253,12.21
			l5.546,9.827l-7.686,3.308L120.253,12.21z M149.151,44.61l-1.557,9.146l-7.686,8.562l-3.697,1.07l0.097-1.265l4.476-4.378
			l-3.211-1.362h-4.962l-3.211,1.362l4.476,4.378v1.265l-3.697-1.07l-7.686-8.659l-1.557-9.146l-3.405,3.795l-6.714-7.395
			l1.557-3.892l11.189-6.908l9.535,8.659l1.946,4.281l1.946-4.281l9.535-8.659l11.189,6.908l1.557,3.892l-6.616,7.492L149.151,44.61
			z"/>
		<polygon fill="#FBFDF9" points="129.399,43.832 124.243,42.275 122.297,37.799 127.064,39.453 		"/>
		<polygon fill="#FBFDF9" points="147.789,37.799 145.843,42.275 140.686,43.832 143.021,39.453 		"/>
	</g>
</g>
</svg>
