<?xml version="1.0" encoding="utf-8"?>
<!-- Generator: Adobe Illustrator 17.1.0, SVG Export Plug-In . SVG Version: 6.00 Build 0)  -->
<!DOCTYPE svg PUBLIC "-//W3C//DTD SVG 1.1//EN" "http://www.w3.org/Graphics/SVG/1.1/DTD/svg11.dtd">
<svg version="1.1" xmlns="http://www.w3.org/2000/svg" xmlns:xlink="http://www.w3.org/1999/xlink" x="0px" y="0px"
	 viewBox="0 0 3710 3710" enable-background="new 0 0 3710 3710" xml:space="preserve">
<g id="Background">
	<g>
		<g>
			<rect fill="#FFFFFF" width="3710" height="3710"/>
		</g>
	</g>
</g>
<g id="Illustration">
	<linearGradient id="SVGID_1_" gradientUnits="userSpaceOnUse" x1="3617.6348" y1="4068.5498" x2="1140.387" y2="991.9634">
		<stop  offset="0" style="stop-color:#DAE3FE"/>
		<stop  offset="1" style="stop-color:#E9EFFD"/>
	</linearGradient>
	<path fill="url(#SVGID_1_)" d="M2936.1,2855.3c-56.9,59.9-110.7,98.5-153.3,129.1c-500,358.8-1091.7,254.2-1217.4,228.7
		c-185.7-37.7-544.6-110.6-804.1-415.8C368.7,2335.5,429.9,1608.1,734.4,1128c55.7-87.8,349.9-575.3,948-653.5
		c361.9-47.3,783.8,48.1,1089.3,304.1C3413,1315.9,3367.3,2401.3,2936.1,2855.3z"/>
	<g>
		<g>
			<g opacity="0.3">
				<path fill="#91B3FA" d="M1068.6,1380.7c4.3-5.8,12.5-7.1,18.3-2.8c11.3,8.3,23.2,16.3,35.2,23.7c6.1,3.7,8.1,11.7,4.5,17.8
					c0,0.1-0.1,0.1-0.1,0.2c-3.8,6.2-11.8,8.1-18,4.3c-12.7-7.8-25.2-16.2-37.1-24.9c-5.4-4-6.9-11.4-3.5-17.2
					C1068.1,1381.4,1068.3,1381,1068.6,1380.7z M1183.2,1433.4c12.9,5.7,26.2,10.8,39.5,15.4c6.8,2.3,10.5,9.8,8.2,16.6
					c-2.4,6.9-9.8,10.5-16.6,8.2c-14-4.8-28-10.2-41.6-16.2c-6.6-2.9-9.6-10.6-6.7-17.3c0.2-0.5,0.4-0.9,0.7-1.4
					C1170,1433.2,1177.1,1430.8,1183.2,1433.4z M1289.4,1466.4c13.8,2.6,27.9,4.7,42,6.1c7.2,0.7,12.4,7.2,11.7,14.4
					c-0.7,7.2-7.2,12.4-14.4,11.7c-14.8-1.5-29.6-3.7-44.2-6.5c-7.1-1.4-11.8-8.2-10.4-15.3c0.3-1.5,0.8-2.9,1.6-4.2
					C1278.3,1468,1283.8,1465.3,1289.4,1466.4z M1400.2,1474.7c14.1-0.5,28.3-1.7,42.3-3.4c7.2-0.9,13.7,4.2,14.6,11.4
					c0.9,7.2-4.2,13.7-11.4,14.6c-14.7,1.8-29.7,3-44.5,3.6c-7.2,0.3-13.3-5.4-13.6-12.6c-0.1-2.6,0.6-5,1.8-7.1
					C1391.6,1477.5,1395.6,1474.9,1400.2,1474.7z M1510.2,1458.2c13.6-3.6,27.2-7.9,40.5-12.7c6.8-2.4,14.3,1.1,16.8,7.9
					c2.5,6.8-1.1,14.3-7.9,16.8c-14,5-28.3,9.5-42.6,13.3c-7,1.9-14.2-2.3-16-9.3c-0.9-3.5-0.4-7.1,1.4-10
					C1503.9,1461.4,1506.7,1459.1,1510.2,1458.2z M1613.7,1417.7c12.5-6.6,24.8-13.7,36.7-21.3c6.1-3.9,14.2-2.1,18.1,4
					c3.9,6.1,2.1,14.2-4,18.1c-12.5,8-25.5,15.5-38.6,22.4c-6.4,3.4-14.3,0.9-17.7-5.5c-2.2-4.2-1.9-9,0.3-12.7
					C1609.7,1420.7,1611.5,1418.9,1613.7,1417.7z M1890.9,1018.1c7.2,0.7,12.4,7.2,11.7,14.4c-1.5,14.7-3.7,29.6-6.5,44.2
					c-1.4,7.1-8.2,11.8-15.3,10.4c-7.1-1.4-11.8-8.2-10.4-15.3c2.7-13.9,4.8-28,6.2-42c0.2-1.9,0.8-3.7,1.7-5.3
					C1880.7,1020.2,1885.6,1017.5,1890.9,1018.1z M1705.7,1355.4c10.7-9.2,21.1-18.9,31-28.9c5.1-5.2,13.4-5.2,18.5-0.2
					c5.2,5.1,5.2,13.3,0.2,18.5c-10.4,10.6-21.4,20.8-32.6,30.5c-5.5,4.7-13.8,4.1-18.5-1.4c-3.7-4.4-4.1-10.5-1.4-15.1
					C1703.6,1357.5,1704.5,1356.4,1705.7,1355.4z M1869.2,1130.1c6.8,2.3,10.5,9.8,8.2,16.6c-4.8,14-10.3,28-16.2,41.6
					c-2.9,6.6-10.6,9.6-17.3,6.7c-6.6-2.9-9.6-10.6-6.7-17.3c5.7-12.9,10.9-26.2,15.4-39.5c0.3-0.8,0.7-1.6,1.1-2.4
					C1856.8,1130.6,1863.2,1128.1,1869.2,1130.1z M1781.4,1274c8.4-11.3,16.4-23.1,23.7-35.1c3.8-6.2,11.9-8.1,18-4.3
					c6.1,3.7,8,11.6,4.4,17.8c0,0.1-0.1,0.2-0.1,0.2c-7.8,12.6-16.2,25.1-25,37c-4.3,5.8-12.5,7-18.3,2.7c-5.4-4-6.9-11.4-3.5-17.1
					C1780.8,1274.8,1781.1,1274.4,1781.4,1274z"/>
				<path fill="#91B3FA" d="M1879.4,932.5c-1.3,2.2-2,4.9-1.8,7.6c0.5,6.7,0.9,13.6,1.2,20.4c0.3,7.2,6.3,12.9,13.6,12.6
					c7.2-0.3,12.9-6.3,12.6-13.6c-0.3-7.1-0.7-14.4-1.2-21.4c-0.6-7.2-6.9-12.6-14.1-12C1885.3,926.4,1881.5,928.9,1879.4,932.5z"/>
			</g>
			<g opacity="0.3">
				<path fill="#91B3FA" d="M1695.6,578c-3.2,5.5-2.1,12.6,3,16.7c5.2,4.3,10.4,8.8,15.5,13.3c5.4,4.8,13.7,4.4,18.5-1
					c4.8-5.4,4.4-13.7-1-18.5c-5.3-4.8-10.8-9.5-16.3-14c-5.6-4.6-13.8-3.8-18.4,1.8C1696.3,576.9,1695.9,577.4,1695.6,578z"/>
				<path fill="#91B3FA" d="M944.7,691c4-6.1,12.1-7.8,18.1-3.8c6.1,4,7.7,12.1,3.8,18.1c-7.5,11.5-14.7,23.5-21.4,35.9
					c-3.4,6.3-11.4,8.7-17.8,5.3c-6.4-3.4-8.7-11.4-5.3-17.8c2.9-5.3,5.9-10.6,8.9-15.8C935.5,705.5,940,698.2,944.7,691z
					 M909.4,786c6.8,2.6,10.2,10.1,7.6,16.9c-4.9,13-9.3,26.3-13.1,39.6c-2,7-9.2,11-16.2,9c-7-2-11-9.2-9-16.2
					c4-14,8.6-28.1,13.8-41.7c0.3-0.7,0.6-1.4,1-2C896.6,786.3,903.3,783.8,909.4,786z M987.8,634.1c9.6-11,19.7-21.7,30.2-31.9
					c5.2-5,13.5-4.9,18.5,0.3c5,5.2,4.9,13.5-0.3,18.5c-10,9.7-19.6,19.8-28.7,30.3c-4.8,5.5-13,6-18.5,1.3
					c-4.8-4.2-5.8-11.2-2.7-16.5C986.8,635.4,987.2,634.8,987.8,634.1z M878.7,894.1c7.2,1,12.2,7.6,11.1,14.8
					c-1.9,13.7-3.3,27.7-4.1,41.5c-0.4,7.2-6.6,12.8-13.8,12.4c-7.2-0.4-12.8-6.6-12.4-13.8c0.8-14.6,2.2-29.3,4.3-43.7
					c0.2-1.7,0.8-3.4,1.7-4.8C868.2,896,873.3,893.4,878.7,894.1z M1072.5,556.2c11.7-8.6,24-16.8,36.5-24.5
					c6.2-3.8,14.2-1.8,18,4.3c3.8,6.2,1.8,14.2-4.3,18c-11.8,7.2-23.5,15-34.7,23.2c-5.8,4.3-14,3-18.3-2.8
					c-3.2-4.3-3.3-10-0.7-14.4C1069.8,558.7,1071,557.3,1072.5,556.2z M1172.3,498.8c13.4-5.8,27.2-11.2,41-15.9
					c6.8-2.3,14.3,1.3,16.6,8.2c2.3,6.9-1.3,14.3-8.2,16.6c-13.1,4.5-26.2,9.6-38.9,15.1c-6.6,2.9-14.3-0.1-17.2-6.8
					c-1.7-4-1.3-8.4,0.7-11.9C1167.6,501.9,1169.7,500,1172.3,498.8z M1282.2,464.5c14.3-2.8,29-5,43.4-6.6
					c7.2-0.8,13.7,4.4,14.4,11.6c0.8,7.2-4.4,13.7-11.6,14.4c-13.8,1.5-27.7,3.6-41.3,6.3c-7.1,1.4-14-3.2-15.4-10.3
					c-0.6-3.3,0-6.5,1.6-9.1C1275.2,467.6,1278.4,465.3,1282.2,464.5z M1397,455c14.6,0.4,29.4,1.4,43.9,3.1
					c7.2,0.8,12.4,7.3,11.5,14.5c-0.8,7.2-7.3,12.4-14.5,11.5c-13.8-1.6-27.8-2.5-41.6-2.9c-7.2-0.2-12.9-6.2-12.7-13.5
					c0.1-2.3,0.7-4.4,1.8-6.3C1387.7,457.5,1392,454.9,1397,455z M1511.1,471c14.1,3.6,28.3,7.9,42.1,12.7
					c6.8,2.4,10.5,9.8,8.1,16.7c-2.4,6.8-9.8,10.4-16.7,8.1c-13.1-4.6-26.5-8.6-40-12c-7-1.8-11.2-8.9-9.4-15.9
					c0.3-1.2,0.8-2.4,1.4-3.4C1499.4,472.1,1505.3,469.5,1511.1,471z M1618.8,511.5c9.6,4.9,19.1,10.1,28.4,15.5c3.3,2,6.7,4,10,6
					c6.2,3.8,8.2,11.9,4.3,18c-3.8,6.2-11.9,8.1-18,4.3c-3.1-1.9-6.3-3.8-9.5-5.7c-8.8-5.2-17.9-10.1-27-14.7
					c-6.5-3.3-9-11.2-5.8-17.6c0.1-0.2,0.3-0.5,0.4-0.7C1605.1,510.7,1612.6,508.4,1618.8,511.5z"/>
				<path fill="#91B3FA" d="M862.4,1013c-1.3,2.2-2,4.9-1.8,7.7c0.6,7.1,1.3,14.3,2.2,21.4c0.9,7.2,7.4,12.3,14.6,11.4
					c7.2-0.9,12.3-7.4,11.4-14.6c-0.8-6.8-1.5-13.6-2.1-20.3c-0.6-7.2-6.9-12.6-14.1-12C868.2,1007,864.5,1009.5,862.4,1013z"/>
			</g>
			<g>
				<path fill="#9BB1FF" d="M1033.5,1158.4c0.9,2.4,3.3,4,5.9,4l74.5-1.8c19.2,29,43.2,55.1,71.5,77.1l-7.2,74.1
					c-0.3,2.6,1.2,5.1,3.5,6.2l81.3,37.2c2.4,1.1,5.2,0.5,7-1.3l51.4-53.9c35.1,7.1,70.6,8.2,105.1,3.8l47.3,57.6
					c1.7,2,4.4,2.8,6.9,1.8l83.8-31.1c2.4-0.9,4-3.3,4-5.9l-1.8-74.5c29-19.2,55.1-43.2,77.1-71.5l74.1,7.2c2.6,0.3,5.1-1.2,6.2-3.5
					l37.2-81.3c1.1-2.4,0.5-5.2-1.3-7l-53.9-51.4c7.1-35.1,8.2-70.6,3.8-105.1l57.6-47.3c2-1.7,2.8-4.4,1.9-6.9l-31.1-83.8
					c-0.9-2.4-3.3-4-5.9-4l-74.5,1.8c-19.2-29-43.2-55.1-71.5-77.1l7.2-74.1c0.3-2.6-1.2-5.1-3.5-6.2l-81.3-37.2
					c-2.4-1.1-5.2-0.5-7,1.3l-51.4,53.9c-35.1-7.1-70.6-8.2-105.1-3.8l-47.3-57.6c-1.7-2-4.4-2.8-6.9-1.9l-83.8,31.1
					c-2.4,0.9-4,3.3-4,5.9l1.8,74.5c-29,19.2-55.1,43.2-77.1,71.5l-74.1-7.2c-2.6-0.3-5.1,1.2-6.2,3.5l-37.2,81.3
					c-1.1,2.4-0.5,5.2,1.3,7l53.9,51.4c-7.1,35.1-8.2,70.6-3.8,105.1l-57.6,47.3c-2,1.7-2.8,4.4-1.9,6.9L1033.5,1158.4z"/>
				<g>
					<path fill="#BDD0FB" d="M1315.7,923.5c31-38.6,87.7-44.8,126.3-13.8c18.7,15,30.4,36.4,33,60.3c2.6,23.8-4.2,47.3-19.3,66
						c-31,38.6-87.7,44.8-126.3,13.8c-35.1-28.2-43.4-77.7-21.3-115.4C1310.4,930.6,1312.9,927,1315.7,923.5z M1454.2,972.3
						c-2-18.3-11-34.7-25.3-46.2c-29.6-23.8-73-19-96.8,10.6c-23.8,29.6-19,73,10.6,96.8c29.6,23.8,73,19,96.8-10.6
						c2.2-2.7,4.1-5.5,5.8-8.4C1452.7,1001.8,1455.9,987.2,1454.2,972.3z"/>
				</g>
				<path fill="#BDD0FB" d="M1197.2,867.2c-3.8,6.5-7.3,13.2-10.5,20.1l0,0c-1,2.2-2,4.4-2.9,6.6c-4.6,10.9-8.3,22.2-11.1,33.6
					c0,0.2-0.1,0.3-0.1,0.5c-0.1,0.4-0.2,0.9-0.3,1.3c-0.2,0.9-0.4,1.7-0.6,2.6c-0.5,2.3,0.6,4.5,2.5,5.6c0.5,0.3,1,0.5,1.5,0.6
					c2.8,0.6,5.6-1.2,6.2-4c3.2-14.5,8-28.8,14.3-42.5c31-67.8,93.8-111.2,162.7-120.8c38.3-5.3,78.5-0.2,116.2,17.1
					c6.6,3,13,6.4,19.2,10c41.6,24.4,73.4,62.1,90.4,108c19.6,52.7,17.5,109.8-5.9,160.9c-48.3,105.5-173.4,152-278.9,103.7
					c-6.5-3-12.8-6.3-19-9.9c-26.6-15.6-49.4-36.8-66.9-62.2c-0.5-0.7-1-1.2-1.7-1.6c-1.7-1-3.9-1-5.6,0.2c-2.4,1.6-3,4.9-1.4,7.3
					c18.3,26.7,42.3,49,70.2,65.3c6.4,3.8,13.1,7.2,19.9,10.4c110.7,50.7,242.1,1.8,292.8-108.9c24.6-53.6,26.8-113.6,6.2-168.9
					c-17.9-48.1-51.2-87.7-94.9-113.4c-6.5-3.8-13.2-7.3-20.2-10.5c-53.6-24.6-113.6-26.8-168.9-6.2
					C1262.5,790.1,1222.9,823.4,1197.2,867.2z"/>
			</g>
		</g>
		<g>
			<g opacity="0.3">
				<path fill="#91B3FA" d="M544,1592.8c-1.8,3-1.4,7,1.1,9.6c4.7,5,9.6,9.9,14.6,14.6c3.2,3.1,8.4,2.9,11.4-0.3
					c3.1-3.2,2.9-8.4-0.3-11.4c-4.8-4.5-9.5-9.2-13.9-14c-3.1-3.3-8.2-3.4-11.4-0.3C544.8,1591.5,544.4,1592.1,544,1592.8z"/>
				<path fill="#91B3FA" d="M591.1,1633.3c2.6-3.6,7.7-4.4,11.3-1.7c9.1,6.7,18.6,12.9,28.4,18.6c2.1,1.2,4.1,2.4,6.2,3.6
					c3.9,2.2,5.3,7.1,3.1,11c-2.2,3.6-7.1,5.3-11,3.1c-2.2-1.2-4.4-2.5-6.5-3.7c-10.2-6-20.2-12.6-29.7-19.5
					c-3.4-2.5-4.3-7.1-2.2-10.6C590.7,1633.7,590.9,1633.5,591.1,1633.3z M674,1671.5c12.7,5.2,25.7,9.6,38.9,13.2
					c4.3,1.2,6.9,5.6,5.7,9.9c-1.2,4.3-5.6,6.9-9.9,5.7c-13.8-3.7-27.5-8.4-40.8-13.8c-4.1-1.7-6.1-6.4-4.4-10.6
					c0.1-0.4,0.3-0.7,0.5-1C665.9,1671.5,670.2,1670,674,1671.5z M753.1,1692.9c13.5,1.9,27.3,3,41,3.2c4.5,0.1,8,3.8,8,8.2
					c-0.1,4.5-3.7,8-8.2,8c-14.3-0.2-28.8-1.4-43-3.3c-4.4-0.6-7.5-4.7-6.9-9.1c0.2-1.1,0.5-2.1,1-3
					C746.6,1694.1,749.8,1692.5,753.1,1692.9z M835.1,1694.2c13.6-1.5,27.2-3.8,40.5-6.9c4.4-1,8.7,1.7,9.7,6c1,4.3-1.7,8.7-6,9.7
					c-13.9,3.3-28.2,5.7-42.5,7.3c-4.4,0.5-8.4-2.7-8.9-7.2c-0.2-1.8,0.2-3.5,1.1-5C830.3,1696.1,832.5,1694.5,835.1,1694.2z
					 M915,1675.5c12.8-4.7,25.5-10.3,37.6-16.5c4-2,8.8-0.5,10.9,3.5c2,4,0.5,8.9-3.5,10.9c-12.7,6.6-26,12.4-39.4,17.3
					c-4.2,1.5-8.8-0.6-10.4-4.8c-0.9-2.4-0.6-4.9,0.6-6.9C911.7,1677.4,913.1,1676.2,915,1675.5z M987.8,1637.9
					c11.3-7.7,22.2-16.2,32.4-25.2c3.3-3,8.5-2.6,11.4,0.7c3,3.3,2.6,8.4-0.7,11.4c-10.7,9.5-22.1,18.4-34,26.4
					c-3.7,2.5-8.7,1.6-11.2-2.1c-1.8-2.7-1.8-6-0.3-8.7C986,1639.5,986.8,1638.6,987.8,1637.9z M1049.2,1583.7
					c9-10.2,17.5-21.1,25.2-32.4c2.5-3.7,7.6-4.6,11.2-2.1c3.7,2.5,4.6,7.5,2.1,11.2c-8.1,11.8-17,23.3-26.5,34
					c-3,3.3-8.1,3.7-11.4,0.7c-2.9-2.6-3.5-6.9-1.6-10.1C1048.6,1584.5,1048.9,1584.1,1049.2,1583.7z M1122.5,1473.7
					c4.2,1.6,6.3,6.2,4.8,10.4c-4.3,11.6-9.3,23.2-14.9,34.3c-0.8,1.7-1.7,3.4-2.6,5.1c-1.9,4-6.9,5.5-10.9,3.5
					c-4-2.1-5.5-6.9-3.5-10.9c0.8-1.6,1.6-3.2,2.4-4.8c5.3-10.7,10.1-21.7,14.2-32.8c0.2-0.5,0.4-0.9,0.6-1.3
					C1114.7,1473.8,1118.8,1472.3,1122.5,1473.7z"/>
			</g>
			<g opacity="0.3">
				<path fill="#91B3FA" d="M500.7,1182c7.3-12.1,15.4-23.8,24-34.9c2.8-3.5,7.8-4.1,11.4-1.4c3.5,2.8,4.1,7.8,1.4,11.4
					c-8.3,10.5-16,21.7-22.9,33.2c-2.3,3.8-7.3,5.1-11.1,2.7C499.6,1190.8,498.4,1185.9,500.7,1182
					C500.6,1182,500.7,1182,500.7,1182z M491.7,1215.4c4.1,1.8,5.9,6.6,4,10.7c-5.5,12.3-10.4,25-14.4,37.8
					c-1.3,4.2-5.9,6.6-10.1,5.3c-4.3-1.3-6.6-5.9-5.3-10.1c4.2-13.4,9.3-26.8,15.1-39.6c0.1-0.3,0.3-0.5,0.4-0.8
					C483.5,1215.2,487.9,1213.7,491.7,1215.4z M552.8,1115.4c10-10,20.7-19.4,31.8-28c3.5-2.7,8.6-2.1,11.4,1.4
					c2.8,3.5,2.1,8.6-1.4,11.4c-10.6,8.2-20.8,17.2-30.3,26.7c-3.2,3.2-8.3,3.1-11.4,0c-2.7-2.7-3.1-6.7-1.3-9.8
					C551.9,1116.5,552.3,1115.9,552.8,1115.4z M465.2,1293.7c4.4,0.8,7.3,5,6.5,9.4c-2.4,13.2-4,26.7-4.8,40.1
					c-0.3,4.5-4.1,7.9-8.5,7.6c-4.5-0.3-7.9-4.1-7.6-8.5c0.8-14.1,2.5-28.2,5.1-42.1c0.2-1,0.5-1.8,1-2.6
					C458.4,1294.8,461.8,1293.1,465.2,1293.7z M619.5,1063.4c12.1-7.2,24.7-13.8,37.6-19.6c4.1-1.8,8.9,0,10.7,4.1
					c1.8,4.1,0,8.9-4.1,10.7c-12.3,5.5-24.3,11.7-35.8,18.7c-3.8,2.3-8.8,1.1-11.1-2.8c-1.6-2.6-1.5-5.8,0-8.3
					C617.4,1065.2,618.3,1064.2,619.5,1063.4z M696.7,1029c13.5-4.1,27.3-7.5,41.2-10c4.4-0.8,8.6,2.1,9.4,6.5
					c0.8,4.4-2.1,8.6-6.5,9.4c-13.2,2.4-26.4,5.6-39.3,9.6c-4.3,1.3-8.8-1.1-10.1-5.4c-0.7-2.3-0.4-4.6,0.8-6.5
					C693.1,1030.9,694.7,1029.6,696.7,1029z M780,1014c14.1-0.8,28.4-0.7,42.4,0.2c4.5,0.3,7.8,4.1,7.5,8.6
					c-0.3,4.5-4.1,7.8-8.6,7.5c-13.4-0.9-27-0.9-40.4-0.2c-4.5,0.3-8.3-3.2-8.5-7.6c-0.1-1.7,0.3-3.2,1.1-4.5
					C774.8,1015.8,777.2,1014.2,780,1014z"/>
				<path fill="#91B3FA" d="M451.9,1380.5c-0.8,1.3-1.2,2.9-1.1,4.6c0.4,6.9,1.1,13.8,1.9,20.6c0.6,4.4,4.6,7.6,9,7
					c4.4-0.6,7.6-4.6,7-9c-0.8-6.4-1.4-13.1-1.9-19.6c-0.3-4.5-4.1-7.8-8.6-7.5C455.6,1376.7,453.3,1378.2,451.9,1380.5z"/>
			</g>
			<g>
				<path fill="#9BB1FF" d="M566.3,1483.6c0.6,1.6,2.2,2.7,3.9,2.7l49.8-1.2c12.9,19.4,28.9,36.9,47.9,51.6l-4.8,49.6
					c-0.2,1.7,0.8,3.4,2.4,4.1l54.4,24.9c1.6,0.7,3.5,0.4,4.7-0.9l34.4-36.1c23.5,4.7,47.2,5.5,70.3,2.6l31.7,38.5
					c1.1,1.4,3,1.8,4.6,1.2l56.1-20.8c1.6-0.6,2.7-2.2,2.7-3.9L923,1546c19.4-12.9,36.9-28.9,51.6-47.9l49.6,4.8
					c1.7,0.2,3.4-0.8,4.1-2.4l24.9-54.4c0.7-1.6,0.4-3.5-0.9-4.7l-36.1-34.4c4.7-23.5,5.5-47.2,2.6-70.3l38.5-31.7
					c1.3-1.1,1.8-3,1.2-4.6l-20.8-56.1c-0.6-1.6-2.2-2.7-3.9-2.7l-49.8,1.2c-12.9-19.4-28.9-36.9-47.9-51.6l4.8-49.6
					c0.2-1.7-0.8-3.4-2.4-4.1l-54.4-24.9c-1.6-0.7-3.5-0.4-4.7,0.9l-34.4,36.1c-23.5-4.7-47.2-5.5-70.3-2.6l-31.7-38.5
					c-1.1-1.4-3-1.8-4.6-1.2l-56.1,20.8c-1.6,0.6-2.7,2.2-2.7,3.9l1.2,49.8c-19.4,12.9-36.9,28.9-51.6,47.9l-49.6-4.8
					c-1.7-0.2-3.4,0.8-4.1,2.4l-24.9,54.4c-0.7,1.6-0.4,3.5,0.9,4.7l36.1,34.4c-4.7,23.5-5.5,47.2-2.6,70.3l-38.5,31.7
					c-1.3,1.1-1.8,3-1.2,4.6L566.3,1483.6z"/>
				<g>
					<path fill="#BDD0FB" d="M754.3,1325.8c10.2-12.7,24.8-20.7,41.1-22.5c16.2-1.8,32.2,2.9,45,13.1c26.3,21.1,30.5,59.7,9.4,86
						c-21.1,26.3-59.7,30.5-86,9.4c-12.7-10.2-20.7-24.8-22.5-41.1c-1.4-13.2,1.4-26.2,8-37.5
						C750.7,1330.6,752.4,1328.1,754.3,1325.8z M830.2,1329c-9.4-7.5-21.1-11-33.1-9.7c-11.9,1.3-22.7,7.2-30.2,16.6l0,0
						c-7.5,9.4-11,21.1-9.7,33.1c1.3,11.9,7.2,22.7,16.6,30.2c19.3,15.5,47.7,12.4,63.3-6.9c1.4-1.7,2.6-3.6,3.8-5.4
						C852,1367.9,847.8,1343.1,830.2,1329z"/>
				</g>
				<path fill="#BDD0FB" d="M671.8,1286.5c-2.6,4.4-5,9-7.2,13.7c-4.3,9.4-7.7,19.3-10,29.4c-0.1,0.5-0.2,0.9-0.3,1.4
					c-0.8,3.5,0.9,7,3.8,8.7c0.7,0.4,1.5,0.7,2.4,0.9c4.4,1,8.7-1.8,9.6-6.2c2.1-9.4,5.2-18.7,9.2-27.5l0,0c0.2-0.5,0.4-1,0.7-1.4
					c9.8-20.8,24.3-38.3,42.3-51.6c9.8-7.2,20.6-13.1,32.2-17.5c0.1,0,0.2-0.1,0.3-0.1c0.3-0.1,0.6-0.2,0.9-0.3
					c34.1-12.7,71.1-11.3,104.2,3.8c4.3,2,8.4,4.1,12.4,6.5c27,15.8,47.5,40.2,58.5,69.9c12.7,34.1,11.3,71.1-3.8,104.2
					c-15.2,33.1-42.3,58.3-76.4,71c-34.1,12.7-71.1,11.3-104.2-3.8c-4.2-1.9-8.3-4.1-12.3-6.4c-17.2-10.1-32-23.8-43.3-40.3
					c-0.7-1-1.6-1.8-2.6-2.4c-2.6-1.5-6-1.5-8.7,0.3c-3.7,2.5-4.6,7.6-2.1,11.3c12.6,18.4,29.2,33.8,48.4,45.1c4.4,2.6,9,5,13.7,7.1
					c37,16.9,78.4,18.5,116.6,4.3c38.1-14.2,68.5-42.3,85.4-79.4c17-37,18.5-78.4,4.3-116.6c-12.3-33.2-35.3-60.5-65.5-78.2
					c-4.5-2.6-9.1-5-13.9-7.2C795,1192.4,710.9,1220,671.8,1286.5z"/>
			</g>
		</g>
	</g>
	<g>
		
			<ellipse transform="matrix(0.999 4.385781e-002 -4.385781e-002 0.999 96.65 -82.6028)" fill="#275DAD" cx="1930.8" cy="2161.4" rx="1159.2" ry="1074"/>
		<ellipse opacity="0.31" fill="#91B3FA" cx="1868.1" cy="2083.9" rx="909.6" ry="859.3"/>
		<g opacity="0.68">
			<path fill="#FFFFFF" d="M2227,2166.5c-0.3,189.4-13.3,379.2-46.6,566c-8.5,46.6-18.2,93.1-29.9,139
				c-11.7,46-25.2,91.5-41.8,136.1c-16.7,44.4-36.1,88.2-62.3,128.2c-13.2,19.9-28.3,38.9-46.8,54.6c-9.3,7.8-19.4,14.7-30.6,19.7
				c-11.2,5-23.4,8.2-35.7,8.4c-12.4,0.4-24.8-2.1-36.1-6.6c-11.4-4.5-21.8-11.1-31.3-18.7c-19-15.2-34.3-34-47.8-53.7
				c-26.7-39.7-46.4-83.4-63.2-127.8c-16.8-44.5-30.4-90-42.2-135.9c-11.8-45.9-21.7-92.4-30.2-139c-17-93.3-28.6-187.5-36.4-281.9
				c-7.8-94.5-11.7-189.2-12.1-284c-0.2-47.4,1.1-94.7,2.7-142.1c1.8-47.3,4.4-94.6,7.9-141.9c7-94.5,17.5-188.7,33-282.2
				c7.8-46.7,16.9-93.3,27.9-139.4c11-46.1,23.7-91.9,39.6-136.6c8-22.4,16.6-44.5,26.6-66.1c9.9-21.6,21-42.7,34-62.7
				c13.1-19.9,28.1-38.9,46.7-54c9.3-7.5,19.6-14.1,30.9-18.5c11.2-4.5,23.4-6.8,35.5-6.3c12.1,0.3,24.1,3.4,35.1,8.2
				c11,4.9,21.2,11.5,30.5,19c18.6,15.1,34.1,33.7,47.8,53.1c27.2,39.2,47.7,82.4,65.5,126.3c17.6,44.1,32.2,89.3,44.9,135
				c12.6,45.7,23.3,91.9,32.6,138.4C2211.5,1787.3,2226.4,1977.1,2227,2166.5z M2213,2166.5c0.2-94.4-3.4-188.8-11.3-282.8
				c-7.7-94-19.4-187.8-36.9-280.6c-8.7-46.4-18.9-92.5-30.9-138.1c-12.1-45.6-26.1-90.7-43.1-134.6c-17.2-43.8-37-86.9-63.4-125.7
				c-13.3-19.3-28.2-37.6-46.2-52.6c-9-7.4-18.7-13.9-29.3-18.7c-10.5-4.7-21.9-7.8-33.4-8.2c-11.5-0.4-23.1,2-33.7,6.3
				c-10.7,4.3-20.5,10.7-29.5,18.1c-17.9,14.9-32.5,33.6-45.1,53.3c-12.6,19.8-23.3,40.8-32.9,62.3c-9.6,21.5-18,43.5-25.6,65.8
				c-15.2,44.6-27.4,90.2-37.8,136.2c-10.4,46-18.9,92.4-26.2,139.1c-14.5,93.3-23.9,187.3-29.8,281.5c-6,94.2-8.1,188.7-7.9,283
				c-0.2,94.4,2.9,188.8,9.9,282.9c7.1,94.1,17.9,188,34.1,280.9c8.1,46.5,17.6,92.7,29,138.4c11.4,45.7,24.6,91,40.9,135.2
				c16.3,44,35.5,87.4,61.3,126.4c13,19.4,27.8,37.7,45.7,52.3c9,7.2,18.7,13.5,29.2,17.7c10.5,4.3,21.8,6.7,33.1,6.3
				c11.3-0.3,22.4-3.3,32.8-8c10.3-4.8,19.9-11.3,28.7-18.8c17.5-15.1,32-33.6,44.8-53.2c25.4-39.3,44.2-82.8,60.4-126.9
				c16-44.2,29.1-89.6,40.4-135.4c11.2-45.8,20.6-92,28.7-138.5c16.1-93,26.8-186.8,33.9-280.9
				C2209.7,2355.3,2213,2260.9,2213,2166.5z"/>
			<path fill="#FFFFFF" d="M2704.8,2166.5c-0.7,122-16.3,244-49,361.6c-33.2,117.4-83.3,230.3-151.3,331.6
				c-34,50.6-72.5,98.3-115.6,141.5c-43,43.2-90.6,82-142.3,114.5c-51.7,32.4-107.5,58.3-166,75.9c-58.4,17.6-119.4,26.8-180.4,26.9
				c-61,0-122-9.1-180.5-26.7c-58.5-17.5-114.4-43.4-166.1-75.8c-51.7-32.5-99.4-71.2-142.4-114.4c-43.1-43.2-81.7-90.9-115.8-141.5
				c-68.1-101.4-118.3-214.3-151.7-331.7c-16.4-58.8-28.6-118.8-36.7-179.3c-8-60.5-12.1-121.6-12.4-182.6
				c0.3-61.1,4.4-122.1,12.5-182.6c8.1-60.5,20.4-120.5,36.9-179.3c33.5-117.4,83.7-230.2,151.9-331.5
				c34.1-50.6,72.7-98.2,115.8-141.3c43.1-43.1,90.7-81.9,142.4-114.2c51.7-32.3,107.6-58,166-75.5c58.3-17.6,119.2-26.8,180.2-26.8
				c61,0.1,121.8,9.3,180.2,27c58.3,17.6,114.2,43.3,165.8,75.6c51.6,32.4,99.2,71.2,142.2,114.3c43,43.2,81.6,90.8,115.6,141.4
				c68,101.3,118.2,214.1,151.5,331.4C2688.3,1922.5,2704.1,2044.6,2704.8,2166.5z M2688.7,2166.5c-0.2-120.6-15.2-241.3-47-357.7
				c-32-116.2-80.2-228.4-146.5-329.4c-33.1-50.4-70.8-97.9-112.9-141.1c-42.2-43.1-88.8-82.1-139.7-114.6
				c-51-32.2-106.1-58.2-163.9-75.8c-57.7-17.6-118-26.8-178.4-27c-60.4,0.3-120.7,9.5-178.4,27.1c-57.7,17.6-112.8,43.6-163.7,75.9
				c-50.9,32.5-97.4,71.5-139.5,114.6c-42.1,43.2-79.7,90.7-112.7,141.1c-66.2,100.9-114.3,213.1-146.1,329.2
				c-15.9,58.2-27.3,117.5-35.1,177.2c-7.8,59.7-11.6,120-11.8,180.3c0.2,60.3,4.1,120.5,11.9,180.2c7.8,59.7,19.4,119,35.3,177.1
				c31.9,116.1,80.1,228.2,146.3,329c33.1,50.4,70.7,97.8,112.7,141c42.1,43.1,88.6,82.1,139.5,114.4c50.9,32.2,106,58,163.6,75.6
				c57.6,17.6,117.8,27,178.1,27.3c60.3-0.3,120.5-9.5,178.1-27.1c57.7-17.5,112.7-43.3,163.7-75.5c50.9-32.3,97.5-71.3,139.7-114.4
				c42.2-43.1,79.8-90.6,113-140.9c66.4-100.8,114.6-212.9,146.7-329.1C2673.4,2407.8,2688.5,2287.1,2688.7,2166.5z"/>
			<path fill="#FFFFFF" d="M961.5,1750.2l241.6-2l241.6-1.1l483.2-0.9l483.2,1l241.6,1.2l241.6,2.1c0.4,0,0.7,0.3,0.7,0.7
				c0,0.4-0.3,0.7-0.7,0.7l-241.6,2.1l-241.6,1.2l-483.2,1l-483.2-0.9l-241.6-1.1l-241.6-2c-0.6,0-1.1-0.5-1-1.1
				C960.5,1750.7,960.9,1750.2,961.5,1750.2z"/>
			<path fill="#FFFFFF" d="M1241.8,1345.6c57.2-0.9,114.4-1.3,171.5-2l171.5-1.1c57.2-0.5,114.4-0.4,171.5-0.6l171.5-0.3l343.1,1
				l171.5,1.2c57.2,0.7,114.4,1.1,171.5,2.1c0.4,0,0.7,0.3,0.7,0.7c0,0.4-0.3,0.7-0.7,0.7c-57.2,1-114.4,1.4-171.5,2.1l-171.5,1.2
				l-343.1,1l-171.5-0.3c-57.2-0.1-114.4-0.1-171.5-0.6l-171.5-1.1c-57.2-0.7-114.4-1-171.5-2c-0.6,0-1-0.5-1-1.1
				C1240.8,1346,1241.2,1345.6,1241.8,1345.6z"/>
			<path fill="#FFFFFF" d="M877.5,2154.9l262.6-1.9l262.6-1.1l525.2-0.9l525.2,1l262.6,1.2l262.6,2.1c0.4,0,0.7,0.3,0.7,0.7
				c0,0.4-0.3,0.7-0.7,0.7l-262.6,2.1l-262.6,1.2l-525.2,1l-525.2-0.9l-262.6-1.1l-262.6-1.9c-0.6,0-1.1-0.5-1-1.1
				C876.5,2155.4,877,2154.9,877.5,2154.9z"/>
			<path fill="#FFFFFF" d="M961.5,2559.6l241.6-2l241.6-1.1l483.2-0.9l483.2,1l241.6,1.2l241.6,2.1c0.4,0,0.7,0.3,0.7,0.7
				c0,0.4-0.3,0.7-0.7,0.7l-241.6,2.1l-241.6,1.2l-483.2,1l-483.2-0.9l-241.6-1.1l-241.6-2c-0.6,0-1.1-0.5-1-1.1
				C960.5,2560,960.9,2559.6,961.5,2559.6z"/>
			<path fill="#FFFFFF" d="M2648.6,2969H1276.4c-2,0-3.7-1.7-3.7-3.7c0-2,1.7-3.7,3.7-3.7h1372.3c2,0,3.7,1.7,3.7,3.7
				C2652.3,2967.3,2650.7,2969,2648.6,2969z"/>
		</g>
	</g>
	<g>
		<g>
			<g>
				<circle fill="#91B3FA" cx="2180.6" cy="1470.9" r="52.4"/>
				<path fill="#91B3FA" d="M2232.9,1466.1h-52.3h-52.4c0,0-4.2,30.1,42.6,109.7c2,3.5,5.8,6,9.8,6.1c4,0,7.8-2.8,9.8-6.3
					C2237.1,1495.9,2232.9,1466.1,2232.9,1466.1z"/>
			</g>
			<g>
				<path fill="#BDD0FB" d="M2181.9,1584v0.2h-1.3c-4.6,0-8.8-2.5-11.1-6.4c-27.3-46.5-37.3-75.9-40.9-92.4c-1-3.8-1.6-7.5-1.8-11.3
					c-0.3-3.9-0.1-5.5,0-5.7l0.1-0.8c2.1-28.1,25.5-50,53.7-50c28.6,0,52.2,22.2,53.8,50.6c0,0.4,0.1,1.3,0.1,2.9l0,0.2
					c0,5.1-0.7,10.2-2.2,15.1c-3.7,16.4-13.1,45.6-40,91.3C2190.1,1581.6,2186,1584,2181.9,1584z M2129.7,1470.2c0,0,0,2,0.1,3.7
					l0,0.1c0.2,3.6,0.7,7.1,1.7,10.7l0,0.1c3.5,16.2,13.4,45.3,40.6,91.5c1.7,3,5.6,4.8,9.1,4.8l0.6,1.5v-1.5c1,0,6.2-1.9,8-4.9
					c26.7-45.5,36.8-74.3,39.9-90.6v-0.1c2-4.6,2-9.5,2-14.3l0-0.2v0c0-1.5-0.2-2.3-0.2-2.6l-0.1-0.1c-1.5-26.8-23.8-47.7-50.8-47.7
					c-26.9,0-49.2,21.1-50.8,48.1L2129.7,1470.2L2129.7,1470.2z"/>
			</g>
			<circle opacity="0.8" fill="#FFFFFF" cx="2180.8" cy="1470.7" r="30.2"/>
			<g>
				<linearGradient id="SVGID_2_" gradientUnits="userSpaceOnUse" x1="2186.1755" y1="1458.7036" x2="2280.9006" y2="1246.8457">
					<stop  offset="0" style="stop-color:#4F52FF"/>
					<stop  offset="1" style="stop-color:#4042E2"/>
				</linearGradient>
				<path fill="url(#SVGID_2_)" d="M2180.8,1502.7c-17.6,0-31.9-14.3-31.9-31.9s14.3-31.9,31.9-31.9c17.6,0,31.9,14.3,31.9,31.9
					S2198.4,1502.7,2180.8,1502.7z M2180.8,1442.2c-15.7,0-28.5,12.8-28.5,28.5s12.8,28.5,28.5,28.5c15.7,0,28.5-12.8,28.5-28.5
					S2196.5,1442.2,2180.8,1442.2z"/>
			</g>
		</g>
		<g>
			<path fill="#BDD0FB" d="M2152.1,1439.3c-0.1,0-0.3-0.1-0.4-0.2c-0.2-0.2-0.2-0.5,0.1-0.7c8.5-7.3,19.3-11.3,30.6-11.3
				c0.3,0,0.5,0.2,0.5,0.5c0,0.3-0.2,0.5-0.5,0.5c-11,0-21.6,3.9-29.9,11.1C2152.3,1439.2,2152.2,1439.3,2152.1,1439.3z"/>
		</g>
		<g>
			<path fill="#BDD0FB" d="M2135.9,1474.5c-0.3,0-0.5-0.2-0.5-0.5c0-8.8,2.4-17.3,7-24.7c0.1-0.2,0.5-0.3,0.7-0.2
				c0.2,0.1,0.3,0.5,0.2,0.7c-4.5,7.2-6.9,15.6-6.9,24.2C2136.4,1474.3,2136.2,1474.5,2135.9,1474.5z"/>
		</g>
	</g>
	<g>
		<g>
			<g>
				<circle fill="#9BB1FF" cx="2642.3" cy="1924.4" r="625.1"/>
				<path fill="#9BB1FF" d="M3266.3,1867h-624h-625.1c0,0-49.8,358.9,508.1,1309.3c24.3,41.5,68.8,72.2,116.9,72.2
					c48.1,0,92.6-33.3,117-74.8C3317.1,2223.3,3266.3,1867,3266.3,1867z"/>
			</g>
			<g>
				<path fill="#FFC1AB" d="M2657.4,3274.8v2.8h-15.2c-54.4,0-105.2-29.6-132.5-76.1c-326.1-555.5-445.6-906.6-488.4-1103.1
					c-12.2-45.2-19.2-89.4-21.4-134.9c-3.8-46.5-0.9-66-0.5-68.1l1.6-10c25.2-335.8,304.7-597.1,641.4-597.1
					c341.1,0,623.1,265,642.2,603.5c0.5,4.4,1.4,15.7,1,34.5l0,2.3c0,61.4-8.7,122.2-25.8,180.8
					c-44.3,196.4-156.8,544.1-477.4,1090.3C2754.9,3246.4,2706.1,3274.8,2657.4,3274.8z M2034.3,1915.7c-0.1,0,0.1,24.5,1.8,44.6
					l0,0.8c2.1,43,8.7,84.9,20.3,127.8l0.2,0.9c42.2,193.9,160.4,540.8,484.3,1092.6c20.9,35.5,67.2,57.6,108.8,57.6l7.6,18.2v-18.1
					c12.2,0,74.6-22.3,95.6-58.1c318.5-542.6,439.4-887.5,475.9-1081.2v-1.1c24.3-55.4,24.4-113,24.4-171.1l-0.1-2.6v-0.2
					c0-18.1-2.6-27.9-2.8-30.4l-1.1-1.1c-17.7-319.5-284.4-569.7-606.5-569.7c-321.4,0-587.8,252.1-606.2,574.4l-1.2,16.8H2034.3z"
					/>
			</g>
			<circle opacity="0.8" fill="#FFFFFF" cx="2644.4" cy="1922.4" r="360.9"/>
			<g>
				<path fill="#FCA17D" d="M2644.4,2303.5c-210.1,0-381.1-171-381.1-381.1s171-381.1,381.1-381.1c210.1,0,381.1,171,381.1,381.1
					S2854.5,2303.5,2644.4,2303.5z M2644.4,1581.6c-187.9,0-340.8,152.9-340.8,340.8s152.9,340.8,340.8,340.8
					c187.9,0,340.8-152.9,340.8-340.8S2832.3,1581.6,2644.4,1581.6z"/>
			</g>
		</g>
		<g>
			<path fill="#BDD0FB" d="M2302,1546.6c-1.7,0-3.4-0.7-4.6-2.1c-2.2-2.5-1.9-6.4,0.6-8.5c101.4-87.1,230.9-135,364.8-135
				c3.3,0,6,2.7,6,6c0,3.3-2.7,6.1-6,6.1c-131,0-257.7,46.9-356.9,132.1C2304.8,1546.1,2303.4,1546.6,2302,1546.6z"/>
		</g>
		<g>
			<path fill="#BDD0FB" d="M2108.7,1967.2c-3.3,0-6-2.7-6-6c0-104.5,29-206.5,83.8-294.9c1.8-2.8,5.5-3.7,8.3-2
				c2.8,1.8,3.7,5.5,2,8.3c-53.6,86.5-82,186.2-82,288.5C2114.7,1964.5,2112,1967.2,2108.7,1967.2z"/>
		</g>
	</g>
	<g>
		<g>
			<g>
				<circle fill="#91B3FA" cx="1364.9" cy="1727.9" r="52.4"/>
				<path fill="#91B3FA" d="M1417.1,1723.1h-52.3h-52.4c0,0-4.2,30.1,42.6,109.7c2,3.5,5.8,6,9.8,6.1c4,0,7.8-2.8,9.8-6.3
					C1421.4,1752.9,1417.1,1723.1,1417.1,1723.1z"/>
			</g>
			<g>
				<path fill="#BDD0FB" d="M1366.1,1841v0.2h-1.3c-4.6,0-8.8-2.5-11.1-6.4c-27.3-46.5-37.3-75.9-40.9-92.4c-1-3.8-1.6-7.5-1.8-11.3
					c-0.3-3.9-0.1-5.5,0-5.7l0.1-0.8c2.1-28.1,25.5-50,53.7-50c28.6,0,52.2,22.2,53.8,50.6c0,0.4,0.1,1.3,0.1,2.9l0,0.2
					c0,5.1-0.7,10.2-2.2,15.1c-3.7,16.4-13.1,45.6-40,91.3C1374.3,1838.6,1370.2,1841,1366.1,1841z M1313.9,1727.1c0,0,0,2,0.1,3.7
					l0,0.1c0.2,3.6,0.7,7.1,1.7,10.7l0,0.1c3.5,16.2,13.4,45.3,40.6,91.5c1.7,3,5.6,4.8,9.1,4.8l0.6,1.5v-1.5c1,0,6.2-1.9,8-4.9
					c26.7-45.5,36.8-74.3,39.9-90.6v-0.1c2-4.6,2-9.5,2-14.3l0-0.2v0c0-1.5-0.2-2.3-0.2-2.6l-0.1-0.1c-1.5-26.8-23.8-47.7-50.8-47.7
					c-26.9,0-49.2,21.1-50.8,48.1L1313.9,1727.1L1313.9,1727.1z"/>
			</g>
			<circle opacity="0.8" fill="#FFFFFF" cx="1365" cy="1727.7" r="30.2"/>
			<g>
				<linearGradient id="SVGID_3_" gradientUnits="userSpaceOnUse" x1="1370.4034" y1="1715.6743" x2="1465.1285" y2="1503.8165">
					<stop  offset="0" style="stop-color:#4F52FF"/>
					<stop  offset="1" style="stop-color:#4042E2"/>
				</linearGradient>
				<path fill="url(#SVGID_3_)" d="M1365,1759.6c-17.6,0-31.9-14.3-31.9-31.9c0-17.6,14.3-31.9,31.9-31.9s31.9,14.3,31.9,31.9
					C1396.9,1745.3,1382.6,1759.6,1365,1759.6z M1365,1699.2c-15.7,0-28.5,12.8-28.5,28.5c0,15.7,12.8,28.5,28.5,28.5
					s28.5-12.8,28.5-28.5C1393.6,1712,1380.8,1699.2,1365,1699.2z"/>
			</g>
		</g>
		<g>
			<path fill="#BDD0FB" d="M1336.3,1696.2c-0.1,0-0.3-0.1-0.4-0.2c-0.2-0.2-0.2-0.5,0.1-0.7c8.5-7.3,19.3-11.3,30.6-11.3
				c0.3,0,0.5,0.2,0.5,0.5c0,0.3-0.2,0.5-0.5,0.5c-11,0-21.6,3.9-29.9,11.1C1336.6,1696.2,1336.5,1696.2,1336.3,1696.2z"/>
		</g>
		<g>
			<path fill="#BDD0FB" d="M1320.2,1731.5c-0.3,0-0.5-0.2-0.5-0.5c0-8.8,2.4-17.3,7-24.7c0.1-0.2,0.5-0.3,0.7-0.2
				c0.2,0.1,0.3,0.5,0.2,0.7c-4.5,7.2-6.9,15.6-6.9,24.2C1320.7,1731.2,1320.4,1731.5,1320.2,1731.5z"/>
		</g>
	</g>
	<g>
		<g>
			<g>
				<circle fill="#91B3FA" cx="1693.9" cy="1416.8" r="52.4"/>
				<path fill="#91B3FA" d="M1746.1,1412h-52.3h-52.4c0,0-4.2,30.1,42.6,109.7c2,3.5,5.8,6,9.8,6.1c4,0,7.8-2.8,9.8-6.3
					C1750.4,1441.9,1746.1,1412,1746.1,1412z"/>
			</g>
			<g>
				<path fill="#BDD0FB" d="M1695.1,1529.9v0.2h-1.3c-4.6,0-8.8-2.5-11.1-6.4c-27.3-46.5-37.3-75.9-40.9-92.4
					c-1-3.8-1.6-7.5-1.8-11.3c-0.3-3.9-0.1-5.5,0-5.7l0.1-0.8c2.1-28.1,25.5-50,53.7-50c28.6,0,52.2,22.2,53.8,50.6
					c0,0.4,0.1,1.3,0.1,2.9l0,0.2c0,5.1-0.7,10.2-2.2,15.1c-3.7,16.4-13.1,45.6-40,91.3C1703.3,1527.6,1699.2,1529.9,1695.1,1529.9z
					 M1642.9,1416.1c0,0,0,2,0.1,3.7l0,0.1c0.2,3.6,0.7,7.1,1.7,10.7l0,0.1c3.5,16.2,13.4,45.3,40.6,91.5c1.7,3,5.6,4.8,9.1,4.8
					l0.6,1.5v-1.5c1,0,6.2-1.9,8-4.9c26.7-45.5,36.8-74.3,39.9-90.6v-0.1c2-4.6,2-9.5,2-14.3l0-0.2v0c0-1.5-0.2-2.3-0.2-2.6
					l-0.1-0.1c-1.5-26.8-23.8-47.7-50.8-47.7c-26.9,0-49.2,21.1-50.8,48.1L1642.9,1416.1L1642.9,1416.1z"/>
			</g>
			<circle opacity="0.8" fill="#FFFFFF" cx="1694" cy="1416.7" r="30.2"/>
			<g>
				<linearGradient id="SVGID_4_" gradientUnits="userSpaceOnUse" x1="1699.4052" y1="1404.6171" x2="1794.1302" y2="1192.7593">
					<stop  offset="0" style="stop-color:#4F52FF"/>
					<stop  offset="1" style="stop-color:#4042E2"/>
				</linearGradient>
				<path fill="url(#SVGID_4_)" d="M1694,1448.6c-17.6,0-31.9-14.3-31.9-31.9c0-17.6,14.3-31.9,31.9-31.9
					c17.6,0,31.9,14.3,31.9,31.9C1725.9,1434.3,1711.6,1448.6,1694,1448.6z M1694,1388.1c-15.7,0-28.5,12.8-28.5,28.5
					c0,15.7,12.8,28.5,28.5,28.5c15.7,0,28.5-12.8,28.5-28.5C1722.6,1400.9,1709.8,1388.1,1694,1388.1z"/>
			</g>
		</g>
		<g>
			<path fill="#BDD0FB" d="M1665.3,1385.2c-0.1,0-0.3-0.1-0.4-0.2c-0.2-0.2-0.2-0.5,0.1-0.7c8.5-7.3,19.3-11.3,30.6-11.3
				c0.3,0,0.5,0.2,0.5,0.5s-0.2,0.5-0.5,0.5c-11,0-21.6,3.9-29.9,11.1C1665.6,1385.1,1665.5,1385.2,1665.3,1385.2z"/>
		</g>
		<g>
			<path fill="#BDD0FB" d="M1649.2,1420.4c-0.3,0-0.5-0.2-0.5-0.5c0-8.8,2.4-17.3,7-24.7c0.1-0.2,0.5-0.3,0.7-0.2
				c0.2,0.1,0.3,0.5,0.2,0.7c-4.5,7.2-6.9,15.6-6.9,24.2C1649.7,1420.2,1649.4,1420.4,1649.2,1420.4z"/>
		</g>
	</g>
	<g>
		<g>
			<g>
				<circle fill="#91B3FA" cx="1529.6" cy="2170" r="52.4"/>
				<path fill="#91B3FA" d="M1581.9,2165.2h-52.3h-52.4c0,0-4.2,30.1,42.6,109.7c2,3.5,5.8,6,9.8,6.1c4,0,7.8-2.8,9.8-6.3
					C1586.1,2195.1,1581.9,2165.2,1581.9,2165.2z"/>
			</g>
			<g>
				<path fill="#BDD0FB" d="M1530.8,2283.2v0.2h-1.3c-4.6,0-8.8-2.5-11.1-6.4c-27.3-46.5-37.3-75.9-40.9-92.4
					c-1-3.8-1.6-7.5-1.8-11.3c-0.3-3.9-0.1-5.5,0-5.7l0.1-0.8c2.1-28.1,25.5-50,53.7-50c28.6,0,52.2,22.2,53.8,50.6
					c0,0.4,0.1,1.3,0.1,2.9l0,0.2c0,5.1-0.7,10.2-2.2,15.1c-3.7,16.4-13.1,45.6-40,91.3C1539,2280.8,1534.9,2283.2,1530.8,2283.2z
					 M1478.7,2169.3c0,0,0,2,0.1,3.7l0,0.1c0.2,3.6,0.7,7.1,1.7,10.7l0,0.1c3.5,16.2,13.4,45.3,40.6,91.5c1.7,3,5.6,4.8,9.1,4.8
					l0.6,1.5v-1.5c1,0,6.2-1.9,8-4.9c26.7-45.5,36.8-74.3,39.9-90.6v-0.1c2-4.6,2-9.5,2-14.3l0-0.2v0c0-1.5-0.2-2.3-0.2-2.6
					l-0.1-0.1c-1.5-26.8-23.8-47.7-50.8-47.7c-26.9,0-49.2,21.1-50.8,48.1L1478.7,2169.3L1478.7,2169.3z"/>
			</g>
			<circle opacity="0.8" fill="#FFFFFF" cx="1529.8" cy="2169.9" r="30.2"/>
			<g>
				<linearGradient id="SVGID_5_" gradientUnits="userSpaceOnUse" x1="1535.1356" y1="2157.8364" x2="1629.8607" y2="1945.9786">
					<stop  offset="0" style="stop-color:#4F52FF"/>
					<stop  offset="1" style="stop-color:#4042E2"/>
				</linearGradient>
				<path fill="url(#SVGID_5_)" d="M1529.8,2201.8c-17.6,0-31.9-14.3-31.9-31.9s14.3-31.9,31.9-31.9c17.6,0,31.9,14.3,31.9,31.9
					S1547.4,2201.8,1529.8,2201.8z M1529.8,2141.3c-15.7,0-28.5,12.8-28.5,28.5s12.8,28.5,28.5,28.5c15.7,0,28.5-12.8,28.5-28.5
					S1545.5,2141.3,1529.8,2141.3z"/>
			</g>
		</g>
		<g>
			<path fill="#BDD0FB" d="M1501.1,2138.4c-0.1,0-0.3-0.1-0.4-0.2c-0.2-0.2-0.2-0.5,0.1-0.7c8.5-7.3,19.3-11.3,30.6-11.3
				c0.3,0,0.5,0.2,0.5,0.5c0,0.3-0.2,0.5-0.5,0.5c-11,0-21.6,3.9-29.9,11.1C1501.3,2138.4,1501.2,2138.4,1501.1,2138.4z"/>
		</g>
		<g>
			<path fill="#BDD0FB" d="M1484.9,2173.6c-0.3,0-0.5-0.2-0.5-0.5c0-8.8,2.4-17.3,7-24.7c0.1-0.2,0.5-0.3,0.7-0.2
				c0.2,0.1,0.3,0.5,0.2,0.7c-4.5,7.2-6.9,15.6-6.9,24.2C1485.4,2173.4,1485.2,2173.6,1484.9,2173.6z"/>
		</g>
	</g>
	<g>
		<g>
			<g>
				<circle fill="#91B3FA" cx="1328.6" cy="2475" r="52.4"/>
				<path fill="#91B3FA" d="M1380.9,2470.2h-52.3h-52.4c0,0-4.2,30.1,42.6,109.7c2,3.5,5.8,6,9.8,6.1c4,0,7.8-2.8,9.8-6.3
					C1385.2,2500,1380.9,2470.2,1380.9,2470.2z"/>
			</g>
			<g>
				<path fill="#BDD0FB" d="M1329.9,2588.1v0.2h-1.3c-4.6,0-8.8-2.5-11.1-6.4c-27.3-46.5-37.3-75.9-40.9-92.4
					c-1-3.8-1.6-7.5-1.8-11.3c-0.3-3.9-0.1-5.5,0-5.7l0.1-0.8c2.1-28.1,25.5-50,53.7-50c28.6,0,52.2,22.2,53.8,50.6
					c0,0.4,0.1,1.3,0.1,2.9l0,0.2c0,5.1-0.7,10.2-2.2,15.1c-3.7,16.4-13.1,45.6-40,91.3C1338.1,2585.7,1334,2588.1,1329.9,2588.1z
					 M1277.7,2474.3c0,0,0,2,0.1,3.7l0,0.1c0.2,3.6,0.7,7.1,1.7,10.7l0,0.1c3.5,16.2,13.4,45.3,40.6,91.5c1.7,3,5.6,4.8,9.1,4.8
					l0.6,1.5v-1.5c1,0,6.2-1.9,8-4.9c26.7-45.5,36.8-74.3,39.9-90.6v-0.1c2-4.6,2-9.5,2-14.3l0-0.2v0c0-1.5-0.2-2.3-0.2-2.6
					l-0.1-0.1c-1.5-26.8-23.8-47.7-50.8-47.7c-26.9,0-49.2,21.1-50.8,48.1L1277.7,2474.3L1277.7,2474.3z"/>
			</g>
			<circle opacity="0.8" fill="#FFFFFF" cx="1328.8" cy="2474.8" r="30.2"/>
			<g>
				<linearGradient id="SVGID_6_" gradientUnits="userSpaceOnUse" x1="1334.1969" y1="2462.7842" x2="1428.922" y2="2250.9263">
					<stop  offset="0" style="stop-color:#4F52FF"/>
					<stop  offset="1" style="stop-color:#4042E2"/>
				</linearGradient>
				<path fill="url(#SVGID_6_)" d="M1328.8,2506.7c-17.6,0-31.9-14.3-31.9-31.9c0-17.6,14.3-31.9,31.9-31.9
					c17.6,0,31.9,14.3,31.9,31.9C1360.7,2492.4,1346.4,2506.7,1328.8,2506.7z M1328.8,2446.3c-15.7,0-28.5,12.8-28.5,28.5
					c0,15.7,12.8,28.5,28.5,28.5c15.7,0,28.5-12.8,28.5-28.5C1357.4,2459.1,1344.6,2446.3,1328.8,2446.3z"/>
			</g>
		</g>
		<g>
			<path fill="#BDD0FB" d="M1300.1,2443.3c-0.1,0-0.3-0.1-0.4-0.2c-0.2-0.2-0.2-0.5,0.1-0.7c8.5-7.3,19.3-11.3,30.6-11.3
				c0.3,0,0.5,0.2,0.5,0.5c0,0.3-0.2,0.5-0.5,0.5c-11,0-21.6,3.9-29.9,11.1C1300.4,2443.3,1300.3,2443.3,1300.1,2443.3z"/>
		</g>
		<g>
			<path fill="#BDD0FB" d="M1283.9,2478.6c-0.3,0-0.5-0.2-0.5-0.5c0-8.8,2.4-17.3,7-24.7c0.1-0.2,0.5-0.3,0.7-0.2
				c0.2,0.1,0.3,0.5,0.2,0.7c-4.5,7.2-6.9,15.6-6.9,24.2C1284.5,2478.3,1284.2,2478.6,1283.9,2478.6z"/>
		</g>
	</g>
	<g>
		<g>
			<g>
				<circle fill="#91B3FA" cx="1998" cy="2674" r="52.4"/>
				<path fill="#91B3FA" d="M2050.3,2669.1H1998h-52.4c0,0-4.2,30.1,42.6,109.7c2,3.5,5.8,6,9.8,6.1c4,0,7.8-2.8,9.8-6.3
					C2054.5,2699,2050.3,2669.1,2050.3,2669.1z"/>
			</g>
			<g>
				<path fill="#BDD0FB" d="M1999.3,2787.1v0.2h-1.3c-4.6,0-8.8-2.5-11.1-6.4c-27.3-46.5-37.3-75.9-40.9-92.4
					c-1-3.8-1.6-7.5-1.8-11.3c-0.3-3.9-0.1-5.5,0-5.7l0.1-0.8c2.1-28.1,25.5-50,53.7-50c28.6,0,52.2,22.2,53.8,50.6
					c0,0.4,0.1,1.3,0.1,2.9l0,0.2c0,5.1-0.7,10.2-2.2,15.1c-3.7,16.4-13.1,45.6-40,91.3C2007.4,2784.7,2003.3,2787.1,1999.3,2787.1z
					 M1947.1,2673.2c0,0,0,2,0.1,3.7l0,0.1c0.2,3.6,0.7,7.1,1.7,10.7l0,0.1c3.5,16.2,13.4,45.3,40.6,91.5c1.7,3,5.6,4.8,9.1,4.8
					l0.6,1.5v-1.5c1,0,6.2-1.9,8-4.9c26.7-45.5,36.8-74.3,39.9-90.6v-0.1c2-4.6,2-9.5,2-14.3l0-0.2v0c0-1.5-0.2-2.3-0.2-2.6
					l-0.1-0.1c-1.5-26.8-23.8-47.7-50.8-47.7c-26.9,0-49.2,21.1-50.8,48.1L1947.1,2673.2L1947.1,2673.2z"/>
			</g>
			<circle opacity="0.8" fill="#FFFFFF" cx="1998.2" cy="2673.8" r="30.2"/>
			<g>
				<linearGradient id="SVGID_7_" gradientUnits="userSpaceOnUse" x1="2003.5527" y1="2661.7524" x2="2098.2778" y2="2449.8945">
					<stop  offset="0" style="stop-color:#4F52FF"/>
					<stop  offset="1" style="stop-color:#4042E2"/>
				</linearGradient>
				<path fill="url(#SVGID_7_)" d="M1998.2,2705.7c-17.6,0-31.9-14.3-31.9-31.9c0-17.6,14.3-31.9,31.9-31.9s31.9,14.3,31.9,31.9
					C2030.1,2691.4,2015.8,2705.7,1998.2,2705.7z M1998.2,2645.2c-15.7,0-28.5,12.8-28.5,28.5s12.8,28.5,28.5,28.5
					s28.5-12.8,28.5-28.5S2013.9,2645.2,1998.2,2645.2z"/>
			</g>
		</g>
		<g>
			<path fill="#BDD0FB" d="M1969.5,2642.3c-0.1,0-0.3-0.1-0.4-0.2c-0.2-0.2-0.2-0.5,0.1-0.7c8.5-7.3,19.3-11.3,30.6-11.3
				c0.3,0,0.5,0.2,0.5,0.5c0,0.3-0.2,0.5-0.5,0.5c-11,0-21.6,3.9-29.9,11.1C1969.7,2642.3,1969.6,2642.3,1969.5,2642.3z"/>
		</g>
		<g>
			<path fill="#BDD0FB" d="M1953.3,2677.5c-0.3,0-0.5-0.2-0.5-0.5c0-8.8,2.4-17.3,7-24.7c0.1-0.2,0.5-0.3,0.7-0.2
				c0.2,0.1,0.3,0.5,0.2,0.7c-4.5,7.2-6.9,15.6-6.9,24.2C1953.8,2677.3,1953.6,2677.5,1953.3,2677.5z"/>
		</g>
	</g>
	<g>
		<g>
			<g>
				<circle fill="#91B3FA" cx="1877.7" cy="1894.4" r="52.4"/>
				<path fill="#91B3FA" d="M1930,1889.6h-52.3h-52.4c0,0-4.2,30.1,42.6,109.7c2,3.5,5.8,6,9.8,6.1c4,0,7.8-2.8,9.8-6.3
					C1934.2,1919.5,1930,1889.6,1930,1889.6z"/>
			</g>
			<g>
				<path fill="#BDD0FB" d="M1879,2007.5v0.2h-1.3c-4.6,0-8.8-2.5-11.1-6.4c-27.3-46.5-37.3-75.9-40.9-92.4c-1-3.8-1.6-7.5-1.8-11.3
					c-0.3-3.9-0.1-5.5,0-5.7l0.1-0.8c2.1-28.1,25.5-50,53.7-50c28.6,0,52.2,22.2,53.8,50.6c0,0.4,0.1,1.3,0.1,2.9l0,0.2
					c0,5.1-0.7,10.2-2.2,15.1c-3.7,16.4-13.1,45.6-40,91.3C1887.1,2005.2,1883,2007.5,1879,2007.5z M1826.8,1893.7c0,0,0,2,0.1,3.7
					l0,0.1c0.2,3.6,0.7,7.1,1.7,10.7l0,0.1c3.5,16.2,13.4,45.3,40.6,91.5c1.7,3,5.6,4.8,9.1,4.8l0.6,1.5v-1.5c1,0,6.2-1.9,8-4.9
					c26.7-45.5,36.8-74.3,39.9-90.6v-0.1c2-4.6,2-9.5,2-14.3l0-0.2v0c0-1.5-0.2-2.3-0.2-2.6l-0.1-0.1c-1.5-26.8-23.8-47.7-50.8-47.7
					c-26.9,0-49.2,21.1-50.8,48.1L1826.8,1893.7L1826.8,1893.7z"/>
			</g>
			<circle opacity="0.8" fill="#FFFFFF" cx="1877.9" cy="1894.3" r="30.2"/>
			<g>
				<linearGradient id="SVGID_8_" gradientUnits="userSpaceOnUse" x1="1883.2422" y1="1882.2181" x2="1977.9673" y2="1670.3602">
					<stop  offset="0" style="stop-color:#4F52FF"/>
					<stop  offset="1" style="stop-color:#4042E2"/>
				</linearGradient>
				<path fill="url(#SVGID_8_)" d="M1877.9,1926.2c-17.6,0-31.9-14.3-31.9-31.9c0-17.6,14.3-31.9,31.9-31.9
					c17.6,0,31.9,14.3,31.9,31.9C1909.8,1911.9,1895.5,1926.2,1877.9,1926.2z M1877.9,1865.7c-15.7,0-28.5,12.8-28.5,28.5
					c0,15.7,12.8,28.5,28.5,28.5s28.5-12.8,28.5-28.5C1906.4,1878.5,1893.6,1865.7,1877.9,1865.7z"/>
			</g>
		</g>
		<g>
			<path fill="#BDD0FB" d="M1849.2,1862.8c-0.1,0-0.3-0.1-0.4-0.2c-0.2-0.2-0.2-0.5,0.1-0.7c8.5-7.3,19.3-11.3,30.6-11.3
				c0.3,0,0.5,0.2,0.5,0.5c0,0.3-0.2,0.5-0.5,0.5c-11,0-21.6,3.9-29.9,11.1C1849.4,1862.7,1849.3,1862.8,1849.2,1862.8z"/>
		</g>
		<g>
			<path fill="#BDD0FB" d="M1833,1898c-0.3,0-0.5-0.2-0.5-0.5c0-8.8,2.4-17.3,7-24.7c0.1-0.2,0.5-0.3,0.7-0.2
				c0.2,0.1,0.3,0.5,0.2,0.7c-4.5,7.2-6.9,15.6-6.9,24.2C1833.5,1897.8,1833.3,1898,1833,1898z"/>
		</g>
	</g>
	<g>
		<path fill="#174884" d="M1453,1767.7c40.7,227.1,180,1010.8,216.4,1290.5c3.9,29.6-12.6,56.5-37.7,61.4
			c-124,24.4-579.5,108.5-785.1,130.6c-42.8,4.6-83-30.4-91.7-80c-41.9-238.5-157.1-909.9-183.4-1221.6c-3.1-37.3,17-70.7,47.9-79.3
			c133.4-37.3,586.6-148.4,765-162.8C1416.7,1704.1,1446.4,1730.6,1453,1767.7z"/>
		<path fill="#FCA17D" d="M1408.4,1846.4c35.7,182.9,153.1,791.5,182,1018.8c4.2,33.2-13.9,63.5-41.8,69.9
			c-115,26.3-509,106.2-682,117.1c-31.2,2-59.8-23.3-67.2-59c-38.2-186.3-152.6-752.2-181.4-977c-4.6-35.9,14.5-68.7,44.4-76.7
			c123.7-33,540.3-130.8,686.7-144.3C1376.5,1792.6,1402.2,1814.8,1408.4,1846.4z"/>
		<path fill="#FFC1AB" d="M1372.8,1909.9c32.5,167.8,139.6,726.1,166.3,934.6c3.9,30.5-12,58.1-36.7,63.8
			c-101.8,23.5-450.6,94.9-603.9,104c-27.6,1.6-53.1-21.7-59.8-54.4c-34.7-170.9-138.9-690.1-165.5-896.2
			c-4.2-32.9,12.5-62.9,38.9-70.1c109.5-29.6,478.2-117.2,607.9-128.9C1344.3,1860.5,1367.2,1880.9,1372.8,1909.9z"/>
		<path fill="#91B3FA" d="M1070,1798.5L1070,1798.5c1.1,7-2.7,13.5-8.6,14.8c-29.2,6.4-111.4,24.6-148.1,33
			c-7.2,1.6-14.2-5.1-14.1-13.8l0-1.5c0-5.9,3.4-10.9,8.3-12.2c24.7-6.6,99.2-26,149.6-31.8
			C1063.3,1786.4,1068.9,1791.5,1070,1798.5z"/>
		<g>
			
				<linearGradient id="SVGID_9_" gradientUnits="userSpaceOnUse" x1="1114.5586" y1="1861.7933" x2="685.5676" y2="2317.9597" gradientTransform="matrix(0.9842 -0.1773 0.1773 0.9842 -395.3147 236.8379)">
				<stop  offset="0" style="stop-color:#E1473D"/>
				<stop  offset="1" style="stop-color:#E9605A"/>
			</linearGradient>
			<path fill="url(#SVGID_9_)" d="M1035,2220c2.5,13.7-7.9,27.1-23.1,29.9l-235.7,42.5c-15.2,2.7-29.6-6.2-32.1-19.9l-44-244.5
				c-2.5-13.7,7.9-27.1,23.1-29.9l235.7-42.5c15.2-2.7,29.6,6.2,32.1,19.9L1035,2220z"/>
		</g>
		<g>
			
				<linearGradient id="SVGID_10_" gradientUnits="userSpaceOnUse" x1="1469.6375" y1="1861.7933" x2="1040.6465" y2="2317.9597" gradientTransform="matrix(0.9842 -0.1773 0.1773 0.9842 -395.3147 236.8379)">
				<stop  offset="0" style="stop-color:#E1473D"/>
				<stop  offset="1" style="stop-color:#E9605A"/>
			</linearGradient>
			<path fill="url(#SVGID_10_)" d="M1384.5,2157c2.5,13.7-7.9,27.1-23.1,29.9l-235.7,42.5c-15.2,2.7-29.6-6.2-32.1-19.9l-44-244.5
				c-2.5-13.7,7.9-27.1,23.1-29.9l235.7-42.5c15.2-2.7,29.6,6.2,32.1,19.9L1384.5,2157z"/>
		</g>
		<g>
			
				<linearGradient id="SVGID_11_" gradientUnits="userSpaceOnUse" x1="1114.5586" y1="2214.405" x2="685.5676" y2="2670.5715" gradientTransform="matrix(0.9842 -0.1773 0.1773 0.9842 -395.3147 236.8379)">
				<stop  offset="0" style="stop-color:#E1473D"/>
				<stop  offset="1" style="stop-color:#E9605A"/>
			</linearGradient>
			<path fill="url(#SVGID_11_)" d="M1097.5,2567c2.5,13.7-7.9,27.1-23.1,29.9l-235.7,42.5c-15.2,2.7-29.6-6.2-32.1-19.9l-44-244.5
				c-2.5-13.7,7.9-27.1,23.1-29.9l235.7-42.5c15.2-2.7,29.6,6.2,32.1,19.9L1097.5,2567z"/>
		</g>
		<g>
			
				<linearGradient id="SVGID_12_" gradientUnits="userSpaceOnUse" x1="1469.6375" y1="2214.405" x2="1040.6465" y2="2670.5715" gradientTransform="matrix(0.9842 -0.1773 0.1773 0.9842 -395.3147 236.8379)">
				<stop  offset="0" style="stop-color:#E1473D"/>
				<stop  offset="1" style="stop-color:#E9605A"/>
			</linearGradient>
			<path fill="url(#SVGID_12_)" d="M1447,2504.1c2.5,13.7-7.9,27.1-23.1,29.9l-235.7,42.5c-15.2,2.7-29.6-6.2-32.1-19.9l-44-244.5
				c-2.5-13.7,7.9-27.1,23.1-29.9l235.7-42.5c15.2-2.7,29.6,6.2,32.1,19.9L1447,2504.1z"/>
		</g>
		<g>
			
				<linearGradient id="SVGID_13_" gradientUnits="userSpaceOnUse" x1="1114.5586" y1="2567.0168" x2="685.5676" y2="3023.1833" gradientTransform="matrix(0.9842 -0.1773 0.1773 0.9842 -395.3147 236.8379)">
				<stop  offset="0" style="stop-color:#E1473D"/>
				<stop  offset="1" style="stop-color:#E9605A"/>
			</linearGradient>
			<path fill="url(#SVGID_13_)" d="M1160,2914c2.5,13.7-7.9,27.1-23.1,29.9l-235.7,42.5c-15.2,2.7-29.6-6.2-32.1-19.9l-44-244.5
				c-2.5-13.7,7.9-27.1,23.1-29.9l235.7-42.5c15.2-2.7,29.6,6.2,32.1,19.9L1160,2914z"/>
		</g>
		<g>
			
				<linearGradient id="SVGID_14_" gradientUnits="userSpaceOnUse" x1="1469.6375" y1="2567.0168" x2="1040.6465" y2="3023.1833" gradientTransform="matrix(0.9842 -0.1773 0.1773 0.9842 -395.3147 236.8379)">
				<stop  offset="0" style="stop-color:#E1473D"/>
				<stop  offset="1" style="stop-color:#E9605A"/>
			</linearGradient>
			<path fill="url(#SVGID_14_)" d="M1509.5,2851.1c2.5,13.7-7.9,27.1-23.1,29.9l-235.7,42.5c-15.2,2.7-29.6-6.2-32.1-19.9l-44-244.5
				c-2.5-13.7,7.9-27.1,23.1-29.9l235.7-42.5c15.2-2.7,29.6,6.2,32.1,19.9L1509.5,2851.1z"/>
		</g>
		<g opacity="0.74">
			<path fill="#FFFFFF" d="M1230.8,2146.4c-46.3,8.3-90.7-22.5-99.1-68.8c-8.3-46.3,22.5-90.7,68.8-99.1
				c46.3-8.3,90.7,22.5,99.1,68.8S1277.1,2138.1,1230.8,2146.4z M1203.1,1992.6c-38.5,6.9-64.2,43.9-57.3,82.5s43.9,64.2,82.5,57.3
				c38.5-6.9,64.2-43.9,57.3-82.5S1241.6,1985.6,1203.1,1992.6z"/>
			<path fill-rule="evenodd" clip-rule="evenodd" fill="#FFFFFF" d="M1195.2,2099.5l-10.9-60.4c-1.2-6.4,5.1-11.7,11.3-9.4l56.3,21
				c6,2.2,7.4,10.1,2.6,14.3l-45.4,39.3C1204.1,2108.7,1196.3,2106,1195.2,2099.5z"/>
		</g>
		<g opacity="0.81">
			<g>
				<path fill="#FFFFFF" d="M1020.8,2522.5l-120.1,21.6c-3.1,0.6-6.3-1.4-7.8-4.2l-55.5-110.5l-37.1,1.7c-4,0.2-7.3-2.9-7.5-6.9
					c-0.2-4,2.9-7.4,6.8-7.5l41.8-2c2.8-0.1,5.5,1.7,6.8,4.2l55.2,109.9l108.9-19.6l0.7-87c0-4,3.2-7.3,7.2-7.2c4,0,7.1,3.2,7.1,7.2
					l-0.7,93C1026.6,2518.5,1024.2,2521.8,1020.8,2522.5z"/>
			</g>
			<g>
				<path fill="#FFFFFF" d="M1020.5,2427.9l-161,29c-3.9,0.7-7.5-1.4-8.2-5.3c-0.7-3.9,2-7.1,5.9-7.8l161-29
					c3.9-0.7,7.5,1.4,8.2,5.3S1024.4,2427.2,1020.5,2427.9z"/>
			</g>
			<g>
				<g>
					<path fill="#FFFFFF" d="M929,2530.9c-3.9,0.7-7.8-1.9-8.5-5.8l-14.8-81.9c-0.7-3.9,2-7.7,5.9-8.4c3.9-0.7,7.8,1.9,8.5,5.8
						l14.8,81.9C935.7,2526.4,932.9,2530.2,929,2530.9z"/>
				</g>
				<g>
					<path fill="#FFFFFF" d="M986.6,2520.5c-3.9,0.7-6.5-2.1-7.2-6l-14.8-81.9c-0.7-3.9,0.7-7.4,4.6-8.1s6.5,2.1,7.2,6l14.8,81.9
						C991.9,2516.3,990.5,2519.8,986.6,2520.5z"/>
				</g>
			</g>
			<g>
				<path fill="#FFFFFF" d="M1020.3,2475.3l-138.4,24.9c-3.9,0.7-7.7-2-8.4-5.9c-0.7-3.9,1.9-7.8,5.8-8.5l138.4-24.9
					c3.9-0.7,7.7,2,8.4,5.9S1024.2,2474.6,1020.3,2475.3z"/>
			</g>
			<g>
				<g>
					<circle fill="#FFFFFF" cx="925" cy="2566.9" r="14.4"/>
				</g>
				<g>
					<circle fill="#FFFFFF" cx="1011.5" cy="2551.3" r="14.4"/>
				</g>
			</g>
		</g>
		<g opacity="0.8">
			<g>
				<path fill="#FFFFFF" d="M974.6,2165.1c2,11.4-5.5,22.2-16.9,24.3l-151.2,27.2c-11.4,2-22.2-5.5-24.3-16.9l-20.2-111.9
					c-2-11.4,5.5-22.2,16.9-24.3l151.2-27.2c11.4-2,22.2,5.5,24.3,16.9L974.6,2165.1z M941.3,2055c-0.7-3.9-4.4-6.4-8.3-5.8
					l-152.1,27.4c-3.9,0.7-6.5,4.4-5.8,8.3l20.1,111.6c0.7,3.9,4.4,6.4,8.3,5.8l152.1-27.4c3.9-0.7,6.5-4.4,5.8-8.3L941.3,2055z"/>
			</g>
			<g>
				<path fill="#FFFFFF" d="M867.5,2127.9c-1.4,0.2-2.8,0.1-4.1-0.5l-95.7-44.9c-3.4-1.6-4.9-5.7-3.3-9.2c1.6-3.4,5.7-4.9,9.2-3.3
					l91.3,42.8l69.6-71.1c2.7-2.7,7-2.8,9.7-0.1c2.7,2.7,2.8,7,0.1,9.7l-73.1,74.6C870.2,2126.9,868.9,2127.6,867.5,2127.9z"/>
			</g>
			<g>
				<path fill="#FFFFFF" d="M796.1,2211.7l-4.4-13l2.1,6.5l-6.3-2.7c1.1-2.8,22.1-61.8,35.9-100.8c1.3-3.6,5.2-5.5,8.8-4.2
					c3.6,1.3,5.5,5.2,4.2,8.8c0,0-9,25.3-17.9,50.6c-4.5,12.6-9,25.3-12.4,34.8C799.3,2210.6,799.3,2210.6,796.1,2211.7z"/>
			</g>
			<g>
				<path fill="#FFFFFF" d="M963.2,2181.6c-3.4,0.1-3.4,0.1-16.3-15.3c-6.5-7.7-15.1-18-23.7-28.3c-17.2-20.6-34.5-41.1-34.5-41.1
					c-2.4-2.9-2.1-7.3,0.9-9.7c2.9-2.4,7.3-2.1,9.7,0.9c26.6,31.7,66.8,79.7,68.8,82l-5,4.7L963.2,2181.6z"/>
			</g>
		</g>
		<g opacity="0.82">
			<g>
				<path fill="#FFFFFF" d="M1392.9,2447.7c2.8,15.7-7.6,30.7-23.3,33.6l-144.6,26c-15.7,2.8-30.7-7.6-33.6-23.3l-17.3-96.2
					c-2.8-15.7,7.6-30.7,23.3-33.6l144.6-26c15.7-2.8,30.7,7.6,33.6,23.3L1392.9,2447.7z M1365.2,2353.8c-1.6-8.7-9.9-14.5-18.7-13
					l-143.7,25.9c-8.7,1.6-14.5,9.9-13,18.7l16.9,94c1.6,8.7,9.9,14.5,18.7,13l143.7-25.9c8.7-1.6,14.5-9.9,13-18.7L1365.2,2353.8z"
					/>
			</g>
			<g>
				<path fill="#FFFFFF" d="M1340,2326.5c1,5.4-2.6,10.7-8.1,11.6l-23.5,4.2c-5.4,1-10.7-2.6-11.6-8.1l-0.2-1.2
					c-1-5.4,2.6-10.7,8.1-11.6l23.5-4.2c5.4-1,10.7,2.6,11.6,8.1L1340,2326.5z"/>
			</g>
			<g>
				<path fill="#FFFFFF" d="M1340.2,2372.3c0.7,4-2,7.9-6,8.6l-26,4.7c-4,0.7-7.9-2-8.6-6l-0.2-1.1c-0.7-4,2-7.9,6-8.6l26-4.7
					c4-0.7,7.9,2,8.6,6L1340.2,2372.3z"/>
			</g>
			<g>
				<path fill="#FFFFFF" d="M1307.7,2417.1c4.3,23.7-11.5,46.3-35.1,50.6l-3.3,0.6c-23.7,4.3-46.3-11.5-50.6-35.1l-0.6-3.3
					c-4.3-23.7,11.5-46.3,35.1-50.6l3.3-0.6c23.7-4.3,46.3,11.5,50.6,35.1L1307.7,2417.1z M1293.7,2414c-3-16.7-19-27.8-35.7-24.8
					l-3.7,0.7c-16.7,3-27.8,19-24.8,35.7l0.7,3.7c3,16.7,19,27.8,35.7,24.8l3.7-0.7c16.7-3,27.8-19,24.8-35.7L1293.7,2414z"/>
			</g>
		</g>
		<g opacity="0.74">
			<path fill="#FFFFFF" d="M1002.6,2904.7c-1.5,0.3-3,0.5-4.5,0.7c-51.5,6.9-98.6-26.5-105.2-74.6c-3.2-23.4,3.6-46.7,19.1-65.6
				c15.4-18.8,37.6-30.9,62.4-34.3c51.5-6.9,98.6,26.5,105.2,74.6l0,0c3.2,23.4-3.6,46.7-19.1,65.6
				C1046.1,2888.8,1025.6,2900.6,1002.6,2904.7z M972.3,2743.9c-20.1,3.6-38,13.9-50.5,29.2c-13.3,16.2-19.1,36.1-16.4,56
				c5.6,41.3,46.5,70,91.2,64c21.7-3,41.1-13.5,54.5-29.9c13.3-16.2,19.1-36.1,16.4-56c-5.6-41.3-46.5-70-91.2-64
				C974.9,2743.4,973.6,2743.6,972.3,2743.9z"/>
			<g>
				<g>
					<path fill="#FFFFFF" d="M1008.5,2814.6c2.5,14.2,4.1,28.6,4.2,43.1c0,3.6-0.1,7.2-0.4,10.8c-0.3,3.6-0.6,7.2-1.3,10.8
						c-0.6,3.6-1.5,7.1-2.9,10.5c-0.7,1.7-1.6,3.3-2.8,4.7c-0.6,0.7-1.3,1.4-2,1.9c-0.8,0.5-1.6,0.9-2.6,1.1c-0.9,0.2-1.9,0.2-2.8,0
						c-0.9-0.2-1.8-0.5-2.6-1c-1.6-0.9-3-2.1-4.3-3.4c-2.5-2.6-4.6-5.6-6.4-8.7c-1.9-3.1-3.5-6.3-5-9.6c-1.5-3.3-2.9-6.6-4.1-10
						c-2.5-6.8-4.7-13.7-6.5-20.6c-1.9-7-3.4-14-4.7-21.1c-0.7-3.5-1.2-7.1-1.7-10.7c-0.5-3.6-1-7.2-1.3-10.7
						c-0.8-7.2-1.2-14.4-1.3-21.6c0-3.6,0-7.2,0.2-10.8c0.2-3.6,0.5-7.2,1.1-10.8c0.3-1.8,0.6-3.6,1.1-5.3c0.4-1.8,1-3.5,1.7-5.2
						c0.7-1.7,1.6-3.3,2.8-4.7c0.6-0.7,1.3-1.3,2.1-1.8c0.8-0.5,1.7-0.8,2.6-1c0.9-0.1,1.8-0.1,2.7,0.1c0.9,0.2,1.7,0.6,2.5,1
						c1.6,0.9,3,2.1,4.3,3.3c2.6,2.6,4.7,5.5,6.6,8.6c1.9,3.1,3.6,6.3,5.2,9.5c1.6,3.3,3,6.6,4.3,9.9
						C1002.3,2786.4,1005.9,2800.4,1008.5,2814.6z M1007.5,2814.8c-1.3-7.1-2.8-14.1-4.7-21.1c-1.8-6.9-4-13.8-6.5-20.5
						c-1.3-3.4-2.7-6.7-4.2-9.9c-1.5-3.3-3.2-6.4-5-9.5c-1.9-3.1-3.9-6-6.4-8.6c-1.3-1.3-2.6-2.4-4.2-3.3c-0.8-0.4-1.6-0.8-2.4-1
						c-0.9-0.2-1.7-0.3-2.6-0.2c-0.9,0.1-1.7,0.5-2.4,0.9c-0.7,0.5-1.4,1.1-2,1.8c-1.1,1.4-2,3-2.6,4.6c-0.7,1.7-1.2,3.4-1.6,5.1
						c-0.4,1.7-0.8,3.5-1,5.3c-0.5,3.5-0.8,7.1-1,10.7c-0.2,3.6-0.2,7.2-0.1,10.8c0.2,7.2,0.7,14.4,1.6,21.5
						c0.8,7.1,1.9,14.3,3.2,21.3c1.3,7.1,2.8,14.1,4.6,21.1c1.8,7,3.9,13.9,6.3,20.6c1.2,3.4,2.6,6.7,4,10c1.5,3.3,3.1,6.5,4.9,9.6
						c1.8,3.1,3.8,6.1,6.3,8.7c1.2,1.3,2.6,2.5,4.1,3.3c0.8,0.4,1.6,0.8,2.4,0.9c0.8,0.2,1.7,0.2,2.6,0c0.8-0.2,1.6-0.5,2.3-1
						c0.7-0.5,1.3-1.1,1.9-1.8c1.1-1.4,1.9-3,2.6-4.6c1.4-3.3,2.2-6.8,2.8-10.3c0.6-3.5,1-7.1,1.2-10.7c0.2-3.6,0.3-7.2,0.3-10.8
						c-0.1-7.2-0.5-14.4-1.3-21.5C1009.8,2829,1008.8,2821.9,1007.5,2814.8z"/>
					<path fill="#FFFFFF" d="M1001,2899.6c-1.1,0.2-2.3,0.2-3.4-0.1c-1-0.2-2.1-0.6-3.2-1.2c-1.6-0.9-3.1-2.1-4.8-3.8
						c-2.3-2.4-4.4-5.3-6.8-9.1c-1.7-2.9-3.4-6.1-5.1-9.8c-1.4-3.2-2.8-6.5-4.2-10.2c-2.4-6.5-4.6-13.3-6.6-20.8
						c-1.8-6.9-3.4-14-4.8-21.3c-0.7-3.8-1.3-7.6-1.7-10.8c-0.5-3.6-1-7.3-1.3-10.8c-0.8-7.8-1.3-14.9-1.4-21.8
						c-0.1-3.9,0-7.5,0.2-11c0.2-4.1,0.6-7.7,1.1-11c0.3-2,0.7-3.8,1.1-5.5c0.5-2,1.1-3.8,1.8-5.5c0.9-2.2,1.9-3.8,3.1-5.2
						c0.8-0.9,1.7-1.7,2.5-2.2c1-0.6,2.2-1.1,3.4-1.2c1.1-0.2,2.3-0.1,3.5,0.2c1,0.2,2,0.6,3.1,1.2c1.6,0.9,3.1,2.1,4.8,3.7
						c2.3,2.3,4.5,5.2,6.9,9c1.8,2.9,3.5,6.1,5.3,9.7c1.5,3.2,2.9,6.5,4.4,10.1c5,12.8,8.8,26.6,11.6,42.1l0,0
						c2.8,15.6,4.2,29.9,4.2,43.4c0,3.9-0.1,7.5-0.4,11c-0.3,4-0.7,7.6-1.3,11c-0.8,4.4-1.8,7.9-3.1,10.9c-0.9,2.2-1.9,3.8-3.1,5.2
						c-0.8,0.9-1.6,1.7-2.4,2.3c-1.1,0.7-2.2,1.2-3.3,1.4C1001.1,2899.5,1001,2899.5,1001,2899.6z M971.6,2742.8
						c-0.5,0.1-1,0.3-1.5,0.6c-0.5,0.3-1,0.8-1.5,1.3c-0.9,1-1.6,2.3-2.3,4c-0.6,1.4-1.1,3-1.5,4.8c-0.4,1.5-0.7,3.2-1,5.1
						c-0.5,3.2-0.8,6.6-1,10.5c-0.1,3.4-0.2,6.8-0.1,10.6c0.2,6.7,0.7,13.7,1.6,21.3c0.7,6.5,1.8,13.4,3.2,21.2
						c1.3,7.2,2.8,14.2,4.5,20.9c1.9,7.4,4,14.1,6.3,20.4c1.3,3.5,2.6,6.8,4,9.9c1.6,3.5,3.1,6.6,4.8,9.4c2.1,3.5,4,6.2,6,8.3
						c1.3,1.3,2.4,2.3,3.6,2.9c0.6,0.4,1.3,0.6,1.8,0.7c0.6,0.1,1.2,0.1,1.7,0c0.5-0.1,1.1-0.3,1.6-0.7c0.5-0.3,1-0.8,1.5-1.4
						c0.9-1.1,1.6-2.3,2.3-4.1c1.1-2.7,2-5.8,2.7-9.9c0.5-3.2,0.9-6.6,1.2-10.5c0.2-3.3,0.3-6.8,0.3-10.6c0-6.7-0.5-13.7-1.3-21.3
						c-0.7-6.9-1.7-14-3-21.2l0,0c-1.3-7.1-2.8-14.2-4.6-20.9c-2-7.4-4.1-14-6.5-20.3c-1.3-3.5-2.7-6.7-4.1-9.8
						c-1.6-3.5-3.2-6.5-4.9-9.3c-2.1-3.5-4.1-6.1-6.1-8.2c-1.3-1.3-2.5-2.3-3.7-3c-0.7-0.4-1.3-0.6-1.9-0.8
						c-0.6-0.2-1.2-0.2-1.8-0.1C971.7,2742.8,971.7,2742.8,971.6,2742.8z"/>
				</g>
				<g>
					<path fill="#FFFFFF" d="M1044.2,2808.2c1.6,9.2,2.1,18.5,1.2,27.8c-0.9,9.2-3.1,18.4-6.8,26.9c-1.9,4.3-4.1,8.3-6.7,12.2
						c-2.6,3.8-5.7,7.4-9.1,10.5c-3.4,3.1-7.2,5.8-11.4,7.9c-4.1,2.1-8.6,3.6-13.1,4.4c-4.6,0.8-9.2,1-13.8,0.4
						c-4.6-0.5-9.1-1.7-13.4-3.4c-4.3-1.7-8.4-4-12.2-6.7c-3.8-2.7-7.3-5.7-10.6-9.1c-6.5-6.7-11.7-14.5-15.8-22.8
						c-2-4.2-3.7-8.5-5.2-13c-1.4-4.4-2.5-9-3.4-13.5c-0.8-4.6-1.3-9.2-1.5-13.9c-0.2-4.6-0.1-9.3,0.3-13.9
						c0.9-9.3,3.1-18.4,6.9-26.9c1.9-4.3,4.1-8.3,6.7-12.2c2.6-3.8,5.7-7.4,9.1-10.5c3.4-3.1,7.3-5.8,11.4-7.9
						c4.1-2.1,8.5-3.6,13.1-4.4c4.6-0.8,9.2-0.9,13.8-0.4c4.6,0.5,9.1,1.7,13.4,3.4c4.3,1.7,8.4,4,12.2,6.7c3.8,2.7,7.3,5.7,10.5,9
						c6.5,6.7,11.7,14.5,15.8,22.8C1039.7,2790.1,1042.5,2799,1044.2,2808.2z M1043,2808.4c-1.6-9-4.4-17.9-8.3-26.2
						c-4-8.3-9.1-16.1-15.4-22.7c-3.2-3.3-6.6-6.4-10.3-9.1c-3.7-2.7-7.7-5-12-6.7c-4.2-1.7-8.7-2.9-13.3-3.5
						c-4.6-0.5-9.2-0.4-13.7,0.4c-4.5,0.8-8.9,2.3-13,4.4c-4.1,2.1-7.8,4.8-11.2,7.9c-3.4,3.1-6.3,6.7-8.9,10.5
						c-2.6,3.8-4.7,7.9-6.5,12.1c-3.6,8.5-5.7,17.5-6.5,26.7c-0.4,4.6-0.5,9.2-0.2,13.8c0.2,4.6,0.8,9.2,1.6,13.7
						c0.8,4.5,1.9,9,3.3,13.4c1.4,4.4,3.1,8.7,5,12.8c4,8.3,9.1,16,15.4,22.7c3.2,3.3,6.6,6.4,10.3,9.1c3.7,2.7,7.7,5,12,6.7
						c4.2,1.7,8.7,2.9,13.2,3.5c4.5,0.5,9.2,0.4,13.7-0.4c4.5-0.8,8.9-2.3,12.9-4.4c4.1-2.1,7.8-4.8,11.2-7.9
						c3.4-3.1,6.3-6.7,8.9-10.5c2.6-3.8,4.7-7.9,6.5-12.1c3.6-8.5,5.7-17.5,6.5-26.7C1045.1,2826.7,1044.6,2817.4,1043,2808.4z"/>
					<path fill="#FFFFFF" d="M998.7,2900c-4.7,0.9-9.6,1-14.5,0.4c-4.7-0.5-9.4-1.7-14-3.6c-4.3-1.8-8.6-4.1-12.6-6.9
						c-3.8-2.7-7.5-5.8-10.9-9.3c-6.4-6.6-11.9-14.5-16.2-23.4c-2-4.2-3.8-8.7-5.3-13.2c-1.4-4.4-2.6-9.1-3.5-13.8
						c-0.8-4.7-1.4-9.5-1.6-14.1c-0.2-4.8-0.1-9.6,0.3-14.2c1-9.8,3.3-19.1,7-27.6c2-4.5,4.3-8.7,6.9-12.5c2.8-4.1,6-7.7,9.4-10.8
						c3.6-3.3,7.6-6.1,11.8-8.2c4.3-2.2,8.9-3.8,13.7-4.6c4.7-0.8,9.6-1,14.4-0.4c4.7,0.5,9.4,1.7,13.9,3.6
						c4.3,1.7,8.6,4.1,12.6,6.9c3.8,2.7,7.5,5.8,10.8,9.3c6.4,6.6,11.8,14.5,16.2,23.4c4,8.3,7,17.4,8.7,27l0,0
						c1.7,9.6,2.1,19.1,1.2,28.3c-1,9.8-3.3,19.1-7,27.6c-2,4.5-4.3,8.7-6.9,12.5c-2.8,4.1-5.9,7.7-9.4,10.9
						c-3.6,3.3-7.6,6.1-11.8,8.2C1008.1,2897.5,1003.5,2899.1,998.7,2900z M970.4,2742.7c-4.3,0.8-8.4,2.2-12.4,4.2
						c-3.8,2-7.4,4.5-10.7,7.6c-3.1,2.9-6,6.3-8.6,10.1c-2.4,3.6-4.5,7.5-6.3,11.7c-3.4,7.9-5.5,16.7-6.3,26
						c-0.4,4.3-0.5,8.8-0.2,13.5c0.2,4.4,0.7,8.9,1.5,13.4c0.8,4.5,1.9,8.9,3.3,13.1c1.4,4.4,3.1,8.6,4.9,12.5
						c4,8.4,9.1,15.9,15,22.2c3.1,3.3,6.5,6.3,10,8.8c3.8,2.7,7.7,4.9,11.5,6.5c4.2,1.7,8.4,2.8,12.7,3.3c4.4,0.5,8.8,0.4,13.1-0.3
						c4.3-0.8,8.4-2.2,12.3-4.2c3.8-2,7.4-4.5,10.8-7.5c3.1-2.8,6-6.2,8.6-10.1c2.4-3.6,4.6-7.5,6.3-11.7c3.4-7.9,5.5-16.7,6.4-26
						c0.8-8.7,0.3-17.8-1.3-26.9c-1.7-9.1-4.4-17.7-8.2-25.7c-4-8.5-9.1-15.9-15-22.2c-3.1-3.3-6.5-6.3-10-8.8
						c-3.8-2.7-7.7-4.9-11.6-6.5c-4.2-1.7-8.5-2.8-12.7-3.3C979.1,2741.8,974.7,2741.9,970.4,2742.7z"/>
				</g>
				<g>
					<path fill="#FFFFFF" d="M908.4,2800.4l18-3.4l18-3.3l36.1-6.6l36.1-6.4l18.1-3.2l18.1-3.1c0,0,0.1,0,0.1,0c0,0,0,0.1,0,0.1
						l-18,3.4l-18,3.3l-36.1,6.6l-36.1,6.4l-18.1,3.2l-18.1,3.1c0,0-0.1,0-0.1,0C908.3,2800.5,908.3,2800.4,908.4,2800.4z"/>
					<polygon fill="#FFFFFF" points="981,2789.9 926.8,2799.5 907.9,2802.8 906.4,2801.8 906.2,2800.8 905.9,2798.8 908,2798.3 
						944,2791.6 980.1,2785 1034.3,2775.5 1054.5,2772 1055.3,2776.2 1053.2,2776.6 1017.1,2783.4 					"/>
				</g>
				<g>
					<path fill="#FFFFFF" d="M923.8,2766.3c4.3-0.8,8.5-1.6,12.8-2.5l12.8-2.4c4.3-0.8,8.5-1.6,12.8-2.4l12.8-2.3l25.6-4.5l12.8-2.2
						c4.3-0.7,8.6-1.5,12.8-2.1c0,0,0.1,0,0.1,0c0,0.1,0,0.1,0,0.1c-4.3,0.8-8.5,1.6-12.8,2.5l-12.8,2.4l-25.6,4.7l-12.8,2.3
						c-4.3,0.8-8.5,1.5-12.8,2.3l-12.8,2.2c-4.3,0.7-8.6,1.5-12.8,2.2C923.8,2766.5,923.8,2766.4,923.8,2766.3
						C923.8,2766.3,923.8,2766.3,923.8,2766.3z"/>
					<path fill="#FFFFFF" d="M975.6,2759.6l-16.2,2.9c-3.2,0.6-6.3,1.1-9.5,1.7l-17.1,3c-2.9,0.5-5.7,1-8.6,1.4l-2,0.3l-0.8-4.2
						l2.1-0.5c2.8-0.5,5.5-1.1,8.3-1.6l17.3-3.3c3-0.6,6-1.1,9-1.7l16.6-3l43.2-7.6c2.7-0.5,5.5-0.9,8.2-1.4l2.1-0.3l0.7,4.2l-2,0.4
						c-2.8,0.6-5.7,1.1-8.5,1.6l-17.1,3.2L975.6,2759.6z"/>
				</g>
				<g>
					<path fill="#FFFFFF" d="M907.6,2831.9l19.6-3.7l19.6-3.6l39.2-7.1l39.2-7l19.6-3.4l19.6-3.4c0,0,0.1,0,0.1,0c0,0,0,0.1,0,0.1
						l-19.6,3.7l-19.6,3.6l-39.2,7.1l-39.2,7l-19.6,3.4l-19.6,3.4C907.6,2832.1,907.5,2832,907.6,2831.9
						C907.5,2831.9,907.5,2831.9,907.6,2831.9z"/>
					<polygon fill="#FFFFFF" points="986.5,2820.3 927.6,2830.7 905.9,2834.5 905.1,2830.3 907.2,2829.8 946.4,2822.5 985.6,2815.4 
						1044.5,2805 1065,2801.4 1066.5,2802.5 1066.9,2805.4 1064.9,2805.8 1025.7,2813.1 					"/>
				</g>
				<g>
					<path fill="#FFFFFF" d="M919.3,2861.1l18-3.4l18-3.3l36.1-6.6l36.1-6.4l18.1-3.2l18.1-3.1c0,0,0.1,0,0.1,0c0,0.1,0,0.1,0,0.1
						l-18,3.4l-18,3.3l-36.1,6.6l-36.1,6.4l-18.1,3.2l-18.1,3.1C919.3,2861.3,919.2,2861.2,919.3,2861.1
						C919.2,2861.2,919.3,2861.1,919.3,2861.1z"/>
					<polygon fill="#FFFFFF" points="992,2850.6 937.8,2860.2 918.8,2863.5 917.3,2862.4 917.2,2861.5 916.9,2859.5 918.9,2859 
						955,2852.3 991.1,2845.7 1045.3,2836.1 1065.4,2832.7 1066.2,2836.9 1064.1,2837.3 1028,2844 					"/>
				</g>
				<g>
					<path fill="#FFFFFF" d="M1050.9,2869.1l-102.5,18.5c-0.2,0-0.3-0.1-0.3-0.2c0-0.2,0.1-0.3,0.2-0.3l102.5-18.5
						c0.2,0,0.3,0.1,0.3,0.2C1051.1,2868.9,1051,2869.1,1050.9,2869.1z"/>
					<path fill="#FFFFFF" d="M1051.2,2871.2l-102.5,18.5c-1.3,0.2-2.5-0.6-2.8-1.9c-0.2-1.3,0.6-2.5,1.9-2.8l102.5-18.5
						c1.3-0.2,2.5,0.6,2.8,1.9S1052.5,2870.9,1051.2,2871.2z"/>
				</g>
			</g>
		</g>
		<g opacity="0.8">
			<g>
				<path fill="#FFFFFF" d="M1292.8,2844.9l-27.5,5c-6,1.1-12.4-2.3-13.5-8.4l-9.5-52.8c-1.1-6.1,3.5-12.2,9.6-13.3l27.5-5
					c6-1.1,10.2,3.3,11.3,9.5l9.5,52.8C1301.3,2839,1298.8,2843.9,1292.8,2844.9z M1289.7,2834.8l1,5.5L1289.7,2834.8L1289.7,2834.8
					L1289.7,2834.8z M1254,2787.1c0,0,0-0.7,0.1-0.6l9.5,52.8c0,0.2,0,0.2,0,0.2l26.7-4.8c0-0.1-0.5,0-0.5-0.1l-9.5-52.8
					c0-0.1,1,0.4,1,0.4L1254,2787.1z"/>
			</g>
			<g>
				<path fill="#FFFFFF" d="M1344,2835.7l-25.8,4.7c-5.9,1.1-13-2.2-14.1-8.3l-14.9-82.9c-1.1-6.1,4.3-12.4,10.1-13.5l25.8-4.7
					c5.8-1,10,3.2,11.1,9.6l14.9,82.9C1352.4,2830,1349.8,2834.7,1344,2835.7z M1316.6,2829.8l24.5-4.4c0,0,0.9-0.2,0.9-0.2
					l-14.9-82.9c0-0.1-1.3-2-1.3-2l-24.5,4.4c0,0-0.3,2.2-0.3,2.2l14.9,82.9C1315.9,2830,1316.6,2829.8,1316.6,2829.8z"/>
			</g>
			<g>
				<path fill="#FFFFFF" d="M1406.3,2814.4c1.1,6.1-3,12-9.1,13.1l-28.8,5.2c-6.1,1.1-12-3-13.1-9.1l-19.8-109.9
					c-1.1-6.1,3-12,9.1-13.1l28.8-5.2c6.1-1.1,12,3,13.1,9.1L1406.3,2814.4z M1375.7,2704.6c0-0.1-0.1-0.2-0.2-0.2l-28.4,5.1
					c-0.1,0-0.2,0.1-0.2,0.2l19.7,109.5c0,0.1,0.1,0.2,0.2,0.2l28.4-5.1c0.1,0,0.2-0.1,0.2-0.2L1375.7,2704.6z"/>
			</g>
			<g>
				<path fill="#FFFFFF" d="M1460.8,2801.9c1.1,6.1-3,12-9.1,13.1l-28.8,5.2c-6.1,1.1-12-3-13.1-9.1l-23.8-132.2
					c-1.1-6.1,3-12,9.1-13.1l28.8-5.2c6.1-1.1,12,3,13.1,9.1L1460.8,2801.9z M1424.9,2670.1c0-0.1-0.1-0.2-0.2-0.2l-28.4,5.1
					c-0.1,0-0.2,0.1-0.2,0.2l23.7,131.8c0,0.1,0.1,0.2,0.2,0.2l28.4-5.1c0.1,0,0.2-0.1,0.2-0.2L1424.9,2670.1z"/>
			</g>
		</g>
	</g>
</g>
</svg>
