<?xml version="1.0" encoding="utf-8"?>
<!-- Generator: Adobe Illustrator 17.1.0, SVG Export Plug-In . SVG Version: 6.00 Build 0)  -->
<!DOCTYPE svg PUBLIC "-//W3C//DTD SVG 1.1//EN" "http://www.w3.org/Graphics/SVG/1.1/DTD/svg11.dtd">
<svg version="1.1" id="Layer_1" xmlns="http://www.w3.org/2000/svg" xmlns:xlink="http://www.w3.org/1999/xlink" x="0px" y="0px"
	 viewBox="0 0 200 200" enable-background="new 0 0 200 200" xml:space="preserve">
<g>
	<path fill="#2B5EAC" d="M166.2,67.1L155.5,4.3L107,38.7H96L45.7,4.3L35.7,67.3l-25.4,50l70.2,78.4h40.6l70.2-79.1L166.2,67.1z
		 M146.9,26.1l6.7,40.8l-24-10.5L146.9,26.1z M55,26.1l17.3,30.4l-24,10.4L55,26.1z M144.7,126.5l-4.9,28.3l-23.9,26.9l-11.4,3.2
		l0.2-4l13.8-13.6l-10-4.2H93l-10,4.2l13.9,13.6l0.1,4l-11.4-3.2l-23.9-26.9l-4.9-28.3l-10.6,11.8l-20.5-23.1l4.7-12.1l34.9-21.6
		l29.5,26.9l5.9,13.3l5.9-13.3l29.5-26.9l34.9,21.6l4.7,12.1l-20.5,23.1L144.7,126.5z"/>
	<polygon fill="#2B5EAC" points="83.3,124.3 67.3,119.4 61.3,105.3 76.1,110.4 	"/>
	<polygon fill="#2B5EAC" points="140.4,105.3 134.4,119.4 118.4,124.3 125.6,110.4 	"/>
</g>
</svg>
