<?xml version="1.0" encoding="utf-8"?>
<!-- Generator: Adobe Illustrator 17.1.0, SVG Export Plug-In . SVG Version: 6.00 Build 0)  -->
<!DOCTYPE svg PUBLIC "-//W3C//DTD SVG 1.1//EN" "http://www.w3.org/Graphics/SVG/1.1/DTD/svg11.dtd">
<svg version="1.1" xmlns="http://www.w3.org/2000/svg" xmlns:xlink="http://www.w3.org/1999/xlink" x="0px" y="0px"
	 viewBox="0 0 3710 3710" enable-background="new 0 0 3710 3710" xml:space="preserve">
<g id="Background">
</g>
<g id="Illustration">
	<linearGradient id="SVGID_1_" gradientUnits="userSpaceOnUse" x1="3475.262" y1="3648.4373" x2="1533.4562" y2="1581.3542">
		<stop  offset="0" style="stop-color:#DAE3FE"/>
		<stop  offset="1" style="stop-color:#E9EFFD"/>
	</linearGradient>
	<path fill="url(#SVGID_1_)" d="M2901.4,2811c-72.3,73.3-137,116.4-186.6,148.9c-483.2,317.3-1035.6,225.8-1206.4,194.6
		c-275.5-50.4-508.1-86-708-263.5c-454.1-403.4-432-1245-85-1766.3c41.1-61.8,387.6-566.8,941.2-638c13.5-1.7,23.6-2.7,32.5-3.7
		c85.6-8.9,616.3-56,1049,300.5c61.9,51,161.6,143.1,254.1,283.5C3330.2,1580.3,3331.3,2375.3,2901.4,2811z"/>
	<g>
		<path fill="#BDD0FB" d="M3235.8,470.5c2.9-12.4-14.5-20.6-25.1-12c-108.2,87.7-368.2,350.5-303.4,809.6
			c81.3,576.1-57.7,786.3-230.7,914.5c0,0,237.6-60.3,387-273.6C3430.6,1385.4,3184.1,690.5,3235.8,470.5z"/>
		<path fill="#FFFFFF" d="M3153.4,650.4c-13.5,64.1-25.6,128.5-34.9,193.1c-9.7,64.6-17.2,129.3-22.3,194.2
			c-4.8,64.9-8.2,129.9-8.4,194.9c-0.5,65,2.2,129.9,5.1,195.1c2.6,65.2,5.6,130.8,0.8,196.9c-4.7,66-18.6,132.5-46.1,194.9
			c-6.9,15.5-14.1,31-22.4,46c-7.9,15.1-16.6,29.9-25.6,44.6c-18.2,29.3-38.6,57.6-61.4,84.4c-45.7,53.6-100.9,101.2-161.6,141.4
			c-6.4,4.2-15.6,3.2-20.5-2.3c-4.8-5.4-3.7-13.1,2.4-17.4l0,0c14.5-10.2,28.8-20.4,42.5-31.2c7-5.3,13.6-10.9,20.4-16.3
			c6.5-5.7,13.3-11.1,19.7-16.9c25.8-23,49.7-47.5,71.4-73.3c43.6-51.6,78.5-109,105-168.6c12.8-29.9,23.1-60.6,30.6-91.9
			c7.5-31.3,12.2-63.1,14.8-95.1c5.2-64.2,2.9-129.2,0.8-194.3c-1.9-65.2-3.3-130.7-1.6-196.2c0.8-32.7,2.2-65.5,4.3-98.1
			c0.9-16.3,2.3-32.7,3.5-49c1.5-16.3,3-32.6,4.8-48.9c7-65.2,16.3-130.1,28-194.7c12-64.6,26.1-128.8,42.9-192.5
			c0.5-1.8,2.6-3,4.7-2.5C3152.5,647,3153.8,648.7,3153.4,650.4z"/>
	</g>
	<g>
		<g>
			<path fill="#91B3FA" d="M2897.9,2053.5c12.4,20,41.2,20.7,54.9,1.7c75.8-105.2,263.3-421.9,146.7-854.1
				c-98.5-364.9-117.3-572.2-119.2-666.8c-0.4-20-26.2-27.9-37.7-11.5C2815.1,703.2,2448.2,1330.4,2897.9,2053.5z"/>
			<path fill="#FFFFFF" d="M2929.1,2047c0.5,0.2,1.1,0.4,1.7,0.5c5,0.9,9.8-2.4,10.7-7.3c1.1-5.6,103.8-570.6-10.3-1084.2
				c-1.1-4.9-6-8.1-10.9-7c-4.9,1.1-8.1,6-7,10.9c113.2,509.8,11.2,1071.2,10.1,1076.8C2922.6,2041.2,2925.1,2045.5,2929.1,2047z"/>
		</g>
	</g>
	<g>
		<g opacity="0.3">
			<path fill="#91B3FA" d="M1030.9,1031.4c-5-0.7-8.7-5-8.6-10.1c0.3-11.2,1.2-22.5,2.5-33.7c0.6-5.4,5.6-9.3,11-8.7
				c0.1,0,0.1,0,0.2,0c5.3,0.7,9.1,5.6,8.5,11c-1.2,10.6-2,21.4-2.3,32c-0.2,5.5-4.7,9.8-10.2,9.6
				C1031.6,1031.5,1031.3,1031.5,1030.9,1031.4z M1043.1,945.9c-0.4-0.1-0.8-0.1-1.2-0.2c-5.3-1.4-8.5-6.8-7.1-12.1
				c2.8-10.9,6.1-21.8,9.8-32.3c1.8-5.2,7.4-7.9,12.6-6.1c5.2,1.8,7.9,7.5,6.1,12.6c-3.5,10-6.7,20.4-9.3,30.7
				C1052.8,943.5,1048.1,946.6,1043.1,945.9z M1073.9,865.2c-1.1-0.1-2.2-0.5-3.2-1c-4.9-2.5-6.8-8.5-4.3-13.4
				c5.1-10,10.8-19.8,16.8-29.3c2.9-4.6,9-6,13.7-3.1c4.6,2.9,6,9,3.1,13.7c-5.7,9-11.1,18.4-15.9,27.9
				C1082,863.8,1077.9,865.8,1073.9,865.2z M1121.9,793.4c-1.8-0.2-3.6-1-5.1-2.3c-4.2-3.5-4.7-9.8-1.2-14
				c7.3-8.6,15-16.9,22.9-24.9c3.9-3.9,10.2-3.8,14,0c3.9,3.9,3.8,10.2,0,14c-7.6,7.5-14.9,15.5-21.8,23.6
				C1128.5,792.7,1125.1,793.9,1121.9,793.4z M1184.7,734.1c-2.5-0.3-4.9-1.7-6.6-3.9c-3.3-4.4-2.4-10.6,2-13.9
				c9-6.7,18.3-13.2,27.8-19.2c4.6-2.9,10.8-1.5,13.7,3.1c2.9,4.6,1.5,10.8-3.1,13.7c-9.1,5.7-18,11.8-26.5,18.2
				C1189.8,733.8,1187.2,734.5,1184.7,734.1z M1259.1,690.2c-3.3-0.4-6.3-2.5-7.7-5.8c-2.2-5,0-10.9,5-13.1
				c10.2-4.6,20.8-8.8,31.4-12.5c5.2-1.8,10.8,0.9,12.6,6.1c1.8,5.2-0.9,10.8-6.1,12.6c-10.1,3.5-20.1,7.5-29.8,11.9
				C1262.7,690.2,1260.9,690.4,1259.1,690.2z M1622.3,715.5c-1.4-0.2-2.7-0.7-3.9-1.4c-9-5.7-18.4-11-27.9-15.9
				c-4.9-2.5-6.8-8.5-4.3-13.3c2.5-4.9,8.5-6.8,13.3-4.3c10,5.1,19.9,10.8,29.4,16.7c4.6,2.9,6,9,3.1,13.7
				C1629.9,714.4,1626,716,1622.3,715.5z M1341.3,663.9c-4.1-0.6-7.5-3.6-8.4-7.9c-1.1-5.4,2.4-10.6,7.8-11.7
				c11-2.2,22.2-4,33.4-5.2c5.4-0.6,10.3,3.3,11,8.7c0.6,5.4-3.3,10.3-8.7,11c-10.6,1.2-21.3,2.8-31.7,4.9
				C1343.4,664,1342.3,664,1341.3,663.9z M1544.4,678.1c-0.6-0.1-1.3-0.2-1.9-0.5c-10.1-3.5-20.4-6.6-30.8-9.3
				c-5.3-1.4-8.5-6.8-7.2-12.1c1.4-5.3,6.8-8.5,12.1-7.1c10.9,2.8,21.8,6.1,32.4,9.8c5.2,1.8,7.9,7.5,6.1,12.6
				C1553.5,676.1,1549,678.7,1544.4,678.1z M1427.3,656.6c-5-0.7-8.7-5-8.6-10.1c0.2-5.5,4.7-9.8,10.2-9.6
				c11.2,0.3,22.6,1.1,33.7,2.4c0.1,0,0.1,0,0.2,0c5.3,0.7,9.1,5.6,8.5,10.9c-0.6,5.4-5.5,9.3-11,8.7c-10.6-1.2-21.4-2-32-2.3
				C1428,656.6,1427.6,656.6,1427.3,656.6z"/>
			<path fill="#91B3FA" d="M1677.6,757.7c-1.9-0.3-3.8-1.1-5.4-2.5c-3.8-3.5-7.7-6.9-11.6-10.2c-4.2-3.5-4.7-9.8-1.2-14
				c3.5-4.2,9.8-4.7,14-1.2c4.1,3.5,8.2,7.1,12.2,10.7c4,3.7,4.3,10,0.6,14C1684,757.1,1680.7,758.1,1677.6,757.7z"/>
		</g>
		<g opacity="0.3">
			<path fill="#91B3FA" d="M1802.9,1032.8c-4.7-0.6-8.5-4.6-8.6-9.6c-0.1-5.1-0.4-10.3-0.7-15.4c-0.4-5.5,3.8-10.2,9.2-10.5
				c5.5-0.4,10.2,3.8,10.5,9.2c0.4,5.4,0.6,10.9,0.7,16.3c0.1,5.5-4.2,10-9.7,10.2C1804,1032.9,1803.5,1032.8,1802.9,1032.8z"/>
			<path fill="#91B3FA" d="M1365.6,1425.2c-4.5-0.6-9-1.3-13.6-2.1c-5.4-0.9-9-6-8.1-11.4s6.1-9,11.4-8.1c10.5,1.8,21,3.1,31.4,4
				c5.5,0.5,9.5,5.3,9,10.7c-0.5,5.5-5.3,9.5-10.7,9C1378.5,1426.8,1372,1426.1,1365.6,1425.2z M1301.1,1410.9
				c-0.5-0.1-1.1-0.2-1.6-0.4c-10.6-3.3-21.1-7.1-31.3-11.3c-5.1-2.1-7.5-7.9-5.4-12.9c2.1-5.1,7.9-7.5,12.9-5.4
				c9.7,4,19.7,7.6,29.7,10.7c5.2,1.6,8.1,7.2,6.5,12.4C1310.4,1408.7,1305.8,1411.5,1301.1,1410.9z M1437.1,1428.2
				c-4.6-0.6-8.3-4.5-8.6-9.3c-0.3-5.5,3.9-10.1,9.4-10.4c10.5-0.5,21-1.5,31.4-3c5.4-0.7,10.4,3.1,11.2,8.5
				c0.7,5.4-3.1,10.4-8.5,11.2c-11,1.5-22.1,2.6-33.1,3.1C1438.4,1428.3,1437.7,1428.3,1437.1,1428.2z M1223.3,1376.7
				c-1.2-0.2-2.5-0.6-3.6-1.3c-9.6-5.5-19-11.6-28.1-17.9c-4.5-3.1-5.6-9.3-2.4-13.8c3.1-4.5,9.3-5.6,13.8-2.5
				c8.6,6,17.6,11.7,26.6,17c4.7,2.7,6.4,8.8,3.6,13.5C1231.1,1375.4,1227.1,1377.2,1223.3,1376.7z M1521,1414.4
				c-3.8-0.5-7.1-3.2-8.2-7.1c-1.5-5.3,1.6-10.7,6.9-12.2c10.1-2.8,20.2-6.1,30-9.8c5.1-1.9,10.8,0.7,12.8,5.8
				c1.9,5.1-0.7,10.8-5.8,12.8c-10.4,3.9-21,7.3-31.6,10.3C1523.6,1414.5,1522.3,1414.6,1521,1414.4z M1599.7,1382.6
				c-3-0.4-5.8-2.2-7.4-5.1c-2.6-4.8-0.8-10.8,4-13.4c9.2-5,18.4-10.4,27.2-16.1c4.6-3,10.7-1.7,13.7,2.9c3,4.6,1.7,10.7-2.9,13.7
				c-9.2,6-18.9,11.7-28.6,17C1603.8,1382.6,1601.7,1382.9,1599.7,1382.6z M1669.7,1334.4c-2.3-0.3-4.5-1.4-6.2-3.3
				c-3.6-4.1-3.1-10.4,1-14c7.9-6.9,15.7-14.2,23-21.7c3.8-3.9,10.1-4,14-0.2c3.9,3.8,4,10.1,0.2,14c-7.7,7.9-15.9,15.6-24.2,22.8
				C1675.3,1334,1672.4,1334.8,1669.7,1334.4z M1727.5,1272.1c-1.6-0.2-3.2-0.8-4.6-1.9c-4.4-3.3-5.3-9.5-2.1-13.9
				c6.2-8.4,12.2-17.2,17.7-26.2c2.9-4.7,9-6.1,13.6-3.2c4.7,2.9,6.1,9,3.2,13.6c-5.8,9.4-12.1,18.7-18.6,27.6
				C1734.6,1271.1,1730.9,1272.5,1727.5,1272.1z M1770.2,1198.5c-0.9-0.1-1.8-0.4-2.7-0.8c-5-2.2-7.3-8.1-5.1-13.1
				c4.2-9.6,8.1-19.5,11.5-29.4c1.8-5.2,7.4-7.9,12.6-6.2c5.2,1.8,7.9,7.4,6.2,12.6c-3.6,10.5-7.7,20.9-12.1,31
				C1778.8,1196.8,1774.4,1199.1,1770.2,1198.5z M1795.7,1117.5c-0.2,0-0.4-0.1-0.6-0.1c-5.4-1.1-8.9-6.3-7.8-11.6
				c1.5-7.6,2.8-15.3,3.8-22.9c0.4-2.8,0.7-5.5,1-8.3c0.6-5.4,5.5-9.4,11-8.7c5.5,0.5,9.4,5.5,8.7,11c-0.3,2.9-0.7,5.8-1.1,8.7
				c-1.1,8-2.4,16.2-4,24.1C1805.7,1114.7,1800.8,1118.2,1795.7,1117.5z"/>
			<path fill="#91B3FA" d="M1154.7,1326c-2-0.3-3.8-1.1-5.4-2.5c-3.9-3.6-7.9-7.4-11.7-11.3c-3.9-3.9-3.8-10.2,0-14
				c3.9-3.9,10.2-3.8,14,0c3.6,3.7,7.4,7.3,11.1,10.7c4,3.7,4.3,10,0.5,14C1161,1325.4,1157.8,1326.4,1154.7,1326z"/>
		</g>
		<g>
			<path fill="#9BB1FF" d="M1183.4,1213.8c1,1.7,3,2.5,5,2.1l55.1-12.2c18.5,18.7,40.2,34.6,64.4,46.8l5.4,56.1
				c0.2,2,1.6,3.6,3.5,4.1l65.8,15.8c1.9,0.5,3.9-0.3,5-2l30.3-47.5c27.1,0.1,53.6-4.2,78.6-12.5l43.5,35.8c1.5,1.3,3.7,1.4,5.4,0.4
				l57.7-35.4c1.7-1,2.5-3,2.1-5l-12.2-55.1c18.7-18.5,34.6-40.2,46.8-64.4l56.1-5.4c2-0.2,3.6-1.6,4.1-3.5l15.8-65.8
				c0.5-1.9-0.3-3.9-2-5l-47.5-30.3c0.1-27.1-4.2-53.6-12.5-78.6l35.8-43.5c1.3-1.5,1.4-3.7,0.4-5.4l-35.4-57.7c-1-1.7-3-2.5-5-2.1
				l-55.1,12.2c-18.5-18.7-40.2-34.6-64.4-46.8l-5.4-56.1c-0.2-2-1.6-3.6-3.5-4.1l-65.8-15.8c-1.9-0.5-3.9,0.3-5,2l-30.3,47.5
				c-27.1-0.1-53.6,4.2-78.6,12.5l-43.5-35.8c-1.5-1.3-3.7-1.4-5.4-0.4l-57.7,35.4c-1.7,1-2.5,3-2.1,5l12.2,55.1
				c-18.7,18.5-34.6,40.2-46.8,64.4l-56.1,5.4c-2,0.2-3.6,1.6-4.1,3.5l-15.8,65.8c-0.5,1.9,0.3,3.9,2,5l47.5,30.3
				c-0.1,27.1,4.2,53.6,12.5,78.6l-35.8,43.5c-1.3,1.5-1.4,3.7-0.4,5.4L1183.4,1213.8z"/>
			<g>
				<path fill="#BDD0FB" d="M1409.8,1097.1c-32.8-4.4-58.4-32.5-58.8-66.6c-0.4-37.5,29.7-68.4,67.2-68.8
					c18.2-0.2,35.3,6.7,48.3,19.3c13,12.7,20.3,29.7,20.5,47.8c0.4,37.5-29.7,68.4-67.2,68.8
					C1416.3,1097.8,1413,1097.6,1409.8,1097.1z M1426,978.1c-2.5-0.3-5.1-0.5-7.7-0.5c-28.7,0.3-51.9,24-51.5,52.8
					c0.3,28.7,24,51.9,52.8,51.5c28.7-0.3,51.9-24,51.5-52.8c-0.2-13.9-5.7-27-15.7-36.7C1447.2,984.5,1437,979.6,1426,978.1z"/>
			</g>
			<path fill="#BDD0FB" d="M1398,1194.6c-5.6-0.8-11.3-1.8-16.9-3.2l0,0c-1.8-0.4-3.5-0.9-5.3-1.4c-8.6-2.4-17.1-5.4-25.2-9.1
				c-0.1-0.1-0.2-0.1-0.3-0.2c-0.3-0.1-0.6-0.3-0.9-0.4c-0.6-0.3-1.2-0.6-1.8-0.9c-1.6-0.8-2.4-2.4-2.2-4.1c0.1-0.4,0.2-0.8,0.4-1.2
				c0.9-2,3.3-2.8,5.3-1.9c10.2,4.9,20.9,8.7,32,11.3c54.9,13.2,110.1-3.9,147.9-40.5c21.1-20.3,36.8-46.7,44.1-77.2
				c1.3-5.4,2.3-10.7,3-16.1c4.9-36.2-2.8-72.7-22.1-104.3c-22.2-36.3-57.3-61.7-98.6-71.6c-85.4-20.5-171.5,32.3-192,117.7
				c-1.3,5.3-2.3,10.6-3,15.9c-3.1,23.1-1.2,46.6,5.8,68.9c0.2,0.6,0.2,1.2,0.1,1.7c-0.2,1.5-1.2,2.8-2.7,3.3
				c-2.1,0.7-4.3-0.5-5-2.6c-7.3-23.4-9.4-48.1-6.1-72.3c0.8-5.6,1.8-11.2,3.1-16.7c21.5-89.7,112-145.1,201.6-123.6
				c43.4,10.4,80.2,37.1,103.5,75.2c20.3,33.1,28.3,71.5,23.2,109.5c-0.8,5.6-1.8,11.3-3.2,16.9c-10.4,43.4-37.1,80.2-75.2,103.5
				C1474.3,1191.8,1436,1199.8,1398,1194.6z"/>
		</g>
	</g>
	<g>
		<g opacity="0.3">
			<path fill="#91B3FA" d="M660.6,1245c-2.6-0.4-4.8-2.4-5.2-5.1c-0.8-5.1-1.4-10.4-1.9-15.6c-0.3-3.4,2.2-6.3,5.5-6.7
				c3.4-0.3,6.3,2.2,6.7,5.5c0.5,4.9,1.1,9.9,1.8,14.8c0.5,3.3-1.8,6.5-5.1,7C661.8,1245.1,661.2,1245.1,660.6,1245z"/>
			<path fill="#91B3FA" d="M657.9,1198c-3.1-0.4-5.4-3.1-5.3-6.3c0.3-8.9,1-18,2.2-26.8c0.3-1.9,0.5-3.7,0.8-5.6
				c0.5-3.3,3.8-5.5,7-5.1c3.3,0.5,5.6,3.7,5.1,7c-0.3,1.8-0.5,3.6-0.8,5.4c-1.1,8.5-1.9,17.1-2.1,25.6c-0.1,3.4-2.9,6-6.3,5.9
				C658.3,1198,658.1,1198,657.9,1198z M667.7,1135.1c-0.3,0-0.6-0.1-0.9-0.2c-3.3-0.9-5.1-4.3-4.2-7.6c3-10.4,6.6-20.8,10.8-30.7
				c1.3-3.1,4.9-4.6,8-3.3c3.1,1.3,4.6,4.9,3.3,8c-4,9.5-7.5,19.4-10.3,29.3C673.6,1133.7,670.7,1135.5,667.7,1135.1z M692.5,1076.6
				c-0.8-0.1-1.5-0.4-2.2-0.8c-2.9-1.7-3.9-5.4-2.2-8.4c5.4-9.4,11.5-18.5,18.1-27.2c2-2.7,5.9-3.2,8.6-1.2c2.7,2,3.2,5.9,1.2,8.6
				c-6.3,8.2-12,17-17.2,25.9C697.3,1075.8,694.9,1076.9,692.5,1076.6z M730.9,1025.9c-1.3-0.2-2.5-0.7-3.4-1.7
				c-2.4-2.4-2.5-6.2-0.1-8.7c7.6-7.8,15.7-15.1,24.2-21.9c2.6-2.1,6.5-1.7,8.6,1c2.1,2.6,1.7,6.5-1,8.6c-8.1,6.4-15.8,13.5-23,20.9
				C734.7,1025.6,732.8,1026.2,730.9,1025.9z M780.6,986.2c-1.8-0.2-3.4-1.2-4.4-2.9c-1.8-2.9-0.9-6.6,2-8.4
				c9.2-5.7,18.9-10.9,28.7-15.4c3.1-1.4,6.7-0.1,8.1,3c1.4,3.1,0.1,6.7-3,8.1c-9.4,4.3-18.6,9.2-27.4,14.7
				C783.3,986.1,781.9,986.4,780.6,986.2z M838.3,959.7c-2.3-0.3-4.3-1.9-5-4.2c-1-3.2,0.8-6.7,4-7.7c10.3-3.3,21-5.9,31.6-7.9
				c3.3-0.6,6.5,1.6,7.1,4.9c0.6,3.3-1.6,6.5-4.9,7.1c-10.1,1.9-20.3,4.4-30.1,7.5C840.1,959.8,839.2,959.8,838.3,959.7z
				 M900.8,948.2c-2.8-0.4-5.1-2.7-5.3-5.7c-0.2-3.4,2.4-6.3,5.8-6.5c10.8-0.6,21.8-0.6,32.6,0.1c3.4,0.3,5.9,3.1,5.7,6.5
				c-0.2,3.4-3.1,5.9-6.5,5.7c-10.3-0.7-20.8-0.7-31.1-0.1C901.6,948.2,901.2,948.2,900.8,948.2z M995.1,960.1
				c-0.3,0-0.7-0.1-1.1-0.2c-8.5-2.7-17.3-5-26.2-6.9c-1.3-0.3-2.7-0.5-4-0.8c-3.3-0.6-5.5-3.8-4.9-7.2c0.6-3.3,3.9-5.6,7.2-4.9
				c1.4,0.3,2.8,0.5,4.2,0.8c9.3,1.9,18.5,4.3,27.4,7.2c3.2,1,5,4.5,4,7.7C1000.8,958.8,998,960.5,995.1,960.1z"/>
		</g>
		<g opacity="0.3">
			<path fill="#91B3FA" d="M885.1,1462.6c-3.3-0.4-5.7-3.5-5.3-6.8c0.4-3.4,3.5-5.7,6.8-5.3c10.1,1.2,20.4,1.9,30.5,1.9
				c3.4,0,6.1,2.7,6.1,6.1c0,3.4-2.7,6.1-6.1,6.1C906.5,1464.5,895.7,1463.9,885.1,1462.6C885.1,1462.6,885.1,1462.6,885.1,1462.6z
				 M854.2,1456.9c-0.2,0-0.4-0.1-0.7-0.1c-10.4-2.5-20.7-5.8-30.6-9.5c-3.2-1.2-4.8-4.7-3.6-7.9c1.2-3.2,4.7-4.7,7.9-3.6
				c9.5,3.6,19.3,6.7,29.2,9.1c3.3,0.8,5.3,4.1,4.5,7.4C860.2,1455.4,857.3,1457.3,854.2,1456.9z M947.6,1462.6
				c-2.7-0.4-4.9-2.5-5.3-5.3c-0.4-3.4,2-6.4,5.3-6.8c10.1-1.3,20.2-3.1,30.1-5.6c3.3-0.8,6.6,1.2,7.4,4.5c0.8,3.3-1.2,6.6-4.5,7.4
				c-10.3,2.6-20.9,4.5-31.5,5.8C948.6,1462.7,948.1,1462.7,947.6,1462.6z M795.7,1434.8c-0.7-0.1-1.4-0.3-2-0.6
				c-9.4-5-18.7-10.6-27.4-16.6c-2.8-1.9-3.5-5.7-1.5-8.5c1.9-2.8,5.7-3.5,8.5-1.5c8.4,5.8,17.2,11.1,26.2,15.9
				c3,1.6,4.1,5.3,2.6,8.3C800.8,1433.9,798.2,1435.1,795.7,1434.8z M1008.3,1447.5c-2.1-0.3-4.1-1.7-4.9-3.9
				c-1.2-3.2,0.4-6.7,3.5-7.9c9.5-3.6,18.9-7.9,27.8-12.6c3-1.6,6.7-0.4,8.3,2.6c1.6,3,0.4,6.7-2.5,8.3c-9.4,5-19.2,9.4-29.2,13.2
				C1010.3,1447.5,1009.2,1447.6,1008.3,1447.5z M1063.5,1418.3c-1.6-0.2-3.2-1.1-4.2-2.6c-1.9-2.8-1.2-6.6,1.5-8.5
				c8.4-5.8,16.5-12.2,24-18.9c2.5-2.3,6.4-2,8.6,0.5c2.3,2.5,2,6.4-0.5,8.6c-7.9,7.1-16.4,13.8-25.2,19.8
				C1066.5,1418.1,1065,1418.5,1063.5,1418.3z M1110.2,1376.7c-1.2-0.2-2.3-0.6-3.2-1.5c-2.5-2.2-2.8-6.1-0.6-8.6
				c6.7-7.6,13.1-15.8,18.8-24.1c1.9-2.8,5.7-3.5,8.5-1.6c2.8,1.9,3.5,5.7,1.6,8.5c-6,8.8-12.6,17.3-19.7,25.3
				C1114.2,1376.2,1112.2,1376.9,1110.2,1376.7z"/>
			<path fill="#91B3FA" d="M744.1,1398.9c-1.2-0.2-2.3-0.7-3.3-1.5c-3.9-3.5-7.7-7.1-11.4-10.8c-2.4-2.4-2.4-6.3,0-8.7
				c2.4-2.4,6.3-2.4,8.7,0c3.5,3.5,7.1,6.9,10.8,10.3c2.5,2.3,2.7,6.1,0.5,8.6C748.1,1398.5,746.1,1399.2,744.1,1398.9z"/>
		</g>
		<g>
			<path fill="#91B3FA" d="M759.8,1321.2c0.7,1.1,2,1.7,3.3,1.4l36.8-8.2c12.4,12.5,26.9,23.2,43.1,31.3l3.6,37.5
				c0.1,1.3,1.1,2.4,2.4,2.7l44,10.6c1.3,0.3,2.6-0.2,3.3-1.3l20.3-31.8c18.1,0.1,35.9-2.8,52.6-8.4l29.1,24c1,0.8,2.5,0.9,3.6,0.2
				l38.6-23.7c1.1-0.7,1.7-2,1.4-3.3l-8.2-36.8c12.5-12.4,23.2-26.9,31.3-43.1l37.5-3.6c1.3-0.1,2.4-1.1,2.7-2.4l10.6-44
				c0.3-1.3-0.2-2.6-1.3-3.3l-31.8-20.3c0.1-18.1-2.8-35.9-8.4-52.6l24-29.1c0.8-1,0.9-2.5,0.2-3.6l-23.7-38.6
				c-0.7-1.1-2-1.7-3.3-1.4l-36.8,8.2c-12.4-12.5-26.9-23.2-43.1-31.3l-3.6-37.5c-0.1-1.3-1.1-2.4-2.4-2.7l-44-10.6
				c-1.3-0.3-2.6,0.2-3.3,1.3l-20.3,31.8c-18.1-0.1-35.9,2.8-52.6,8.4l-29.1-24c-1-0.8-2.5-0.9-3.6-0.2l-38.6,23.7
				c-1.1,0.7-1.7,2-1.4,3.3l8.2,36.8c-12.5,12.4-23.2,26.9-31.3,43.1l-37.5,3.6c-1.3,0.1-2.4,1.1-2.7,2.4l-10.6,44
				c-0.3,1.3,0.2,2.6,1.3,3.3l31.8,20.3c-0.1,18.1,2.8,35.9,8.4,52.6l-24,29.1c-0.8,1-0.9,2.5-0.2,3.6L759.8,1321.2z"/>
			<g>
				<path fill="#BDD0FB" d="M911.1,1243.9c-9.8-1.3-18.9-5.7-26.1-12.8c-8.9-8.6-13.8-20.2-14-32.6c-0.3-25.5,20.2-46.6,45.8-46.9
					c25.6-0.3,46.6,20.2,46.9,45.8c0.1,12.4-4.5,24.1-13.2,32.9c-8.6,8.9-20.2,13.8-32.6,14C915.6,1244.4,913.3,1244.2,911.1,1243.9
					z M922,1164.3c-1.6-0.2-3.3-0.3-5-0.3c-18.8,0.2-33.9,15.7-33.7,34.5c0.1,9.1,3.8,17.6,10.3,24c6.5,6.4,15.1,9.8,24.2,9.7l0,0
					c9.1-0.1,17.6-3.8,24-10.3c6.4-6.5,9.8-15.1,9.7-24.2C951.2,1180.6,938.4,1166.5,922,1164.3z"/>
			</g>
			<path fill="#BDD0FB" d="M902.8,1311.8c-3.8-0.5-7.7-1.2-11.5-2.2c-7.6-1.8-15.1-4.4-22.2-7.8c-0.3-0.2-0.6-0.3-1-0.5
				c-2.5-1.2-3.8-3.8-3.4-6.3c0.1-0.6,0.3-1.2,0.6-1.8c1.5-3,5.1-4.3,8.2-2.9c6.6,3.2,13.6,5.6,20.7,7.3l0,0
				c0.4,0.1,0.8,0.2,1.2,0.3c16.9,3.9,34.2,3.4,50.5-1.1c8.8-2.5,17.4-6.2,25.5-11c0.1,0,0.1-0.1,0.2-0.1c0.2-0.1,0.4-0.2,0.6-0.4
				c23.5-14.4,39.9-37.1,46.4-63.9c0.8-3.5,1.5-6.9,2-10.4c3.2-23.4-1.8-47.1-14.3-67.5c-14.4-23.5-37.1-39.9-63.9-46.4
				c-26.8-6.4-54.5-2-77.9,12.4c-23.5,14.4-39.9,37.1-46.4,63.9c-0.8,3.4-1.5,6.8-1.9,10.3c-2,15-0.7,30.2,3.8,44.6
				c0.3,0.9,0.3,1.8,0.2,2.7c-0.3,2.3-1.9,4.3-4.2,5c-3.2,1-6.7-0.8-7.7-4c-5.1-16.1-6.5-33.2-4.2-49.9c0.5-3.9,1.2-7.7,2.2-11.5
				c7.2-30,25.6-55.3,51.9-71.4c26.3-16.1,57.2-21,87.2-13.8c30,7.2,55.3,25.6,71.4,51.9c14,22.9,19.6,49.3,16,75.5
				c-0.5,3.9-1.3,7.8-2.2,11.7C1016.4,1282.4,960.7,1319.6,902.8,1311.8z"/>
		</g>
	</g>
	<g>
		<linearGradient id="SVGID_2_" gradientUnits="userSpaceOnUse" x1="1857.7104" y1="1326.0016" x2="1823.1484" y2="2922.7332">
			<stop  offset="0" style="stop-color:#09005D"/>
			<stop  offset="1" style="stop-color:#1A0F91"/>
		</linearGradient>
		<path fill="url(#SVGID_2_)" d="M586.9,2821.1c0,24.9,20.4,45.3,45.3,45.3h2450.8c24.9,0,45.3-20.4,45.3-45.3l20.4-1408.4
			c0-24.9-29.3-73.5-83.1-69.9l-2395.2-62c-31.3-0.8-61.5,11.2-83.7,33.3s-34.3,52.3-33.5,83.5L586.9,2821.1z"/>
		<path fill="#9BB1FF" d="M631.6,2777.7c0,23.6,19.3,42.9,42.9,42.9H3024c23.6,0,42.9-19.3,42.9-42.9l19.2-1278.6
			c-2.3-76.9-69.7-104.6-110.6-103l-2295.6-61.6c-22-0.6-43.2,7.9-58.8,23.4s-24.1,36.8-23.6,58.7L631.6,2777.7z"/>
		<g>
			<linearGradient id="SVGID_3_" gradientUnits="userSpaceOnUse" x1="3035.1575" y1="2112.1023" x2="3049.2432" y2="2112.1023">
				<stop  offset="0" style="stop-color:#DAE3FE"/>
				<stop  offset="1" style="stop-color:#E9EFFD"/>
			</linearGradient>
			<path fill="url(#SVGID_3_)" d="M3041.4,2170.2C3041.4,2170.2,3041.4,2170.2,3041.4,2170.2c-3.6-0.1-6.3-2.9-6.3-6.4l1.5-103.7
				c0.1-3.4,2.9-6.2,6.3-6.2c0,0,0.1,0,0.1,0c3.5,0.1,6.2,2.9,6.2,6.4l-1.5,103.7C3047.7,2167.5,3044.9,2170.2,3041.4,2170.2z"/>
			<linearGradient id="SVGID_4_" gradientUnits="userSpaceOnUse" x1="2214.1482" y1="1658.4708" x2="3057.2864" y2="1658.4708">
				<stop  offset="0" style="stop-color:#DAE3FE"/>
				<stop  offset="1" style="stop-color:#E9EFFD"/>
			</linearGradient>
			<path fill="url(#SVGID_4_)" d="M3045.2,1916.1C3045.1,1916.1,3045.1,1916.1,3045.2,1916.1c-3.6-0.1-6.3-2.9-6.3-6.4l5.8-397.1
				c-0.1-23.6-7.3-42.4-21.3-55.9c-26.2-25.1-67.7-23.8-69.4-23.7l-733.7-19.7c-3.5-0.1-6.2-3-6.1-6.4c0.1-3.5,2.8-6.4,6.5-6.1
				l733.3,19.7c4.6-0.3,48.8-1,78.2,27.2c16.6,15.9,25,37.7,25.2,65l-5.8,397.3C3051.4,1913.4,3048.6,1916.1,3045.2,1916.1z"/>
		</g>
		<linearGradient id="SVGID_5_" gradientUnits="userSpaceOnUse" x1="1871.6158" y1="2782.5134" x2="2080.5334" y2="1915.5026">
			<stop  offset="0" style="stop-color:#09005D"/>
			<stop  offset="1" style="stop-color:#1A0F91"/>
		</linearGradient>
		<path fill="url(#SVGID_5_)" d="M446.2,2983.3h2783.8c3.1,0,5.7-2.5,5.7-5.7v-112.4c0-3.1-2.5-5.7-5.7-5.7H446.2
			c-3.1,0-5.7,2.5-5.7,5.7v112.4C440.6,2980.7,443.1,2983.3,446.2,2983.3z"/>
		<path opacity="0.44" fill="#FFFFFF" d="M2917.6,1854.1H740.4c-34.5,0-62.4-26.9-62.4-60v-289.6c0-33.5,28.5-60.5,63.4-60
			l2177.1,30.9c34.1,0.5,61.5,27.2,61.5,60V1794C2980,1827.2,2952.1,1854.1,2917.6,1854.1z"/>
		<path opacity="0.44" fill="#FFFFFF" d="M2963.3,2463.5H718.6c-9.3,0-16.7-7.5-16.7-16.7v-513.9c0-9.3,7.5-16.7,16.7-16.7h2244.6
			c9.3,0,16.7,7.5,16.7,16.7v513.9C2980,2456,2972.5,2463.5,2963.3,2463.5z"/>
		<path opacity="0.44" fill="#FFFFFF" d="M2971.7,2767H710.3c-4.6,0-8.4-3.7-8.4-8.4v-218.5c0-4.6,3.7-8.4,8.4-8.4h2261.4
			c4.6,0,8.4,3.7,8.4,8.4v218.5C2980,2763.2,2976.3,2767,2971.7,2767z"/>
	</g>
	<g>
		<path fill="#FCA17D" d="M2641.5,1519.1c-3.4-52.7-35.2-99.3-82.9-122l-617.7-293.4c-39.6-18.8-85.5-18.8-125,0l-617.7,293.4
			c-47.7,22.6-79.5,69.3-82.9,122c-57.9,895.7,516.3,1222,704.6,1304.4c37.3,16.3,79.8,16.3,117.1,0
			C2125.2,2741.1,2699.5,2414.8,2641.5,1519.1z"/>
		<path opacity="0.67" fill="#FFFFFF" d="M1691.5,1233.4c-5.5,0-10.9-3.1-13.4-8.5c-3.5-7.4-0.4-16.2,7-19.7l146-69.3
			c7.4-3.5,16.2-0.4,19.7,7c3.5,7.4,0.4,16.2-7,19.7l-146,69.3C1695.8,1233,1693.7,1233.4,1691.5,1233.4z"/>
		<path opacity="0.67" fill="#FFFFFF" d="M1162.5,1716.9c-7.9,0-14.5-6.3-14.8-14.3c-2-58.4-0.9-119.4,3.1-181.1
			c2.6-39.7,26.6-75,62.7-92.1l415.6-197.4c7.4-3.5,16.2-0.4,19.7,7c3.5,7.4,0.4,16.2-7,19.7l-415.6,197.4
			c-26.4,12.5-43.9,38.3-45.8,67.3c-3.9,60.8-4.9,120.7-3,178.2c0.3,8.2-6.1,15-14.3,15.3
			C1162.8,1716.9,1162.7,1716.9,1162.5,1716.9z"/>
		<path fill="#275DAD" d="M2492.2,1554.1c-0.7-13.4-8.6-25.3-20.7-31L1894,1248.8c-9.9-4.7-21.3-4.7-31.2,0l-577.5,274.3
			c-12.1,5.7-20,17.7-20.7,31c-17.1,334.1,60.1,612.9,229.5,828.9c129.2,164.7,280.3,253,368.9,294.2c9.8,4.5,21,4.5,30.7,0
			c88.6-41.2,239.7-129.5,368.9-294.2C2432.1,2167,2509.2,1888.2,2492.2,1554.1z"/>
		<g>
			<path fill="#FCA17D" d="M1707.7,1913.1h-57.6v-229.4c0-90.1,67.4-166.2,156.9-177.1l117.7-14.3c50.6-6.2,101.6,9.7,139.8,43.6
				c38.2,33.8,60.1,82.5,60.1,133.5v200.2H2067v-200.2c0-34.6-14.8-67.5-40.7-90.4c-25.9-22.9-60.4-33.7-94.7-29.5l-117.7,14.3
				c-60.6,7.4-106.3,58.9-106.3,119.9V1913.1z"/>
			<path fill="#FCA17D" d="M1633.1,1861.6l504.5-28c20.5-1.1,37.7,15.2,37.7,35.7V2269c0,19.7-16,35.8-35.8,35.8h-492.4
				c-19.3,0-35.1-15.3-35.7-34.6l-12.1-371.7C1598.7,1879,1613.7,1862.6,1633.1,1861.6z"/>
			<path fill="#AF5037" d="M1969.6,2190.3l-30.5-87.8c-3.7-10.6-1.2-22.4,6.7-30.3c15.6-15.9,25-38,23.9-62.2
				c-1.9-42.8-36.9-77.5-79.8-79.2c-47.4-1.8-86.4,36.1-86.4,83.1c0,26.1,12,49.3,30.8,64.6c9.7,7.9,13.7,20.9,9.6,32.7l-27.5,79.2
				c-6.7,19.3,7.6,39.4,28,39.4h97.3C1962,2229.6,1976.3,2209.5,1969.6,2190.3z"/>
		</g>
	</g>
	<g>
		
			<linearGradient id="SVGID_6_" gradientUnits="userSpaceOnUse" x1="18273.2656" y1="1282.3586" x2="17935.3613" y2="1475.2294" gradientTransform="matrix(-1 0 0 1 20496.2813 0)">
			<stop  offset="0" style="stop-color:#FEBBBA"/>
			<stop  offset="1" style="stop-color:#FF928E"/>
		</linearGradient>
		<path fill="url(#SVGID_6_)" d="M2274.4,1596.8c0.4-0.2,214.7-375.5,243.7-410.8c4.9-5.9,12.4-9,20-8.1l59.8,7.1l70.3,152
			l-117.1-68.2c11.6,80.1-138.8,199.2-190.4,242.7c-5.2,4.4-5.7,12.3-0.9,17.3l20.6,21.6c-33.8,34.3-72.8,56.3-116.9,66.5
			L2274.4,1596.8z"/>
		<linearGradient id="SVGID_7_" gradientUnits="userSpaceOnUse" x1="2250.3076" y1="1592.1764" x2="2386.8677" y2="1592.1764">
			<stop  offset="0" style="stop-color:#09005D"/>
			<stop  offset="1" style="stop-color:#1A0F91"/>
		</linearGradient>
		<path fill="url(#SVGID_7_)" d="M2368.5,1538.7c0,0,13.1,4.2,17.6,16c2.1,5.6-0.2,11.9-5,15.4c-21.6,15.5-93,65.6-126,75.4
			c-2.7,0.8-5.3-1.6-4.7-4.4c1.7-7.7,7.2-22.9,24.8-45.3l-1.6,3.2c-2,4,2.4,8.3,6.3,6C2302,1592.6,2346.8,1565.4,2368.5,1538.7z"/>
		
			<linearGradient id="SVGID_8_" gradientUnits="userSpaceOnUse" x1="18240.5762" y1="1330.459" x2="19396.7168" y2="606.6979" gradientTransform="matrix(-1 0 0 1 20496.2813 0)">
			<stop  offset="0" style="stop-color:#FEBBBA"/>
			<stop  offset="1" style="stop-color:#FF928E"/>
		</linearGradient>
		<path fill="url(#SVGID_8_)" d="M2357.9,1688.9c0.4-0.2,32.5-77.7,32.9-77.9c29.5-179.5,101.4-333.2,122.6-373.7
			c3.6-6.8,10.3-11.3,18-11.9l60-5.1l99.6,134.7l-128.5-43.1c27.6,76.1-95.6,223.2-137.4,276.2c-4.2,5.4-3.1,13.2,2.6,17.1
			l24.5,16.9c-26.2,40.4-59.9,69.8-101,88.7L2357.9,1688.9z"/>
		<linearGradient id="SVGID_9_" gradientUnits="userSpaceOnUse" x1="2343.342" y1="1676.9714" x2="2460.645" y2="1676.9714">
			<stop  offset="0" style="stop-color:#09005D"/>
			<stop  offset="1" style="stop-color:#1A0F91"/>
		</linearGradient>
		<path fill="url(#SVGID_9_)" d="M2438.3,1613c0,0,13.7,1.5,20.5,12.1c3.2,5.1,2.3,11.7-1.8,16.1c-18.1,19.6-77.8,83-108.1,99.3
			c-2.5,1.3-5.5-0.5-5.5-3.4c0.1-7.8,2.4-23.9,15.1-49.4l-0.9,3.5c-1.1,4.4,4,7.6,7.4,4.6C2384,1679.2,2422.5,1643.5,2438.3,1613z"
			/>
		<g>
			
				<linearGradient id="SVGID_10_" gradientUnits="userSpaceOnUse" x1="10125.0547" y1="1040.1901" x2="9847.1416" y2="1344.7523" gradientTransform="matrix(-1 0 0 1 12664.5801 0)">
				<stop  offset="0" style="stop-color:#4F52FF"/>
				<stop  offset="1" style="stop-color:#4042E2"/>
			</linearGradient>
			<path fill="url(#SVGID_10_)" d="M2872.4,1191.8c0,0,54.3,80.8,58.8,117.6c4.5,36.8-15,49.6-71.9,54.3
				c-169.1,14-252.5-36.7-252.5-36.7c-11.6-73.8-19.8-92.5-116.4-132.6c0,0,122.2,9.7,146.8,0.2
				C2661.8,1185,2872.4,1191.8,2872.4,1191.8z"/>
		</g>
		<g>
			
				<linearGradient id="SVGID_11_" gradientUnits="userSpaceOnUse" x1="2383.5234" y1="1025.7327" x2="1995.8411" y2="708.538" gradientTransform="matrix(1 0 0 1 548.7078 0)">
				<stop  offset="0" style="stop-color:#09005D"/>
				<stop  offset="1" style="stop-color:#1A0F91"/>
			</linearGradient>
			<path fill="url(#SVGID_11_)" d="M2612.4,768.4c0,0-28.7-29.6,12.8-53.4c41.5-23.8,73.5,6.2,110.7,47.6
				c30.4,33.9,87.3,36.2,128.3,47.9c51.7,14.8,89.1,54.3,95,109.7c4.8,45.3-34,77.1-72.7,91.1c-118.3,42.9-146.3,57.2-183.4-13.5
				S2612.4,768.4,2612.4,768.4z"/>
			<path fill="#BDD0FB" d="M2916.2,972.2c7.2-5,13.8-11.7,17.8-18.2c6-9.7,7.8-27.4,7.6-40.7c-1.3-65-63.6-88.4-110.4-100.3
				c-14-3.6-28.7-6.8-43.8-9.5c-0.4-0.1-0.8,0.2-0.8,0.6c-0.1,0.4,0.2,0.8,0.6,0.8c15.1,2.8,29.8,5.9,43.7,9.5
				c46.3,11.8,108.1,34.9,109.4,99c0.3,13.1-1.5,30.5-7.4,39.9c-5.4,8.7-15.7,17.8-25.6,22.6c-0.4,0.2-0.5,0.6-0.3,0.9
				c0.2,0.4,0.6,0.5,0.9,0.3C2910.7,975.8,2913.5,974.1,2916.2,972.2z"/>
			<path fill="#FCA17D" d="M2725.5,1181.1c0,0-63.2-60.2-94.4-100.1c-16.8-21.6-22.1-49.9-14.3-76.2c14.2-47.9,39.5-97.5,41.8-105.2
				c3.5-11.8,74.4-11.3,74.4-11.3s139.5,90.6,194.3,243.9l-61.6,19.2c0,0-36.4-61.1-72.4-100c0,0,62.3,82.3,64.5,116L2725.5,1181.1z
				"/>
			
				<linearGradient id="SVGID_12_" gradientUnits="userSpaceOnUse" x1="-9284.9766" y1="1171.1859" x2="-8948.374" y2="1171.1859" gradientTransform="matrix(1 0 0 1 12099.8174 0)">
				<stop  offset="0" style="stop-color:#FEBBBA"/>
				<stop  offset="1" style="stop-color:#FF928E"/>
			</linearGradient>
			<path fill="url(#SVGID_12_)" d="M2605,1204.9l47.5-51.7l54.9,14.8c0,0,64,9.9,100.6,0c36.6-9.9,36.6-9.9,36.6-9.9l82.7-25.8
				l13,36.7c3.3,9.3,0,19.7-8.1,25.4c-7.2,5.1-15.5,10.7-20.9,13c-10.9,4.8-251,1.5-251,1.5L2605,1204.9z"/>
			
				<linearGradient id="SVGID_13_" gradientUnits="userSpaceOnUse" x1="-11124.5107" y1="107.9508" x2="-11108.0557" y2="-12.4262" gradientTransform="matrix(0.9974 -7.170000e-002 7.170000e-002 0.9974 13765.6875 105.0094)">
				<stop  offset="0" style="stop-color:#FEBBBA"/>
				<stop  offset="1" style="stop-color:#FF928E"/>
			</linearGradient>
			<path fill="url(#SVGID_13_)" d="M2684.3,803.1l47.7,88.6c-3.1,19.3-51.9,19.9-59.4,8.3c-0.8-1.2-1.2-2.5-1.5-3.9l-28.5-59.2
				c-1.2-5.8,14.6-25.2,19.8-28l18.9-10.1C2688.6,795,2658.2,794.7,2684.3,803.1z"/>
			<g>
				
					<linearGradient id="SVGID_14_" gradientUnits="userSpaceOnUse" x1="-9106.4004" y1="-4400.4434" x2="-8951.4717" y2="-4676.1646" gradientTransform="matrix(0.5458 -0.8379 0.8379 0.5458 11346.7031 -4320.769)">
					<stop  offset="0" style="stop-color:#FEBBBA"/>
					<stop  offset="1" style="stop-color:#FF928E"/>
				</linearGradient>
				<path fill="url(#SVGID_14_)" d="M2587.9,782.3c0,0-5.4,29.9,18.2,68c23.5,38.1,47,36.3,58.9,22.8c11.9-13.6,26.2-36.2,19.7-74.2
					C2678.1,761,2596,744.1,2587.9,782.3z"/>
				
					<linearGradient id="SVGID_15_" gradientUnits="userSpaceOnUse" x1="2390.0933" y1="1017.7034" x2="2002.4117" y2="700.5094" gradientTransform="matrix(1 0 0 1 548.7078 0)">
					<stop  offset="0" style="stop-color:#09005D"/>
					<stop  offset="1" style="stop-color:#1A0F91"/>
				</linearGradient>
				<path fill="url(#SVGID_15_)" d="M2591.3,738.3c0,0-19.7,29.7-15.7,42.3c4,12.6,47.1-10.9,57.4-17.4l94.7,72.8
					c0,0-50.7-97.7-76-113.9C2626.3,705.9,2591.3,738.3,2591.3,738.3z"/>
				<path fill="#BDD0FB" d="M2580.5,780.8c0.2-0.2,0.3-0.5,0.2-0.7c-0.2-0.5-4.2-12.9,7.9-24c0.3-0.3,0.3-0.7,0-1
					c-0.3-0.3-0.7-0.3-1,0c-12.8,11.8-8.3,25.3-8.3,25.5c0.1,0.4,0.5,0.6,0.9,0.4C2580.3,780.9,2580.4,780.8,2580.5,780.8z"/>
				
					<linearGradient id="SVGID_16_" gradientUnits="userSpaceOnUse" x1="-9069.8701" y1="-4376.4639" x2="-8914.9424" y2="-4652.1836" gradientTransform="matrix(0.5458 -0.8379 0.8379 0.5458 11346.7031 -4320.769)">
					<stop  offset="0" style="stop-color:#FEBBBA"/>
					<stop  offset="1" style="stop-color:#FF928E"/>
				</linearGradient>
				<path fill="url(#SVGID_16_)" d="M2671.3,801.7c0,0-19.7-25.6-1.8-30.9c18-5.3,17.3,25.1,16.1,36.4L2671.3,801.7z"/>
			</g>
		</g>
		<g>
			
				<linearGradient id="SVGID_17_" gradientUnits="userSpaceOnUse" x1="-9307.8252" y1="763.4408" x2="-9483.9121" y2="811.7016" gradientTransform="matrix(0.9988 -4.940000e-002 4.940000e-002 0.9988 12058.3486 -55.0328)">
				<stop  offset="0" style="stop-color:#09005D"/>
				<stop  offset="1" style="stop-color:#1A0F91"/>
			</linearGradient>
			<path fill="url(#SVGID_17_)" d="M2762.3,1225.4c-0.2,0-0.3,0-0.5,0l-218.6-0.2c-5.4,0-9.8-4.4-9.8-9.8c0-5.4,4.4-9.9,9.8-9.8
				l218.6,0.2c5.4,0,9.8,4.4,9.8,9.8C2771.6,1220.8,2767.5,1225.1,2762.3,1225.4z"/>
			
				<linearGradient id="SVGID_18_" gradientUnits="userSpaceOnUse" x1="1793.6808" y1="1138.9546" x2="3377.3982" y2="1005.7092" gradientTransform="matrix(1 0 0 1 548.7078 0)">
				<stop  offset="0" style="stop-color:#09005D"/>
				<stop  offset="1" style="stop-color:#1A0F91"/>
			</linearGradient>
			<path fill="url(#SVGID_18_)" d="M2346.8,1026.9h182c13.4,0,25.6,7.7,31.4,19.9l84.1,178.4h-226.2c-8.7,0-16.4-5.3-19.6-13.3
				l-65.2-165.1C2329.5,1037.3,2336.5,1026.9,2346.8,1026.9z"/>
			
				<ellipse transform="matrix(0.9519 -0.3064 0.3064 0.9519 -225.6369 808.1125)" fill="#91B3FA" cx="2461.4" cy="1122.8" rx="14.3" ry="23.3"/>
		</g>
	</g>
	<g>
		
			<linearGradient id="SVGID_19_" gradientUnits="userSpaceOnUse" x1="-4229.2021" y1="3191.5469" x2="-4063.6426" y2="3191.5469" gradientTransform="matrix(1 0 0 1 5088.2163 0)">
			<stop  offset="0" style="stop-color:#4F52FF"/>
			<stop  offset="1" style="stop-color:#4042E2"/>
		</linearGradient>
		<path fill="url(#SVGID_19_)" d="M1019.9,3183.5c-28.4,2.5-77.6,6.4-116.4,8.1c-23.3,1-36.8-1.3-44.5-4.4c0,0.9,0,1.7,0.1,2.5
			c0.2,4.1,3.5,7.4,7.6,7.6c73.3,4.1,131.6,1.4,152.4,0.2c4.3-0.3,6.9-4.9,4.7-8.6C1022.7,3187.1,1021.3,3185.3,1019.9,3183.5z"/>
		
			<linearGradient id="SVGID_20_" gradientUnits="userSpaceOnUse" x1="-4229.2114" y1="3159.0994" x2="-4068.3179" y2="3159.0994" gradientTransform="matrix(1 0 0 1 5088.2163 0)">
			<stop  offset="0" style="stop-color:#09005D"/>
			<stop  offset="1" style="stop-color:#1A0F91"/>
		</linearGradient>
		<path fill="url(#SVGID_20_)" d="M903.5,3191.7c38.8-1.7,88-5.7,116.4-8.1c-27.9-34.2-116.4-57.3-116.4-57.3h-25
			c-17.2,24.8-19.7,48.4-19.5,61.1C866.7,3190.4,880.2,3192.7,903.5,3191.7z"/>
		
			<linearGradient id="SVGID_21_" gradientUnits="userSpaceOnUse" x1="-4213.9175" y1="3113.7981" x2="-4167.2827" y2="3113.7981" gradientTransform="matrix(1 0 0 1 5088.2163 0)">
			<stop  offset="0" style="stop-color:#FEBBBA"/>
			<stop  offset="1" style="stop-color:#FF928E"/>
		</linearGradient>
		<path fill="url(#SVGID_21_)" d="M874.3,3085.5l2.3,46.3c0.3,5,4,9.2,9,9.9c5,0.7,11.7,0.8,18.8-1.6c4.4-1.5,7.6-5.1,8.4-9.6
			l8.1-45.1H874.3z"/>
		<g>
			
				<linearGradient id="SVGID_22_" gradientUnits="userSpaceOnUse" x1="-4524.7036" y1="3232.6003" x2="-4461.2588" y2="3232.6003" gradientTransform="matrix(1 0 0 1 5088.2163 0)">
				<stop  offset="0" style="stop-color:#4F52FF"/>
				<stop  offset="1" style="stop-color:#4042E2"/>
			</linearGradient>
			<path fill="url(#SVGID_22_)" d="M584.2,3236.9c-12.3-2.2-17.9-10.5-20.2-19.3c0,0.1,0,0.2,0,0.2c-1.8,9.3,2.4,19,10.8,23.6
				c10.1,5.5,21.2,6.5,29.8,6c9.2-0.5,17.7-5.4,22.4-13.3l0.1-0.1C617.7,3239.9,604.7,3240.6,584.2,3236.9z"/>
			
				<linearGradient id="SVGID_23_" gradientUnits="userSpaceOnUse" x1="-4524.2422" y1="3169.4651" x2="-4431.1172" y2="3169.4651" gradientTransform="matrix(1 0 0 1 5088.2163 0)">
				<stop  offset="0" style="stop-color:#09005D"/>
				<stop  offset="1" style="stop-color:#1A0F91"/>
			</linearGradient>
			<path fill="url(#SVGID_23_)" d="M642.2,3099.7h-20.6c-31.4-0.8-51.1,84.8-57.6,117.9c2.3,8.8,7.9,17.1,20.2,19.3
				c20.5,3.7,33.5,3,42.8-2.9c17-28.9,25.4-71.1,29.4-95.8C661,3110.2,642.2,3099.7,642.2,3099.7z"/>
		</g>
		
			<linearGradient id="SVGID_24_" gradientUnits="userSpaceOnUse" x1="-4475.8374" y1="3089.48" x2="-4420.104" y2="3089.48" gradientTransform="matrix(1 0 0 1 5088.2163 0)">
			<stop  offset="0" style="stop-color:#FEBBBA"/>
			<stop  offset="1" style="stop-color:#FF928E"/>
		</linearGradient>
		<path fill="url(#SVGID_24_)" d="M624.2,3056.8l-11.4,45.5c-1.4,5.6,1.3,11.4,6.4,14c6.4,3.3,15.4,6.7,23.7,5.7
			c3.9-0.5,7.1-3.2,8.4-6.9l16.8-47.9L624.2,3056.8z"/>
		<path fill="#275DAD" d="M1026.9,2457.1c0,0-102.3,639.4-100.6,643c0,0-28.3,12.8-59.1,1.6c0,0,9.3-341.8,30.9-472.9
			c0,0-174.6,305.5-230,457.8c0,0-28.9-3.4-52.9-19.2c0,0,188-549.9,238.1-623.2L1026.9,2457.1z"/>
		<linearGradient id="SVGID_25_" gradientUnits="userSpaceOnUse" x1="1373.8783" y1="2082.356" x2="1076.8243" y2="2419.689">
			<stop  offset="0" style="stop-color:#4F52FF"/>
			<stop  offset="1" style="stop-color:#4042E2"/>
		</linearGradient>
		<path fill="url(#SVGID_25_)" d="M902.2,2626.6c1.4,0,2.7-0.7,3.5-1.9l37.3-59.6l26.4-5.3c2.2-0.4,3.7-2.6,3.2-4.8
			c-0.5-2.2-2.6-3.6-4.8-3.2l-28.1,5.7c-1.1,0.2-2.1,0.9-2.7,1.8l-38.2,61.1c-1.2,1.9-0.6,4.5,1.3,5.7
			C900.7,2626.4,901.5,2626.6,902.2,2626.6z"/>
		
			<linearGradient id="SVGID_26_" gradientUnits="userSpaceOnUse" x1="-3709.2527" y1="1915.5194" x2="-3929.9871" y2="2202.689" gradientTransform="matrix(1 0 0 1 5088.2163 0)">
			<stop  offset="0" style="stop-color:#FEBBBA"/>
			<stop  offset="1" style="stop-color:#FF928E"/>
		</linearGradient>
		<path fill="url(#SVGID_26_)" d="M1496.3,1831c0,0-69,15.2-111,34.6c-8.3,3.8-15,10.6-18.8,18.9c-12.6,27.5-50.1,96.5-123,129.4
			c10.5,13.9,27.4,42.9,34.7,91.6c43.8-32.6,81.5-87,99.7-176.2c0,0,13.8,7.5,31-0.9c9.1-4.4,19.6-10.7,27.5-15.6
			c7.9-4.9,13.7-12.6,16-21.5c3-11.8,1.2-22.1,1.2-33.3l35.5-11C1489.2,1847.1,1499.9,1843,1496.3,1831z"/>
		<path fill="#FCA17D" d="M1278.3,2105.4c-7.4-48.7-24.3-77.7-34.7-91.6c-45.3,20.4-104.1,27-179.1,1c-6.9-2.4-14.1-3.8-21.4-4.2
			c-39.9-2.3-171.4-6.6-280.3,29.3c-22.9,7.6-41.5,24.5-51,46.4c-29.4,67.6-77.1,221.4,55.2,299.1c10.2-25.2,21.9-45.5,31.9-60.4
			c-21.3-35.9-27.6-85,10.2-149c27.6,74.4,40.5,183.1,43.2,231.2c0.9,15.8-1.9,31.6-8.1,46.2l-0.7,1.6c-1.3,3.1,0.5,6.7,3.8,7.5
			c74.5,16.7,152,12.2,175.1,10.3c4.1-0.3,7.6-3.3,8.5-7.3c36.2-152.6,36.3-256.7,27.4-322.5
			C1092.3,2150.6,1195.9,2166.7,1278.3,2105.4z"/>
		<linearGradient id="SVGID_27_" gradientUnits="userSpaceOnUse" x1="1028.0035" y1="2097.1978" x2="1062.6671" y2="2097.1978">
			<stop  offset="0" style="stop-color:#FF928E"/>
			<stop  offset="1" style="stop-color:#FE7062"/>
		</linearGradient>
		<path fill="url(#SVGID_27_)" d="M1058.6,2148.2c0.2,0,0.4,0,0.6,0c2.2-0.3,3.8-2.4,3.5-4.6c-8.7-66-26.3-94.3-27-95.5
			c-1.2-1.9-3.8-2.5-5.7-1.3c-1.9,1.2-2.5,3.8-1.3,5.7c0.2,0.3,17.4,28.2,25.9,92.1C1054.8,2146.7,1056.5,2148.2,1058.6,2148.2z"/>
		
			<linearGradient id="SVGID_28_" gradientUnits="userSpaceOnUse" x1="-4201.2651" y1="2101.1216" x2="-4177.1162" y2="1974.3407" gradientTransform="matrix(1 0 0 1 5088.2163 0)">
			<stop  offset="0" style="stop-color:#FEBBBA"/>
			<stop  offset="1" style="stop-color:#FF928E"/>
		</linearGradient>
		<path fill="url(#SVGID_28_)" d="M874.7,1921.7c0,0-7.5,79.7-14.2,103.2c-1,3.6,0.5,7.3,3.8,9.2c11.3,6.4,38.3,16.9,75.2-1.2
			c6-2.9,9.6-9.2,9.3-15.8l-3.3-77L874.7,1921.7z"/>
		<linearGradient id="SVGID_29_" gradientUnits="userSpaceOnUse" x1="1897.1674" y1="1292.6985" x2="1588.3496" y2="1668.65">
			<stop  offset="0" style="stop-color:#FEBBBA"/>
			<stop  offset="1" style="stop-color:#FF928E"/>
		</linearGradient>
		<path fill="url(#SVGID_29_)" d="M1396.4,1922.1c1.2,0,2.4-0.5,3.2-1.5c9.9-12.2,26.8-31.6,32.7-34.9c5.2-2.9,8.1-6.2,9-10
			c0.8-3.3,0-6.7-2.4-10.2c-0.9-1.4-2.5-2.1-4.2-1.7l-30.1,6c-0.7,0.1-1.3,0.5-1.9,0.9l-16,13.8c-1.7,1.5-1.9,4.1-0.4,5.8
			c1.5,1.7,4.1,1.9,5.8,0.4l15.2-13l26-5.2c0.2,0.7,0.1,1.1,0,1.3c-0.3,1.4-2.1,3.1-5.1,4.8c-9.1,5.1-32.4,33.6-35,36.8
			c-1.4,1.8-1.2,4.4,0.6,5.8C1394.5,1921.8,1395.5,1922.1,1396.4,1922.1z"/>
		
			<linearGradient id="SVGID_30_" gradientUnits="userSpaceOnUse" x1="-4098.3809" y1="2238.6709" x2="-4177.4443" y2="2357.2659" gradientTransform="matrix(1 0 0 1 5088.2163 0)">
			<stop  offset="0" style="stop-color:#FEBBBA"/>
			<stop  offset="1" style="stop-color:#FF928E"/>
		</linearGradient>
		<path fill="url(#SVGID_30_)" d="M881.8,2439.9l108.8-2.4c0,0-94.8-26.8-100.7-19.5c0,0-58.8-38.6-91-93
			c-10,14.9-21.8,35.2-31.9,60.4C795.8,2402.5,833.8,2431.9,881.8,2439.9z"/>
		
			<linearGradient id="SVGID_31_" gradientUnits="userSpaceOnUse" x1="784.2195" y1="2257.8262" x2="706.7474" y2="2374.0342" gradientTransform="matrix(-1 0 0 1 1616.3335 0)">
			<stop  offset="0" style="stop-color:#FEBBBA"/>
			<stop  offset="1" style="stop-color:#FF928E"/>
		</linearGradient>
		<path fill="url(#SVGID_31_)" d="M878.8,2421.1c0,0-2.2,43.3,54.6,37c30.9-3.4,80.8-32.2,80.8-32.2S884.2,2425.5,878.8,2421.1z"/>
		<g>
			
				<linearGradient id="SVGID_32_" gradientUnits="userSpaceOnUse" x1="1730.1133" y1="2504.4917" x2="1512.2466" y2="2564.2034" gradientTransform="matrix(-0.9988 -4.940000e-002 -4.940000e-002 0.9988 2706.9492 -55.0328)">
				<stop  offset="0" style="stop-color:#09005D"/>
				<stop  offset="1" style="stop-color:#1A0F91"/>
			</linearGradient>
			<path fill="url(#SVGID_32_)" d="M901.1,2432.7c0.2,0,0.4,0,0.6,0l270.4-0.3c6.7,0,12.1-5.4,12.1-12c0-6.6-5.5-12.1-12.1-12
				l-270.4,0.3c-6.7,0-12.1,5.4-12.1,12C889.6,2427.2,894.7,2432.4,901.1,2432.7z"/>
			
				<linearGradient id="SVGID_33_" gradientUnits="userSpaceOnUse" x1="1514.8425" y1="2221.9619" x2="1361.1652" y2="2384.3894" gradientTransform="matrix(-1 0 0 1 2665.4802 0)">
				<stop  offset="0" style="stop-color:#09005D"/>
				<stop  offset="1" style="stop-color:#1A0F91"/>
			</linearGradient>
			<path fill="url(#SVGID_33_)" d="M1415.2,2189.8H1190c-16.6,0-31.7,9.5-38.8,24.4l-104.1,218.4h279.9c10.7,0,20.3-6.5,24.3-16.3
				l80.7-202.1C1436.6,2202.4,1427.9,2189.8,1415.2,2189.8z"/>
			
				<linearGradient id="SVGID_34_" gradientUnits="userSpaceOnUse" x1="1421.656" y1="2262.5591" x2="1352.1891" y2="2367.1682" gradientTransform="matrix(-1 0 0 1 2665.4802 0)">
				<stop  offset="0" style="stop-color:#4F52FF"/>
				<stop  offset="1" style="stop-color:#4042E2"/>
			</linearGradient>
			<path fill="url(#SVGID_34_)" d="M1256.5,2301.8c-4.9,15-1.3,29.6,8.1,32.5c9.3,3,20.8-6.8,25.7-21.8c4.9-15,1.3-29.6-8.1-32.5
				C1272.9,2277,1261.4,2286.8,1256.5,2301.8z"/>
		</g>
		<g>
			
				<linearGradient id="SVGID_35_" gradientUnits="userSpaceOnUse" x1="1946.413" y1="2191.8376" x2="1800.9152" y2="2384.3193" gradientTransform="matrix(0.8485 -0.5291 0.5291 0.8485 -1871.2408 996.9384)">
				<stop  offset="0" style="stop-color:#FEBBBA"/>
				<stop  offset="1" style="stop-color:#FF928E"/>
			</linearGradient>
			<path fill="url(#SVGID_35_)" d="M963.8,1811c1,1.6,27.8,125.6,27.8,125.6l-71.1,13.8l-42.9-113.7
				C877.6,1836.7,946.8,1783.8,963.8,1811z"/>
			
				<linearGradient id="SVGID_36_" gradientUnits="userSpaceOnUse" x1="1835.2944" y1="2238.2688" x2="2009.0944" y2="2238.2688" gradientTransform="matrix(0.8485 -0.5291 0.5291 0.8485 -1871.2408 996.9384)">
				<stop  offset="0" style="stop-color:#09005D"/>
				<stop  offset="1" style="stop-color:#1A0F91"/>
			</linearGradient>
			<path fill="url(#SVGID_36_)" d="M903.1,1855.1l17.9,61.6c0.2,0.8,0.6,1.5,1,2.2c2.7,4.3,12.9,18.3,26.6,7
				c12.5-10.3,24-19.5,34.2-20.7c4.6-0.5,8.8,2.5,9.8,7c2.4,11.3,7.4,36.7,8.4,59.5c0.2,4.6-3.2,8.6-7.8,9.2
				c-13.8,1.8-43.1,4.8-67.3,1.7c-3.3-0.4-6-2.6-7.2-5.6c-5.8-15-23.8-60.4-30.7-72.3c-6.5-11.2-24.1-11.9-31.4-11.6
				c-2.4,0.1-4.7-0.8-6.5-2.5c-6.1-6-17.5-21.1,0.7-37.3c3.8-3.4,4-9.2,0.5-12.9c-7-7.4-14.2-20.1-1-34.7
				c13.4-14.8,29.8-11.4,39.7-7.1c4,1.7,8.6,0.3,11-3.4c1.4-2.1,3.7-3.5,7.5-3c5.1,0.7,9.7-3.3,9.9-8.5c0.4-10,4.7-22.3,22.2-26.7
				c31.2-7.8,48.6,22.9,49.2,45.1c0.6,22.2-33.6,28.7-53.4,26.1c-15-2-27.1,12.3-32,19.3C902.8,1849.7,902.3,1852.5,903.1,1855.1z"
				/>
			
				<linearGradient id="SVGID_37_" gradientUnits="userSpaceOnUse" x1="1733.3153" y1="2344.2678" x2="1850.017" y2="2224.5352" gradientTransform="matrix(0.8485 -0.5291 0.5291 0.8485 -1871.2408 996.9384)">
				<stop  offset="0" style="stop-color:#FEBBBA"/>
				<stop  offset="1" style="stop-color:#FF928E"/>
			</linearGradient>
			<path fill="url(#SVGID_37_)" d="M894.7,1927.2c0,0-2.8-38.6-18.6-41.4c-15.8-2.8-32.1,9.4-17.5,31.8
				C876.8,1945.5,894.7,1927.2,894.7,1927.2z"/>
		</g>
	</g>
</g>
</svg>
