<?xml version="1.0" encoding="utf-8"?>
<!-- Generator: Adobe Illustrator 17.1.0, SVG Export Plug-In . SVG Version: 6.00 Build 0)  -->
<!DOCTYPE svg PUBLIC "-//W3C//DTD SVG 1.1//EN" "http://www.w3.org/Graphics/SVG/1.1/DTD/svg11.dtd">
<svg version="1.1" xmlns="http://www.w3.org/2000/svg" xmlns:xlink="http://www.w3.org/1999/xlink" x="0px" y="0px"
	 viewBox="0 0 3710 3710" enable-background="new 0 0 3710 3710" xml:space="preserve">
<g id="Background">
</g>
<g id="Illustration">
	<g>
		<linearGradient id="SVGID_1_" gradientUnits="userSpaceOnUse" x1="3592.8823" y1="4076.4478" x2="1116.3723" y2="1000.7776">
			<stop  offset="0" style="stop-color:#DAE3FE"/>
			<stop  offset="1" style="stop-color:#E9EFFD"/>
		</linearGradient>
		<path fill="url(#SVGID_1_)" d="M2911.6,2863.5c-56.9,59.9-110.7,98.5-153.2,129c-499.9,358.7-1091.4,254.1-1217.1,228.6
			c-185.6-37.7-544.4-110.6-803.9-415.7c-392.5-461.5-331.4-1188.7-26.9-1668.7c55.7-87.8,349.8-575.1,947.7-653.3
			c361.8-47.3,783.6,48.1,1089,304C3388.3,1324.6,3342.6,2409.7,2911.6,2863.5z"/>
		<g>
			<path fill="#BDD0FB" d="M680.8,473.8c-0.7-14.1,20-19.5,29.9-7.9c100.3,117.9,330.8,458,166.4,946.4
				c-206.3,612.8-97.3,870.8,65.6,1046.2c0,0-247.3-114.3-367.1-377.8C281.4,1433.7,692.4,724.7,680.8,473.8z"/>
			<path fill="#FFFFFF" d="M734.1,687.2c1.7,72.8,1.8,145.6-1.2,218.1c-2.6,72.5-7.6,144.8-15.3,216.8
				c-8,71.9-17.5,143.6-30.6,214.6c-12.7,71.1-28.9,141.5-45.4,212.2c-16.1,70.7-32.7,141.8-41,215c-8.3,73-6.7,148.6,10.7,222.4
				c4.4,18.4,9.1,36.8,15,54.8c5.6,18.1,12,36.1,18.9,54c13.9,35.7,30.4,70.8,49.8,104.8c39,67.9,89.6,131.1,147.7,187.5
				c6.1,5.9,16.3,6.7,22.8,1.6c6.4-4.9,6.8-13.6,1-19.5l0,0c-13.7-14-27.3-28.2-40-42.8c-6.5-7.2-12.7-14.7-19-22
				c-6-7.5-12.3-14.9-18.1-22.5c-23.5-30.3-44.6-62-63-94.7c-37.1-65.2-63.6-135.1-80.3-205.6c-7.9-35.3-12.9-70.9-14.7-106.6
				c-1.8-35.7-0.4-71.4,3.3-107c7.4-71.2,23.2-141.7,38.7-212.5c15.4-70.8,30.3-142.2,41.8-214.1c5.8-35.9,10.9-72,15.3-108.1
				c2.3-18.1,4.2-36.2,6.1-54.3c1.7-18.1,3.3-36.3,4.8-54.4c5.6-72.6,8.7-145.5,9.1-218.5c0-73-2.2-146-7.7-219.1
				c-0.2-2.1-2.2-3.8-4.6-3.7C735.8,683.6,734,685.2,734.1,687.2z"/>
		</g>
		<g>
			<g>
				<path fill="#91B3FA" d="M705.9,1789.3c-17.4,12.7-42,3.5-47.2-17.4c-28.3-115.2-78.8-448.1,168.2-774.7
					c208.6-275.8,295.5-445.2,329.6-524.8c7.2-16.8,31.7-14.7,35.9,3.2C1238.7,672.3,1335.1,1330.1,705.9,1789.3z"/>
				<path fill="#FFFFFF" d="M681.6,1773.2c-0.5,0-1.1-0.1-1.6-0.2c-4.5-0.9-7.5-5.3-6.6-9.9c1-5.2,107.4-519.6,380.2-916.1
					c2.6-3.8,7.8-4.8,11.7-2.2c3.8,2.6,4.8,7.9,2.2,11.7c-270.7,393.7-376.5,904.8-377.5,909.9
					C689.1,1770.5,685.6,1773.2,681.6,1773.2z"/>
			</g>
		</g>
		<g>
			
				<ellipse transform="matrix(0.999 4.385777e-002 -4.385777e-002 0.999 83.1142 -81.7287)" fill="#7D97F4" cx="1904.2" cy="1853.3" rx="1343.5" ry="1244.7"/>
			<path fill="#91B3FA" d="M890.6,1028.7c-29.5,47.3-52.2,100.6-48,156.3c4.9,64.4,37.5,124.7,39.2,189.3
				c2.8,109.5-81.7,201.1-108.1,307.5c-29.5,118.8,81.6,254.2,125.9,320.5c44.3,66.3,25.2-53.8,52.1-100.7
				c26.8-46.8,84.7,197.1,175.2,250.7c48.5,28.7,105.4,47.9,140.3,92.1c50.9,64.6,36.8,156.5,29.1,238.4
				c-7.6,81.9,3.8,181.7,77.5,218.1c43.4,21.4,98.6,14.2,137.8,42.6c68.8,50,35.9,158.9,63.2,239.4c29.7,87.6,88.4,88.7,179.4,107.3
				c91,18.6-11.5-181.3,31.2-251.1c22.4-36.7,56.6-65.9,74.3-105.1c24.5-54.4,17.6-127,65.1-163.1c35.6-27,85.2-19.7,129.9-20.1
				c44.7-0.4,99.1-19.8,104.1-64.2c4.5-39.4-35-70.8-73.6-80s-79.7-4.8-117.6-16.5c-108.4-33.4-159-185.1-272.2-192.2
				c-96.8-6.1-177.9,102.6-273,83.6c-53-10.6-89.3-57.5-128.7-94.6c-50.6-47.6-113.3-83.4-153.4-140c-40.1-56.7-47-147.3,10.1-186.8
				c42.4-29.4,102.7-17.4,144.6,12.6c41.9,30.1,70.4,74.8,101.2,116.2c9.5,12.8,20.3,26,35.5,30.8c40.9,12.8,70.8-44.8,61-86.5
				s-39.3-78.5-40.7-121.3c-2.4-75.5,78.9-123.5,150.3-148.3c71.4-24.9,155.5-54.6,176.4-127.2c7.4-25.6,5.5-53.9,16.8-78
				c37.5-80.1,235.3-120.1,188-166.6c-47.3-46.5-197.3-56.6-226.5-150.1c-10.5-33.5-21.2-77.8-56.2-81
				c-56.9-5.3-89.4,65.2-137.2,77.3c-22.7,5.7-24.8,44.2-24,91.6c0.6,34.4-26.7,62.7-61.1,63.4c-34.4,0.7-62.8-26.7-63.4-61
				c-0.2-12.8,2-25.6,7.2-38.5c9.2-22.5,26.7-40.6,44.3-57.4c73.4-70.1,292.6-147.2,246.7-177c-45.9-29.8-266.1-112.2-299-66.8
				c-32.9,45.5,21.5,7,34.7,60.9s-162.9,46.7-244.4,70c-13.5,3.9-28.4,7.6-41,1.5c-14.1-6.8-20-23.2-27.6-36.8
				c-40.9-73.1-177-25.6-177-25.6S917,986.4,890.6,1028.7z"/>
			<path fill="#91B3FA" d="M1506.1,697c-19.8,36.9,39,36.3,44.9,77.7c53,5.8,74.7-77.7,127.1-87.5c29.6-5.5,58.2,15.7,74.3,41.1
				c16.1,25.4,23.6,55.2,37.2,82c30.5,60.1,93.5,102.3,160.6,107.8c14.6,1.2,30.7,0.3,41.7-9.4c31.9-28.1-13.7-81-1.9-121.8
				c13.6-46.7,80.9-39.6,126.4-56.7c12.5-4.7,109.1-30.5,110.6-43.8c2.8-23.6-42-38.6-92.1-51.5c-84.9-21.8-234.2-20.9-307.2-14.3
				C1730.5,629.4,1568.7,622.3,1506.1,697L1506.1,697z"/>
			<g>
				<path fill="#91B3FA" d="M3125.3,2282.7c22-137.7,20.2-279.2-5.4-416.4c-6.8-36.6-22.8-80.2-59.6-85.4
					c-42.6-6.1-94.8,42.9-121.4,9.1c-11.8-14.9-7.1-36.6-0.4-54.4c17.6-46.9,45.1-90.1,80.3-125.8c21.8-22.2,46.8-41.9,63.6-68.1
					c35.9-56,10.7-137.9-40.2-180.8c-50.9-42.9-116.5,34.1-170,3.5c-53.5-30.6-55.1-104.7-65.2-165.5c-7.4-45-40.6-167-77.2-107.6
					c-36.6,59.4,48.9,295.8,145.1,409.2c11.6,13.7,24.4,29,23.4,46.9c-2.3,42.8-64.7,40.9-106.6,49.6c-51.9,10.8-131.4-17-87.5,73.5
					c23.1,47.7,133.7,113,104,144.9s-121.1,124.4-163.9,199.1c-42.9,74.8-63.6,167.9-31.3,247.7c32.3,79.9,129.5,135,208.8,101.4
					c37.1-15.8,77.6-48.5,112.1-27.6c31.3,18.9,26.6,64.3,25.1,100.7c-1.5,36.5,19.5,84.9,55,76.4c11.7-2.8,20.9-11.7,28.8-20.7
					C3092.8,2434.9,3113.3,2357.9,3125.3,2282.7z"/>
			</g>
			<ellipse opacity="0.18" fill="#FFFFFF" cx="1831.4" cy="1763.5" rx="1054.3" ry="995.9"/>
			<g opacity="0.68">
				<path fill="#FFFFFF" d="M2278.9,1874.7c-0.3,219.4-15.3,439.3-53.8,655.7c-9.7,54-21,107.8-34.5,161.1
					c-13.5,53.2-29.1,106-48.2,157.6c-9.6,25.8-20.1,51.3-31.9,76.2c-11.8,24.9-24.9,49.2-40.1,72.3c-15.3,23-32.6,45-54,63.1
					c-10.7,9-22.4,16.9-35.2,22.8c-12.8,5.8-26.8,9.4-41.1,9.7c-14.2,0.4-28.4-2.4-41.5-7.7c-13.1-5.2-25.1-12.8-36.1-21.5
					c-21.9-17.5-39.6-39.3-55.1-62.1c-15.5-22.9-28.8-47.2-40.8-72c-12-24.8-22.6-50.2-32.3-76c-19.4-51.5-35.1-104.2-48.8-157.5
					c-13.6-53.2-25-107-34.9-161c-19.6-108.1-33-217.2-41.9-326.6c-8.9-109.4-13.3-219.2-13.8-329c-0.2-54.9,1.1-109.8,3-164.6
					c2-54.8,4.9-109.7,8.9-164.4c8-109.5,20-218.7,37.9-327c9-54.2,19.5-108.1,32.1-161.5c12.7-53.4,27.4-106.4,45.6-158.3
					c9.2-25.9,19.2-51.5,30.7-76.5c11.4-25,24.2-49.5,39.3-72.6c15.1-23,32.4-45,54-62.6c10.8-8.7,22.6-16.3,35.6-21.4
					c12.9-5.2,27-7.8,41-7.3c14,0.4,27.8,3.9,40.5,9.5c12.7,5.6,24.5,13.3,35.2,22c21.5,17.5,39.3,39,55.2,61.5
					c15.8,22.6,29.5,46.5,41.9,71.1c12.4,24.5,23.5,49.7,33.7,75.2c20.4,51.1,37.2,103.4,51.8,156.4c14.6,53,26.9,106.5,37.6,160.4
					C2261.2,1435.3,2278.3,1655.2,2278.9,1874.7z M2266.1,1874.7c0.2-109.4-4.1-218.9-13.2-327.9c-9.1-109-22.8-217.8-43.1-325.3
					c-10.2-53.8-22-107.2-36.1-160.1c-14.1-52.8-30.4-105.1-50.2-156.1c-9.9-25.4-20.7-50.6-32.9-75c-12.1-24.5-25.5-48.3-40.9-70.8
					c-15.4-22.4-32.8-43.7-53.7-61c-10.4-8.6-21.8-16.2-34.1-21.7c-12.3-5.5-25.5-9.1-39-9.5c-13.4-0.4-26.9,2.2-39.3,7.4
					c-12.5,5-23.9,12.5-34.4,21.1c-20.9,17.3-37.8,39-52.5,61.9c-14.7,23-27.1,47.3-38.3,72.2c-11.1,24.9-20.9,50.5-29.8,76.3
					c-17.7,51.7-31.9,104.6-44.1,157.9c-12.1,53.3-22.1,107.2-30.6,161.2c-16.9,108.1-27.9,217.1-35,326.4
					c-7.1,109.2-9.7,218.7-9.5,328.2c-0.2,109.4,3.5,218.9,11.8,328c8.3,109.1,20.9,217.9,39.8,325.7
					c9.5,53.9,20.5,107.5,33.7,160.5c13.3,53,28.6,105.6,47.5,156.8c9.5,25.6,19.8,50.9,31.5,75.5c11.7,24.6,24.7,48.6,39.8,71.2
					c15.1,22.5,32.3,43.8,53.3,60.8c10.4,8.4,21.8,15.7,34.2,20.7c12.3,5,25.5,7.8,38.7,7.3c13.2-0.3,26.3-3.8,38.3-9.3
					c12.1-5.6,23.2-13.2,33.5-21.9c20.5-17.5,37.3-39.1,52.2-61.8c14.8-22.8,27.6-46.9,39.1-71.6c11.5-24.7,21.7-50,31.1-75.7
					c18.7-51.3,33.9-103.9,47-157c13.1-53.1,24-106.7,33.4-160.6c18.7-107.8,31.2-216.6,39.5-325.8
					C2262.3,2093.6,2266.2,1984.1,2266.1,1874.7z"/>
				<path fill="#FFFFFF" d="M2832.4,1874.7c-0.3,70.6-4.7,141.2-14.1,211.2c-9.4,70-23.5,139.4-42.4,207.4
					c-38.2,135.9-96,266.7-174.6,384.2c-39.3,58.7-83.9,113.9-133.7,163.9c-49.8,50.1-104.9,95-164.7,132.6
					c-59.8,37.6-124.4,67.7-192,88.2c-67.7,20.3-138.3,30.9-208.9,30.8c-70.6,0.1-141.3-10.4-209-30.7
					c-67.7-20.4-132.3-50.6-192.1-88.1c-59.8-37.6-115-82.5-164.8-132.5c-49.9-50.1-94.5-105.3-133.9-163.9
					c-78.7-117.5-136.6-248.3-175-384.3c-19-68.1-33.2-137.5-42.6-207.5c-9.4-70.1-13.8-140.7-14-211.4
					c0.3-70.7,4.7-141.3,14.1-211.4c9.5-70,23.7-139.4,42.7-207.5c38.4-135.9,96.4-266.7,175.2-384.1
					c39.4-58.6,84-113.8,133.9-163.8c49.8-50,105-94.8,164.8-132.3c59.8-37.5,124.4-67.4,192-87.9c67.6-20.3,138.1-30.8,208.7-30.8
					c70.6,0,141.1,10.6,208.7,30.9c67.6,20.5,132.1,50.5,191.9,88c59.8,37.6,114.8,82.4,164.6,132.4c49.8,50,94.4,105.2,133.7,163.8
					c78.7,117.3,136.5,248.1,174.8,384c19,68,33,137.4,42.5,207.4C2827.6,1733.4,2832.1,1804.1,2832.4,1874.7z M2817.8,1874.7
					c0-70-4.2-140-13.4-209.4c-9.1-69.4-22.8-138.2-41.4-205.7c-37.1-134.9-93.1-265.1-170.2-382.1
					c-38.5-58.5-82.3-113.5-131.3-163.6c-49-50-103.2-95.1-162.4-132.6c-59.2-37.4-123.1-67.6-190.1-88.1
					c-67-20.3-137-30.8-207.1-30.9c-70.1,0.2-140,10.8-207,31.1c-67,20.5-130.8,50.7-190,88.2c-59.1,37.6-113.2,82.7-162.2,132.7
					c-48.9,50-92.6,105.1-131.1,163.6c-77,117-132.9,247.2-169.9,382c-36.8,135-54.7,275-54.7,414.9c0,139.9,18,279.8,54.9,414.8
					c37,134.8,93.1,264.9,170.1,381.8c38.5,58.4,82.2,113.4,131.1,163.4c49,49.9,103.1,95,162.1,132.5
					c59.1,37.4,122.9,67.5,189.8,88c66.9,20.3,136.8,31,206.8,31.2c70-0.2,139.9-10.8,206.8-31c66.9-20.4,130.8-50.5,190-87.9
					c59.1-37.5,113.3-82.5,162.3-132.4c49-50,92.8-105,131.3-163.4c77.1-116.9,133.2-247.1,170.4-381.9
					c18.6-67.5,32.3-136.3,41.5-205.7C2813.5,2014.7,2817.7,1944.7,2817.8,1874.7z"/>
				<path fill="#FFFFFF" d="M813.9,1392.4l280-1.8l280-1l560-0.8l560,0.9l280,1.1l280,1.9c0.4,0,0.6,0.3,0.6,0.6
					c0,0.4-0.3,0.6-0.6,0.6l-280,1.9l-280,1.1l-560,0.9l-560-0.8l-280-1l-280-1.8c-0.5,0-1-0.4-1-1
					C813,1392.9,813.4,1392.4,813.9,1392.4z"/>
				<path fill="#FFFFFF" d="M1138.8,923.4l198.8-1.8l198.8-1c66.3-0.4,132.5-0.4,198.8-0.5l198.8-0.3l397.6,0.9l198.8,1.1l198.8,1.9
					c0.4,0,0.6,0.3,0.6,0.7c0,0.4-0.3,0.6-0.6,0.6l-198.8,1.9l-198.8,1.1l-397.6,0.9l-198.8-0.3c-66.3-0.1-132.5-0.1-198.8-0.5
					l-198.8-1l-198.8-1.8c-0.5,0-1-0.4-1-1C1137.8,923.8,1138.3,923.4,1138.8,923.4z"/>
				<path fill="#FFFFFF" d="M716.6,1861.4l304.4-1.8l304.3-1l608.7-0.8l608.7,0.9l304.4,1.1l304.4,1.9c0.4,0,0.6,0.3,0.6,0.6
					c0,0.4-0.3,0.6-0.6,0.6l-304.4,1.9l-304.4,1.1L1934,1867l-608.7-0.8l-304.3-1l-304.4-1.8c-0.5,0-1-0.4-1-1
					C715.6,1861.9,716.1,1861.5,716.6,1861.4z"/>
				<path fill="#FFFFFF" d="M813.9,2330.5l280-1.8l280-1l560-0.8l560,0.9l280,1.1l280,1.9c0.4,0,0.6,0.3,0.6,0.6
					c0,0.4-0.3,0.6-0.6,0.6l-280,1.9l-280,1.1l-560,0.9l-560-0.8l-280-1l-280-1.8c-0.5,0-1-0.4-1-1
					C813,2330.9,813.4,2330.5,813.9,2330.5z"/>
				<path fill="#FFFFFF" d="M2769.3,2803.8H1178.8c-1.9,0-3.4-1.5-3.4-3.4c0-1.9,1.5-3.4,3.4-3.4h1590.5c1.9,0,3.4,1.5,3.4,3.4
					C2772.7,2802.3,2771.2,2803.8,2769.3,2803.8z"/>
			</g>
		</g>
		<g>
			<path fill="#FFFFFF" d="M1935.5,1648.7c-190.6-34.3-373.7-111.5-516.2-219.3l12.2-7.2c170.3,128.9,399.7,213,629.3,230.9
				c229.7,17.9,458.4-30.7,627.5-133.2c74.2-45,132.2-96.8,172.5-154l16,6.4c-41.1,58.4-100.2,111.2-175.8,157
				c-172.3,104.5-405.4,153.9-639.6,135.7C2019.3,1661.7,1977.2,1656.2,1935.5,1648.7z"/>
			<path fill="#FFFFFF" d="M2861.6,1742c-34.5-57.9-53.2-112.9-55.8-164.3c-6.6-129.4,93.4-190.5,94.4-191.1l6,10
				c-1,0.6-97.5,59.7-91.1,183.8c4.3,84.2,54.1,178.9,148.1,281.4l-5.1,6.9C2918.1,1825,2885.9,1782.8,2861.6,1742z"/>
			<path fill="#FFFFFF" d="M1368.9,1408.9c-7.2,2.4-13.9,2.4-19.3-0.3l5.7-7.1c10.9,5.4,27.9-10.1,31.2-13.3
				c73.1-69.8,125.5-147.3,151.5-224.2c28.8-85,25.3-169.6-9.8-238.4l9-4c35.9,70.3,39.5,156.8,10.1,243.6
				c-26.5,78.2-79.7,157-153.9,227.9C1385,1400.9,1376.6,1406.3,1368.9,1408.9z"/>
			<path fill="#FFFFFF" d="M2708.8,2300.7l-10.9-1c1.7-40.5,17.7-78,34.7-112.5c44.1-89.6,99.5-171.9,164.7-244.8
				c24.7-27.6,52.2-55.5,86.6-72.6l4.9,10.6c-32.8,16.3-59.6,43.4-83.5,70.3c-64.5,72.2-119.3,153.7-163,242.4
				C2725.8,2226.3,2710.4,2262.4,2708.8,2300.7z"/>
			<linearGradient id="SVGID_2_" gradientUnits="userSpaceOnUse" x1="1412.1619" y1="1292.9775" x2="1037.4666" y2="2502.7051">
				<stop  offset="0" style="stop-color:#FE7062"/>
				<stop  offset="1" style="stop-color:#FF928E"/>
			</linearGradient>
			<circle fill="url(#SVGID_2_)" cx="1384.3" cy="1383.1" r="81.9"/>
			<linearGradient id="SVGID_3_" gradientUnits="userSpaceOnUse" x1="2905.9275" y1="1306.0763" x2="2531.2322" y2="2515.8037">
				<stop  offset="0" style="stop-color:#FE7062"/>
				<stop  offset="1" style="stop-color:#FF928E"/>
			</linearGradient>
			<circle fill="url(#SVGID_3_)" cx="2876.7" cy="1400.4" r="81.9"/>
			<linearGradient id="SVGID_4_" gradientUnits="userSpaceOnUse" x1="1508.5974" y1="878.4706" x2="1133.902" y2="2088.1985">
				<stop  offset="0" style="stop-color:#FE7062"/>
				<stop  offset="1" style="stop-color:#FF928E"/>
			</linearGradient>
			<circle fill="url(#SVGID_4_)" cx="1494.6" cy="923.7" r="81.9"/>
			<linearGradient id="SVGID_5_" gradientUnits="userSpaceOnUse" x1="2742.9802" y1="2234.854" x2="2368.2847" y2="3444.582">
				<stop  offset="0" style="stop-color:#FE7062"/>
				<stop  offset="1" style="stop-color:#FF928E"/>
			</linearGradient>
			<circle fill="url(#SVGID_5_)" cx="2720.8" cy="2306.6" r="81.9"/>
			<linearGradient id="SVGID_6_" gradientUnits="userSpaceOnUse" x1="3010.5566" y1="1790.5759" x2="2635.8613" y2="3000.304">
				<stop  offset="0" style="stop-color:#FE7062"/>
				<stop  offset="1" style="stop-color:#FF928E"/>
			</linearGradient>
			<circle fill="url(#SVGID_6_)" cx="2988.3" cy="1862.3" r="81.9"/>
		</g>
		<g>
			<g>
				<g>
					<g>
						
							<linearGradient id="SVGID_7_" gradientUnits="userSpaceOnUse" x1="1560.7532" y1="1675.4114" x2="2097.249" y2="1860.4099" gradientTransform="matrix(0.994 0.1092 -0.1092 0.994 466.3754 45.8821)">
							<stop  offset="0" style="stop-color:#A22B25"/>
							<stop  offset="1" style="stop-color:#C0423C"/>
						</linearGradient>
						<path fill="url(#SVGID_7_)" d="M2285.6,1960.5c-31.8-21.9-90.3,39.1-90.3,39.1s-153.2,8.4-200.1-8.5
							c-46.9-16.9-39.6-201.2-39.6-201.2s-148.6-74-132.8,164.2c13.7,206.7,368,86.1,368,86.1s88.9,13.5,112.6-2.3
							C2327.1,2022.1,2317.4,1982.4,2285.6,1960.5z"/>
						
							<linearGradient id="SVGID_8_" gradientUnits="userSpaceOnUse" x1="1593.7603" y1="1586.3053" x2="2127.9202" y2="1770.4984" gradientTransform="matrix(0.994 0.1092 -0.1092 0.994 466.3754 45.8821)">
							<stop  offset="0" style="stop-color:#A22B25"/>
							<stop  offset="1" style="stop-color:#C0423C"/>
						</linearGradient>
						<path fill="url(#SVGID_8_)" d="M2204.7,1991.6c0,0,15.1-39.6,48.4-45.4c33.3-5.8,32.3,0.5,26.6,8.9
							C2274.1,1963.6,2215.7,2011.6,2204.7,1991.6z"/>
						<path fill="#275DAD" d="M1995.2,1991.1c-46.9-16.9-9.6-212.2-9.6-212.2s-172.6-63.4-162.8,175.2
							c4.5,110,124.5,130.6,217.9,121.1c4.7-31.1,3.2-45.1,13.9-75C2047.7,1998.9,2000.1,1992.9,1995.2,1991.1z"/>
					</g>
					<g>
						
							<linearGradient id="SVGID_9_" gradientUnits="userSpaceOnUse" x1="-2811.5627" y1="1370.7068" x2="-2509.637" y2="621.9324" gradientTransform="matrix(0.8608 0.5089 -0.5089 0.8608 4884.1777 2577.5925)">
							<stop  offset="0" style="stop-color:#09005D"/>
							<stop  offset="1" style="stop-color:#1A0F91"/>
						</linearGradient>
						<path fill="url(#SVGID_9_)" d="M2097.8,1901.5l18,204.9c1.2,13.5,13.2,23.5,26.7,22.2l135.2-12.6
							c14.6-1.4,24.7-15.2,21.5-29.5l-46.7-210.8c-2.8-12.8-15.2-21.1-28.1-18.8l-106.5,18.5
							C2105.5,1877.6,2096.7,1888.9,2097.8,1901.5z"/>
						<circle opacity="0.26" fill="#FFFFFF" cx="2193.4" cy="1958.2" r="34.3"/>
						<path opacity="0.26" fill="#FFFFFF" d="M2151.1,2091.1l-0.7-6.6c0-0.4,0.3-0.8,0.7-0.9l106.9-11c0.4,0,0.8,0.3,0.9,0.7
							l0.7,6.6c0,0.4-0.3,0.8-0.7,0.9l-106.9,11C2151.5,2091.8,2151.1,2091.5,2151.1,2091.1z"/>
						<path opacity="0.26" fill="#FFFFFF" d="M2149,2071.3l-0.7-6.6c0-0.4,0.3-0.8,0.7-0.9l106.9-11c0.4,0,0.8,0.3,0.9,0.7l0.7,6.6
							c0,0.4-0.3,0.8-0.7,0.9l-106.9,11C2149.5,2072,2149.1,2071.7,2149,2071.3z"/>
					</g>
					
						<linearGradient id="SVGID_10_" gradientUnits="userSpaceOnUse" x1="2027.7386" y1="1764.3662" x2="2353.1377" y2="2040.6481" gradientTransform="matrix(0.994 0.1092 -0.1092 0.994 466.3754 45.8821)">
						<stop  offset="0" style="stop-color:#A22B25"/>
						<stop  offset="1" style="stop-color:#C0423C"/>
					</linearGradient>
					<path fill="url(#SVGID_10_)" d="M2280.9,1961.7c0,0-37.3-6.4-39.3,17.3c-2,23.8-8,57,12,60.7c20.1,3.7,57.1,11.6,63.4-18.9
						C2323.4,1990.3,2285.6,1951.1,2280.9,1961.7z"/>
				</g>
				<linearGradient id="SVGID_11_" gradientUnits="userSpaceOnUse" x1="2063.2324" y1="1316.3767" x2="1157.8859" y2="2317.2859">
					<stop  offset="0" style="stop-color:#E1473D"/>
					<stop  offset="1" style="stop-color:#E9605A"/>
				</linearGradient>
				<path fill="url(#SVGID_11_)" d="M1856.7,1601.5c-10.7,8.3-136.4,18.3-229.6,38.4c-67.6,14.6-113.1,78-105.4,146.7l11.1,98.3
					c1.4,12.3,14.4,19.6,25.6,14.5l263.9-120.3L1856.7,1601.5z"/>
				<linearGradient id="SVGID_12_" gradientUnits="userSpaceOnUse" x1="1846.2147" y1="1670.3646" x2="1266.9349" y2="2709.3318">
					<stop  offset="0" style="stop-color:#FF928E"/>
					<stop  offset="1" style="stop-color:#FE7062"/>
				</linearGradient>
				<path fill="url(#SVGID_12_)" d="M1839.7,2206.5h-267.4c-8.4,0-15.3-6.8-15.3-15.3v-520.8c0-12.5,10.1-22.6,22.6-22.6h260V2206.5
					z"/>
				<g>
					
						<linearGradient id="SVGID_13_" gradientUnits="userSpaceOnUse" x1="-4843.4526" y1="2857.0127" x2="-4685.2578" y2="1008.1096" gradientTransform="matrix(-0.7539 -0.657 -0.657 0.7539 -766.4053 -1937.2426)">
						<stop  offset="0" style="stop-color:#A22B25"/>
						<stop  offset="1" style="stop-color:#C0423C"/>
					</linearGradient>
					<path fill="url(#SVGID_13_)" d="M1691.6,2585.9l-29.9,49c0,0-238.8,225-328.9,319.6c-14.1,14.8-23.4,33.6-26.8,53.8
						l-17.5,105.4l-52.2-156.9l11.5-10.2l36.4-13.6l217.2-295.8c12.8-17.4,30.3-30.7,50.4-38.4l58.6-22.4L1691.6,2585.9z"/>
					<path fill="#174884" d="M1311.8,2874.2c4.9,34,28,49.9,55.9,60.9l305.4-307.1l160.3-381.1l36.7-225.9l-65.8-16.5
						c-149.5,29-169,318.2-200.8,574.5C1507.8,2577.4,1412.7,2729.6,1311.8,2874.2z"/>
					<linearGradient id="SVGID_14_" gradientUnits="userSpaceOnUse" x1="1235.7997" y1="3166.1714" x2="1313.2153" y2="2893.533">
						<stop  offset="0" style="stop-color:#09005D"/>
						<stop  offset="1" style="stop-color:#1A0F91"/>
					</linearGradient>
					<path fill="url(#SVGID_14_)" d="M1280.1,2930.6c0,0-74,11.9-56,67.2c18,55.3,45.7,157.6,81.8,137.1
						c36.1-20.4-5.3-133.8,12.9-161.9C1284.4,2946.1,1280.1,2930.6,1280.1,2930.6z"/>
				</g>
				<g>
					
						<linearGradient id="SVGID_15_" gradientUnits="userSpaceOnUse" x1="-4038.8499" y1="3626.5803" x2="-3880.6541" y2="1777.666" gradientTransform="matrix(-1 0 0 1 -2140.7312 0)">
						<stop  offset="0" style="stop-color:#A22B25"/>
						<stop  offset="1" style="stop-color:#C0423C"/>
					</linearGradient>
					<path fill="url(#SVGID_15_)" d="M1880.1,2564.6l9.6,56.6c0,0-32.2,326.5-38,457c-0.9,20.5,4.4,40.7,15.1,58.2l56,91l-142.4-84
						l-2.8-17.4l23.3-32.1l-30.5-365.7c-1.8-21.5,2.6-43,12.8-62.1l29.5-55.3L1880.1,2564.6z"/>
					<path fill="#174884" d="M1973.5,2021.1c32.9,61.3-3.2,235-82.1,590.7l-36.4,410.4c-23.1,19-47.2,25.6-72.4,19.2
						c-23.7-204.7-32.2-352.4,23.2-437.2l13.2-340.5l50.2-233.7L1973.5,2021.1z"/>
					<linearGradient id="SVGID_16_" gradientUnits="userSpaceOnUse" x1="2005.0682" y1="2932.2832" x2="1772.8323" y2="3336.1719">
						<stop  offset="0" style="stop-color:#09005D"/>
						<stop  offset="1" style="stop-color:#1A0F91"/>
					</linearGradient>
					<path fill="url(#SVGID_16_)" d="M1790.7,3108.1c0,0-62.8,64.7-15.1,79.4c47.7,14.7,171.2,63.8,178.7,39.9
						c9.4-29.8-99.4-119.3-99.4-119.3C1836.2,3117.8,1803.4,3119.3,1790.7,3108.1z"/>
				</g>
				<path fill="#275DAD" d="M1804.3,2004.6c48.7-206.4-54.1-360.6-54.1-360.6c58.6-56.3,149.6-60,191-58.4
					c14.3,0.6,27.9,5.8,39,14.8c32.9,26.7,100.5,89.7,88.3,148.7c-9.4,45.4-95.1,271.9-95.1,271.9S1894.2,2058.6,1804.3,2004.6z"/>
				<linearGradient id="SVGID_17_" gradientUnits="userSpaceOnUse" x1="1939.1417" y1="1201.0398" x2="1902.1162" y2="1695.8297">
					<stop  offset="0" style="stop-color:#A22B25"/>
					<stop  offset="1" style="stop-color:#C0423C"/>
				</linearGradient>
				<path fill="url(#SVGID_17_)" d="M1896.3,1436.4l-39.6,165.1c-3.8,15.7,10.4,20.6,26.4,22.9c37.5,5.5,65.9-8.7,70.5-35.1
					c0.4-2.3,1.7-4.4,2-6.7l17-123.3c1.3-9.8-3.9-19.3-13-23.3l-32.8-14.6C1914.2,1415.7,1899.5,1422.9,1896.3,1436.4z"/>
				<g>
					<linearGradient id="SVGID_18_" gradientUnits="userSpaceOnUse" x1="1893.3114" y1="1103.4979" x2="1956.1415" y2="1431.1124">
						<stop  offset="0" style="stop-color:#A22B25"/>
						<stop  offset="1" style="stop-color:#C0423C"/>
					</linearGradient>
					<path fill="url(#SVGID_18_)" d="M1933.3,1302.4c0,0,55.8,15.2,101.9,86.6c46.2,71.4,24.1,110.2-8.9,119.6
						c-33,9.4-83.4,15.4-143.3-26.6C1823.1,1439.8,1861.1,1285.2,1933.3,1302.4z"/>
					<linearGradient id="SVGID_19_" gradientUnits="userSpaceOnUse" x1="1794.4941" y1="1523.0574" x2="1939.2281" y2="1203.2959">
						<stop  offset="0" style="stop-color:#09005D"/>
						<stop  offset="1" style="stop-color:#1A0F91"/>
					</linearGradient>
					<path fill="url(#SVGID_19_)" d="M1913.3,1436.4c0,0-54.9-106.2,43.9-120.8l25.5,13.1c0,0-9-51.3-72.5-72.8
						c-63.5-21.5-112,1.4-126.5,85.1c-14.5,83.7,7.3,133.5,54.7,166.2c47.3,32.7,58.8-13.2,58.8-13.2s-27.8-32.8-21.1-53.3
						c6.8-20.5,31.4-0.2,31.4-0.2L1913.3,1436.4z"/>
					<linearGradient id="SVGID_20_" gradientUnits="userSpaceOnUse" x1="1741.8082" y1="1277.0771" x2="1563.416" y2="1832.4506">
						<stop  offset="0" style="stop-color:#09005D"/>
						<stop  offset="1" style="stop-color:#1A0F91"/>
					</linearGradient>
					<path fill="url(#SVGID_20_)" d="M1796.8,1425.3c0,0-191.7-59-223.3,141c-31.6,200-53.4,264.1-100.9,229.6
						c0,0,7.8,74.7,99.1,41.3C1808.6,1750.5,1664.4,1473,1796.8,1425.3z"/>
				</g>
			</g>
			<g>
				<path fill="#275DAD" d="M1564.2,2092.9c-55.3-236,186-448.9,186-448.9c57.5,13.2,72.2,51.1,56.8,106.4
					c-113.5,106.4-156.1,227.1-164.8,328.5C1626.8,2074.6,1589.7,2067.5,1564.2,2092.9z"/>
				
					<linearGradient id="SVGID_21_" gradientUnits="userSpaceOnUse" x1="834.8645" y1="2102.0493" x2="723.0972" y2="2316.9866" gradientTransform="matrix(-1 0 0 1 2436.9724 0)">
					<stop  offset="0" style="stop-color:#A22B25"/>
					<stop  offset="1" style="stop-color:#C0423C"/>
				</linearGradient>
				<path fill="url(#SVGID_21_)" d="M1642.2,2079c-10.8,44.5-9.6,77.8-8,93.7c0.6,5.7,3.4,10.3,9.4,10.6c2.8,0.1,5.6-0.3,8.3,0.5
					s5.2,3.2,4.8,5.9c-0.2,1.3-1,2.4-1.3,3.7c-0.6,2.5,1,5.2,3.1,6.7s4.7,2.3,7.1,3.1c9.7,3.5,20,9.8,29.2,14.6
					c2.7,1.4,3.2,5.1,2.7,8.1c-4,26.6-41.3,24.1-59.1,14.9c-10.9-5.6-20.8-14.7-27.4-25c-27.4-42.3-41.5-83.7-46.7-122.8
					C1589.7,2067.5,1626.8,2074.6,1642.2,2079z"/>
			</g>
			<linearGradient id="SVGID_22_" gradientUnits="userSpaceOnUse" x1="1843.3143" y1="1642.4426" x2="1712.0436" y2="2103.5745">
				<stop  offset="0" style="stop-color:#E1473D"/>
				<stop  offset="1" style="stop-color:#E9605A"/>
			</linearGradient>
			<path fill="url(#SVGID_22_)" d="M1773.8,1622.3c89.3,137-17.3,405-45.2,415.6c122.4-24.6,168.1-248.2,99.8-438.4
				C1808.4,1598,1787.9,1604.7,1773.8,1622.3z"/>
		</g>
		<g>
			<g>
				<g>
					
						<linearGradient id="SVGID_23_" gradientUnits="userSpaceOnUse" x1="2241.834" y1="-4720.6538" x2="2751.3601" y2="-4544.9551" gradientTransform="matrix(2.300000e-003 1 -1 2.300000e-003 -3390.8447 -342.5823)">
						<stop  offset="0" style="stop-color:#FEBBBA"/>
						<stop  offset="1" style="stop-color:#FF928E"/>
					</linearGradient>
					<path fill="url(#SVGID_23_)" d="M1335.1,2308.4c10.4-20.9,1.6-45.8-16.2-64.4c-12.3-12.9-18.7-30.3-17.9-48.1
						c3.8-81.8-34.4-333-72.8-363.7c-66.8-53.4,17.8,393.9,36.7,406.9c21.1,5.8,4.4,94.8-5.7,109.4
						C1242.3,2372.7,1310.7,2357.4,1335.1,2308.4z"/>
					<linearGradient id="SVGID_24_" gradientUnits="userSpaceOnUse" x1="1202.2828" y1="1674.1272" x2="1302.8105" y2="2386.9636">
						<stop  offset="0" style="stop-color:#E1473D"/>
						<stop  offset="1" style="stop-color:#E9605A"/>
					</linearGradient>
					<path fill="url(#SVGID_24_)" d="M1225.9,2124.3c21-24.6,43.3-42.7,68.2-46.7c4.5-0.7,7.6-4.8,7.3-9.3l-26.9-354.3l-119.5,97.2
						L1225.9,2124.3z"/>
					<g>
						<linearGradient id="SVGID_25_" gradientUnits="userSpaceOnUse" x1="1503.439" y1="2027.9166" x2="968.2048" y2="2886.3093">
							<stop  offset="0" style="stop-color:#09005D"/>
							<stop  offset="1" style="stop-color:#1A0F91"/>
						</linearGradient>
						<path fill="url(#SVGID_25_)" d="M1360.1,2232.7l-179.4,86.8c-11.8,5.7-16.7,20-10.9,31.8l58,118.1
							c6.3,12.8,22.3,17.1,34.1,9.3l174.8-114.9c10.6-7,13.8-21,7.4-31.9l-53.4-90C1384.3,2231.4,1371.1,2227.4,1360.1,2232.7z"/>
						<circle opacity="0.26" fill="#FFFFFF" cx="1341.6" cy="2338.8" r="33.3"/>
						<path opacity="0.26" fill="#FFFFFF" d="M1206.7,2346.2l5.7-2.9c0.4-0.2,0.9,0,1.1,0.4l46.8,93c0.2,0.4,0,0.9-0.4,1.1l-5.7,2.9
							c-0.4,0.2-0.9,0-1.1-0.4l-46.8-93C1206.1,2346.8,1206.3,2346.4,1206.7,2346.2z"/>
						<path opacity="0.26" fill="#FFFFFF" d="M1223.9,2337.5l5.7-2.9c0.4-0.2,0.9,0,1.1,0.4l46.8,93c0.2,0.4,0,0.9-0.4,1.1l-5.7,2.9
							c-0.4,0.2-0.9,0-1.1-0.4l-46.8-93C1223.4,2338.2,1223.5,2337.7,1223.9,2337.5z"/>
					</g>
					
						<linearGradient id="SVGID_26_" gradientUnits="userSpaceOnUse" x1="3092.7371" y1="-1380.6981" x2="3645.1277" y2="-1190.2186" gradientTransform="matrix(0.4764 0.8792 0.8792 -0.4764 698.6832 -1383.6906)">
						<stop  offset="0" style="stop-color:#FEBBBA"/>
						<stop  offset="1" style="stop-color:#FF928E"/>
					</linearGradient>
					<path fill="url(#SVGID_26_)" d="M1272.6,2230.5c0,0-32,30-24.6,64.1c7.4,34.1,13,30.7,18.9,22
						C1272.9,2308,1296,2233.3,1272.6,2230.5z"/>
				</g>
			</g>
			<linearGradient id="SVGID_27_" gradientUnits="userSpaceOnUse" x1="2002.6332" y1="1047.8694" x2="1666.042" y2="1313.776">
				<stop  offset="0" style="stop-color:#09005D"/>
				<stop  offset="1" style="stop-color:#1A0F91"/>
			</linearGradient>
			<path fill="url(#SVGID_27_)" d="M1031.2,2244.5H795.5c-28.4,0-51.3-23-51.3-51.3c-48.8-171-26.3-369.3,31.1-588.3
				c7.5-28.4,33.2-48.2,62.6-48.2h193.3V2244.5z"/>
			<linearGradient id="SVGID_28_" gradientUnits="userSpaceOnUse" x1="756.3602" y1="1717.6157" x2="1291.5399" y2="1522.3925">
				<stop  offset="0" style="stop-color:#09005D"/>
				<stop  offset="1" style="stop-color:#1A0F91"/>
			</linearGradient>
			<path fill="url(#SVGID_28_)" d="M841.4,1541.5c-37.9,0-71.1,25.6-80.7,62.2l-38.3,145.7c-8.4,31.8,16.5,63.2,56,70.6l72.6,13.6
				l233-324.6L841.4,1541.5z"/>
			<g>
				<path fill="#275DAD" d="M1209.7,2165.5l-223.4-8c0,0-50.8,73.3-52,90.8c-0.6,9.2-1.1,18.1-1.4,26.5l-40.7,369.6
					c-1.3,12-5.2,23.6-11.5,33.9l-152.9,261.5c-5.5,8.5-18.3,23.3-12,31.3c7.3,9.2,6.1,25.6,22.9,32.5c6.3,2.6,35.8-27,40.3-32.2
					l228.2-260.4c7.5-8.6,12.9-18.8,15.6-29.9l65.3-242.9c41.4,121.6,90.4,524.2,99.2,605.1c0.9,8.5,5,98.2,13.4,99
					c15.9,1.4,30.6-3.5,43.8-5.5c9-1.3,5.9-69.4,6.5-78.4C1283.1,2560.8,1209.7,2165.5,1209.7,2165.5z"/>
				<linearGradient id="SVGID_29_" gradientUnits="userSpaceOnUse" x1="860.5036" y1="2392.9746" x2="643.994" y2="3340.8059">
					<stop  offset="0" style="stop-color:#09005D"/>
					<stop  offset="1" style="stop-color:#1A0F91"/>
				</linearGradient>
				<path fill="url(#SVGID_29_)" d="M715.2,2960.4c0,0-74,11.9-56,67.2c18,55.3,45.7,157.6,81.8,137.1
					c36.1-20.4-19.5-140.1,9.2-166.7C715.7,2971.1,715.2,2960.4,715.2,2960.4z"/>
				<linearGradient id="SVGID_30_" gradientUnits="userSpaceOnUse" x1="1056.2162" y1="2995.3516" x2="1679.9794" y2="3619.1147">
					<stop  offset="0" style="stop-color:#09005D"/>
					<stop  offset="1" style="stop-color:#1A0F91"/>
				</linearGradient>
				<path fill="url(#SVGID_30_)" d="M1198.1,3135.9c0,0-48.1,69.8,0,83c48.1,13.2,144.3,47.8,170.8,21.5
					c26.5-26.3-122.2-109.1-122.2-109.1C1228.2,3141.5,1211.1,3146.7,1198.1,3135.9z"/>
			</g>
			<g>
				<path fill="#FCA17D" d="M1312.9,1739.5c23.4-86-32.9-173-120.8-187.7c-97.9-16.4-197.8-0.5-246.9,2.7
					c-24.9,1.6-48.3,12.4-65.7,30.3c-69.1,70.8-223.3,266.9-69,483.3c22.1-10.6,53.6-27.7,75.5-48.5c-15.3-53.2-12.8-119.8,30.9-199
					c0.9,6.5,2.2,13,3.8,19.5c43.1,172.1,37.4,312.8,35.3,345.3c-0.3,4.3,2,8.5,5.9,10.3c68.4,32.5,181.7,25.7,227.5,21.7
					c8.4-0.7,26.2-2,28.7-10C1251.6,2099.9,1275.6,1876.2,1312.9,1739.5z"/>
				<linearGradient id="SVGID_31_" gradientUnits="userSpaceOnUse" x1="764.6834" y1="1487.2386" x2="1036.8462" y2="1897.79">
					<stop  offset="0" style="stop-color:#E1473D"/>
					<stop  offset="1" style="stop-color:#E9605A"/>
				</linearGradient>
				<path fill="url(#SVGID_31_)" d="M919.3,1803.8c-19.3-68.9-9.7-146.9-7-165.1c0.3-2.2,2.4-3.7,4.6-3.3l0,0
					c2.1,0.4,3.5,2.3,3.2,4.4c-2.6,17.7-12.2,94.3,6.8,161.8c0.6,2.1-0.6,4.2-2.6,4.8l0,0C922.1,1807.1,919.9,1805.9,919.3,1803.8z"
					/>
			</g>
			<g>
				<linearGradient id="SVGID_32_" gradientUnits="userSpaceOnUse" x1="1253.2523" y1="1697.981" x2="834.2355" y2="2283.6523">
					<stop  offset="0" style="stop-color:#FEBBBA"/>
					<stop  offset="1" style="stop-color:#FF928E"/>
				</linearGradient>
				<path fill="url(#SVGID_32_)" d="M886,2019.7c-21.9,20.7-53.4,37.9-75.5,48.5c29.5,41.4,70.3,83.4,125,125.5l6.6,17.6
					c4.9,13.1,13.8,24.2,25.4,31.9l22.1,14.7c12.1,8,28,6.9,38.8-2.7l9.6-8.5c8.8-7.8,10-21,2.8-30.3l-27.3-34.8
					c-4.8-6.1-38.7-11.4-45.1-15.8C944.5,2149.5,909.1,2099.9,886,2019.7z"/>
			</g>
			<linearGradient id="SVGID_33_" gradientUnits="userSpaceOnUse" x1="1124.7144" y1="1301.595" x2="1084.2609" y2="2942.1951">
				<stop  offset="0" style="stop-color:#FEBBBA"/>
				<stop  offset="1" style="stop-color:#FF928E"/>
			</linearGradient>
			<path fill="url(#SVGID_33_)" d="M1081.3,1390.6l-27.3,165.3c-0.7,4.5,2,8.8,6.3,10c20.7,5.9,74.8,21.8,122.6-7.8l-14.4-134.8
				L1081.3,1390.6z"/>
			<g>
				
					<linearGradient id="SVGID_34_" gradientUnits="userSpaceOnUse" x1="400.0892" y1="389.4479" x2="197.7511" y2="657.1247" gradientTransform="matrix(0.6854 -0.7281 0.7281 0.6854 583.2305 1318.7853)">
					<stop  offset="0" style="stop-color:#FEBBBA"/>
					<stop  offset="1" style="stop-color:#FF928E"/>
				</linearGradient>
				<path fill="url(#SVGID_34_)" d="M1167.4,1264.7c1.9,1.8,82,159,82,159l-90.7,43.8l-98-137.7
					C1060.7,1329.8,1134.9,1234.1,1167.4,1264.7z"/>
				
					<linearGradient id="SVGID_35_" gradientUnits="userSpaceOnUse" x1="245.807" y1="459.4338" x2="446.563" y2="459.4338" gradientTransform="matrix(0.6854 -0.7281 0.7281 0.6854 583.2305 1318.7853)">
					<stop  offset="0" style="stop-color:#09005D"/>
					<stop  offset="1" style="stop-color:#1A0F91"/>
				</linearGradient>
				<path fill="url(#SVGID_35_)" d="M1100.8,1333.6c-1.6,4.2-1.2,8.9,1.1,12.7l45.2,75.4c0.7,1.1,1.5,2.2,2.5,3.1
					c5.4,5,23.8,19.6,38.1-0.3c12.1-16.9,23.5-32.3,35.7-38.6c7.1-3.7,15.9-0.7,19.5,6.4c7.5,14.8,21.9,44.9,31,73.4
					c2.3,7.2-1.4,14.8-8.4,17.7c-18.4,7.4-54.7,20.9-86.9,25.3c-5.3,0.7-10.5-1.5-13.7-5.8c-13.9-19-52.9-72-66.3-85.3
					c-16.3-16.2-39-1.7-57.8-6.7c-0.9-0.2-1.9-0.5-2.5-1.3c-0.7-0.8-0.8-1.8-0.9-2.9c-0.6-5.9-0.2-11.9,1.1-17.7
					c0.4-1.9,0.9-3.8,1-5.7c0.1-4-1.7-7.7-3.3-11.3c-7.1-16.2-10.4-34.1-16.2-50.9c-0.8-2.3-1.6-4.7-1.4-7.1
					c0.1-1.6,0.7-3.2,1.3-4.7c4.8-11.8,13.8-21.7,24.7-28c9.5-5.5,28.2-5.1,32.8-16.3c1.5-3.7,6-5.7,8.8-8.6c4.3-4.5,8-9.9,12-14.8
					c4.6-5.7,9.9-11.8,17.1-13c4.4-0.8,8.9,0.4,13.2,1.6c7.3,2,14.9,4.1,21,8.6c8,5.8,12.7,14.9,16.9,23.8c2,4.4,4,9.1,3.3,13.8
					c-1.9,12.6-22.4,19.4-33.2,20.8C1116.3,1300,1105.2,1322.1,1100.8,1333.6z"/>
				
					<linearGradient id="SVGID_36_" gradientUnits="userSpaceOnUse" x1="107.8794" y1="599.27" x2="267.4017" y2="435.6044" gradientTransform="matrix(0.6854 -0.7281 0.7281 0.6854 583.2305 1318.7853)">
					<stop  offset="0" style="stop-color:#FEBBBA"/>
					<stop  offset="1" style="stop-color:#FF928E"/>
				</linearGradient>
				<path fill="url(#SVGID_36_)" d="M1118.4,1441.1c0,0-20.1-46.7-42.4-44.8c-22.3,1.9-39.8,24.1-12.2,49
					C1098.1,1476.3,1118.4,1441.1,1118.4,1441.1z"/>
			</g>
			<linearGradient id="SVGID_37_" gradientUnits="userSpaceOnUse" x1="817.9886" y1="1837.2081" x2="1383.4614" y2="1426.5671">
				<stop  offset="0" style="stop-color:#09005D"/>
				<stop  offset="1" style="stop-color:#1A0F91"/>
			</linearGradient>
			<path fill="url(#SVGID_37_)" d="M907.4,1564.5c89.3,137,19.7,402.1-8.2,412.7c122.4-24.6,131.1-245.3,62.9-435.5
				C941.9,1540.2,921.5,1546.9,907.4,1564.5z"/>
			<g>
				
					<linearGradient id="SVGID_38_" gradientUnits="userSpaceOnUse" x1="-1594.5123" y1="773.635" x2="-1677.0375" y2="868.7355" gradientTransform="matrix(0.6225 0.7826 -0.7826 0.6225 2782.7473 2005.1622)">
					<stop  offset="0" style="stop-color:#4F52FF"/>
					<stop  offset="1" style="stop-color:#4042E2"/>
				</linearGradient>
				<path fill="url(#SVGID_38_)" d="M1062.7,1242.1c-5.8,4.6-13.6,4.4-17.4-0.4c-3.8-4.8-2.3-12.5,3.5-17.1
					c5.8-4.6,13.6-4.4,17.4,0.4S1068.5,1237.5,1062.7,1242.1z"/>
				<linearGradient id="SVGID_39_" gradientUnits="userSpaceOnUse" x1="1139.7579" y1="1187.254" x2="1051.2217" y2="1457.781">
					<stop  offset="0" style="stop-color:#4F52FF"/>
					<stop  offset="1" style="stop-color:#4042E2"/>
				</linearGradient>
				<path fill="url(#SVGID_39_)" d="M1031.9,1384.7c-90.8-139.7,112.8-242.1,170.6-101.6c-56.6,25.9-113.5,60.7-161.3,102.9
					C1038.3,1388.5,1034,1387.9,1031.9,1384.7z"/>
				<linearGradient id="SVGID_40_" gradientUnits="userSpaceOnUse" x1="1350.3536" y1="1239.26" x2="1089.6638" y2="1355.6686">
					<stop  offset="0" style="stop-color:#4F52FF"/>
					<stop  offset="1" style="stop-color:#4042E2"/>
				</linearGradient>
				<path fill="url(#SVGID_40_)" d="M1082.6,1352.4c67.2-18.6,149.6-28.8,177.4-48.4c24.4-14.4,30.6-42.7,11-37.5l-73,17.8
					C1154.3,1297.1,1116.5,1321,1082.6,1352.4z"/>
			</g>
		</g>
		<g>
			<g>
				<path fill="#FCA17D" d="M2556.9,813.7l-94.4-55.2c-1.9-1.1-4.2-1.5-6.4-1l-120.2,27.9c-3.2,0.8-5.8,3.3-6.6,6.5
					c-0.8,3.2,0.3,6.6,2.8,8.8l74.1,63.2L2556.9,813.7z"/>
				<path fill="#FCA17D" d="M1754.8,941.4c0,0,1121.1-230.6,1165.4-217.7c44.3,12.9,124.1,57.5,147.2,57
					c23.2-0.5,104.5,11.6,84.9,70c-19.6,58.4-949,259.3-1058.7,224.6c-109.7-34.7-386.8-98.2-386.8-98.2S1680.6,938.4,1754.8,941.4z
					"/>
				<path fill="#FFC1AB" d="M2079.4,878.8l-164.3-86c-10.3-5.4-18.9-13.6-24.8-23.6l-68.5-116.7c-5.4-9.2-16.3-13.9-26.7-11.4
					c-33.4,7.9-102.7,25.4-102.8,33.3c-0.2,10.4,40.5,271.2,40.5,271.2L2079.4,878.8z"/>
				
					<linearGradient id="SVGID_41_" gradientUnits="userSpaceOnUse" x1="1481.8827" y1="789.184" x2="1276.3857" y2="1895.7042" gradientTransform="matrix(0.9825 0.1862 -0.1862 0.9825 476.91 113.5017)">
					<stop  offset="0" style="stop-color:#FEBBBA"/>
					<stop  offset="1" style="stop-color:#FF928E"/>
				</linearGradient>
				<path fill="url(#SVGID_41_)" d="M1766.3,978.6l-12.1,55.5c-2,9.4,0.3,18.8,6.4,26.2c6.1,7.4,15.2,11.2,24.8,11l57.2-1.2
					c9-0.2,17.6-3.9,23.4-10.9l99.3-118.9L1766.3,978.6z"/>
				<path fill="#FCA17D" d="M2360.8,1148.1c0,0,35.7,41.8,92.1,40.6c56.5-1.2,125.6-18.4,138.2-38.6c12.6-20.3,37.2-168.4-77-144.7
					C2400,1029.1,2267.7,1098.9,2360.8,1148.1z"/>
				<path fill="#FFC1AB" d="M2293.3,997.1l266.5-53.2l-218.1,293.8c-3.1,4.1-7.7,6.8-12.8,7.3l-160,17.1c-6.9,0.7-13.7-2.5-17.4-8.4
					c-3.8-5.9-3.9-13.4-0.3-19.3L2293.3,997.1z"/>
				
					<linearGradient id="SVGID_42_" gradientUnits="userSpaceOnUse" x1="2142.4248" y1="1166.9672" x2="2546.8108" y2="866.168" gradientTransform="matrix(0.9962 8.680000e-002 -8.680000e-002 0.9962 228.6686 -74.8815)">
					<stop  offset="0" style="stop-color:#FEBBBA"/>
					<stop  offset="1" style="stop-color:#FF928E"/>
				</linearGradient>
				<path fill="url(#SVGID_42_)" d="M2576.5,1154.5c0.7,0.1,1.4,0.1,2,0c3.6-0.6,7.1-4.3,10.4-11.3c10.7-22.3,16.8-69.6-3.4-105l0,0
					c-6-10.5-16.7-17.1-28.8-17.6c-9.9-0.4-22.4,2.8-26,20.7c-5.6,28.1,22.7,91.9,38.3,108.2
					C2571.9,1152.4,2574.3,1154.1,2576.5,1154.5z M2560.6,1026c8.6,1.6,16.3,7,20.7,14.7l0,0c19.1,33.5,13.2,79.7,3.2,100.4
					c-2.9,6-5.5,8.4-6.8,8.6c-0.2,0-1.7,0.1-5.2-3.5c-16.2-16.9-42-79-37.1-103.9c2.4-11.8,9.2-17.3,21-16.8
					C2557.9,1025.6,2559.3,1025.7,2560.6,1026z"/>
				
					<linearGradient id="SVGID_43_" gradientUnits="userSpaceOnUse" x1="1731.4242" y1="1132.7426" x2="2165.6641" y2="1597.5142" gradientTransform="matrix(0.9997 -2.620000e-002 2.620000e-002 0.9997 -41.9282 -269.1272)">
					<stop  offset="0" style="stop-color:#FEBBBA"/>
					<stop  offset="1" style="stop-color:#FF928E"/>
				</linearGradient>
				<polygon fill="url(#SVGID_43_)" points="1700.2,736.2 1728,735.6 1757.9,912.5 1728.8,920 				"/>
				<g>
					<g>
						
							<linearGradient id="SVGID_44_" gradientUnits="userSpaceOnUse" x1="2935.0256" y1="-1142.6301" x2="2847.5083" y2="-768.9996" gradientTransform="matrix(0.9997 -2.170000e-002 2.170000e-002 0.9997 -187.252 -418.3804)">
							<stop  offset="0" style="stop-color:#09005D"/>
							<stop  offset="1" style="stop-color:#1A0F91"/>
						</linearGradient>
						<path fill="url(#SVGID_44_)" d="M2161.7,939.7c-0.2-9.1,7.1-16.7,16.2-16.9l1.1,0c9.1-0.2,16.7,7.1,16.9,16.2l0.2,10.8
							c0.2,9.1-7.1,16.7-16.2,16.9l-1.1,0c-9.1,0.2-16.7-7.1-16.9-16.2L2161.7,939.7z"/>
						
							<linearGradient id="SVGID_45_" gradientUnits="userSpaceOnUse" x1="2994.1025" y1="-1128.7911" x2="2906.5852" y2="-755.1606" gradientTransform="matrix(0.9997 -2.170000e-002 2.170000e-002 0.9997 -187.252 -418.3804)">
							<stop  offset="0" style="stop-color:#09005D"/>
							<stop  offset="1" style="stop-color:#1A0F91"/>
						</linearGradient>
						<path fill="url(#SVGID_45_)" d="M2225,933.4c-0.2-9.1,7.1-16.7,16.2-16.9l1.1,0c9.1-0.2,16.7,7.1,16.9,16.2l0.2,10.8
							c0.2,9.1-7.1,16.7-16.2,16.9l-1.1,0c-9.1,0.2-16.7-7.1-16.9-16.2L2225,933.4z"/>
						
							<linearGradient id="SVGID_46_" gradientUnits="userSpaceOnUse" x1="3051.0122" y1="-1115.4668" x2="2963.4949" y2="-741.8361" gradientTransform="matrix(0.9997 -2.170000e-002 2.170000e-002 0.9997 -187.252 -418.3804)">
							<stop  offset="0" style="stop-color:#09005D"/>
							<stop  offset="1" style="stop-color:#1A0F91"/>
						</linearGradient>
						<path fill="url(#SVGID_46_)" d="M2288.1,917.4c-0.2-9.1,7.1-16.7,16.2-16.9l1.1,0c9.1-0.2,16.7,7.1,16.9,16.2l0.2,10.8
							c0.2,9.1-7.1,16.7-16.2,16.9l-1.1,0c-9.1,0.2-16.7-7.1-16.9-16.2L2288.1,917.4z"/>
						
							<linearGradient id="SVGID_47_" gradientUnits="userSpaceOnUse" x1="3104.3767" y1="-1102.9647" x2="3016.8594" y2="-729.334" gradientTransform="matrix(0.9997 -2.170000e-002 2.170000e-002 0.9997 -187.252 -418.3804)">
							<stop  offset="0" style="stop-color:#09005D"/>
							<stop  offset="1" style="stop-color:#1A0F91"/>
						</linearGradient>
						<path fill="url(#SVGID_47_)" d="M2346.5,906.4c-0.2-9.1,7.1-16.7,16.2-16.9l1.1,0c9.1-0.2,16.7,7.1,16.9,16.2l0.2,10.8
							c0.2,9.1-7.1,16.7-16.2,16.9l-1.1,0c-9.1,0.2-16.7-7.1-16.9-16.2L2346.5,906.4z"/>
						
							<linearGradient id="SVGID_48_" gradientUnits="userSpaceOnUse" x1="3166.998" y1="-1088.2998" x2="3079.4807" y2="-714.6689" gradientTransform="matrix(0.9997 -2.170000e-002 2.170000e-002 0.9997 -187.252 -418.3804)">
							<stop  offset="0" style="stop-color:#09005D"/>
							<stop  offset="1" style="stop-color:#1A0F91"/>
						</linearGradient>
						<path fill="url(#SVGID_48_)" d="M2414.6,895.1c-0.2-9.1,7.1-16.7,16.2-16.9l1.1,0c9.1-0.2,16.7,7.1,16.9,16.2l0.2,10.8
							c0.2,9.1-7.1,16.7-16.2,16.9l-1.1,0c-9.1,0.2-16.7-7.1-16.9-16.2L2414.6,895.1z"/>
						
							<linearGradient id="SVGID_49_" gradientUnits="userSpaceOnUse" x1="3224.9915" y1="-1074.7179" x2="3137.4739" y2="-701.0867" gradientTransform="matrix(0.9997 -2.170000e-002 2.170000e-002 0.9997 -187.252 -418.3804)">
							<stop  offset="0" style="stop-color:#09005D"/>
							<stop  offset="1" style="stop-color:#1A0F91"/>
						</linearGradient>
						<path fill="url(#SVGID_49_)" d="M2477.8,884c-0.2-9.1,7.1-16.7,16.2-16.9l1.1,0c9.1-0.2,16.7,7.1,16.9,16.2l0.2,10.8
							c0.2,9.1-7.1,16.7-16.2,16.9l-1.1,0c-9.1,0.2-16.7-7.1-16.9-16.2L2477.8,884z"/>
						
							<linearGradient id="SVGID_50_" gradientUnits="userSpaceOnUse" x1="3281.9011" y1="-1061.3928" x2="3194.3838" y2="-687.7615" gradientTransform="matrix(0.9997 -2.170000e-002 2.170000e-002 0.9997 -187.252 -418.3804)">
							<stop  offset="0" style="stop-color:#09005D"/>
							<stop  offset="1" style="stop-color:#1A0F91"/>
						</linearGradient>
						<path fill="url(#SVGID_50_)" d="M2540.9,868c-0.2-9.1,7.1-16.7,16.2-16.9l1.1,0c9.1-0.2,16.7,7.1,16.9,16.2l0.2,10.8
							c0.2,9.1-7.1,16.7-16.2,16.9l-1.1,0c-9.1,0.2-16.7-7.1-16.9-16.2L2540.9,868z"/>
						
							<linearGradient id="SVGID_51_" gradientUnits="userSpaceOnUse" x1="3336.3503" y1="-1048.6387" x2="3248.8328" y2="-675.0074" gradientTransform="matrix(0.9997 -2.170000e-002 2.170000e-002 0.9997 -187.252 -418.3804)">
							<stop  offset="0" style="stop-color:#09005D"/>
							<stop  offset="1" style="stop-color:#1A0F91"/>
						</linearGradient>
						<path fill="url(#SVGID_51_)" d="M2599.4,861.8c-0.2-9.1,7.1-16.7,16.2-16.9l1.1,0c9.1-0.2,16.7,7.1,16.9,16.2l0.2,10.8
							c0.2,9.1-7.1,16.7-16.2,16.9l-1.1,0c-9.1,0.2-16.7-7.1-16.9-16.2L2599.4,861.8z"/>
						
							<linearGradient id="SVGID_52_" gradientUnits="userSpaceOnUse" x1="3394.3433" y1="-1035.0553" x2="3306.8259" y2="-661.4242" gradientTransform="matrix(0.9997 -2.170000e-002 2.170000e-002 0.9997 -187.252 -418.3804)">
							<stop  offset="0" style="stop-color:#09005D"/>
							<stop  offset="1" style="stop-color:#1A0F91"/>
						</linearGradient>
						<path fill="url(#SVGID_52_)" d="M2662.6,850.7c-0.2-9.1,7.1-16.7,16.2-16.9l1.1,0c9.1-0.2,16.7,7.1,16.9,16.2l0.2,10.8
							c0.2,9.1-7.1,16.7-16.2,16.9l-1.1,0c-9.1,0.2-16.7-7.1-16.9-16.2L2662.6,850.7z"/>
						
							<linearGradient id="SVGID_53_" gradientUnits="userSpaceOnUse" x1="3451.252" y1="-1021.7261" x2="3363.7346" y2="-648.0948" gradientTransform="matrix(0.9997 -2.170000e-002 2.170000e-002 0.9997 -187.252 -418.3804)">
							<stop  offset="0" style="stop-color:#09005D"/>
							<stop  offset="1" style="stop-color:#1A0F91"/>
						</linearGradient>
						<path fill="url(#SVGID_53_)" d="M2725.8,834.6c-0.2-9.1,7.1-16.7,16.2-16.9l1.1,0c9.1-0.2,16.7,7.1,16.9,16.2l0.2,10.8
							c0.2,9.1-7.1,16.7-16.2,16.9l-1.1,0c-9.1,0.2-16.7-7.1-16.9-16.2L2725.8,834.6z"/>
						
							<linearGradient id="SVGID_54_" gradientUnits="userSpaceOnUse" x1="3505.7014" y1="-1008.9716" x2="3418.1838" y2="-635.3403" gradientTransform="matrix(0.9997 -2.170000e-002 2.170000e-002 0.9997 -187.252 -418.3804)">
							<stop  offset="0" style="stop-color:#09005D"/>
							<stop  offset="1" style="stop-color:#1A0F91"/>
						</linearGradient>
						<path fill="url(#SVGID_54_)" d="M2784.2,828.5c-0.2-9.1,7.1-16.7,16.2-16.9l1.1,0c9.1-0.2,16.7,7.1,16.9,16.2l0.2,10.8
							c0.2,9.1-7.1,16.7-16.2,16.9l-1.1,0c-9.1,0.2-16.7-7.1-16.9-16.2L2784.2,828.5z"/>
					</g>
					
						<linearGradient id="SVGID_55_" gradientUnits="userSpaceOnUse" x1="3655.842" y1="-973.8372" x2="3568.3235" y2="-600.201" gradientTransform="matrix(0.9997 -2.170000e-002 2.170000e-002 0.9997 -187.252 -418.3804)">
						<stop  offset="0" style="stop-color:#09005D"/>
						<stop  offset="1" style="stop-color:#1A0F91"/>
					</linearGradient>
					<path fill="url(#SVGID_55_)" d="M2999.6,756.8L2889,790.1c-8.3,2.5-13.7,10.6-12.7,19.2c1.1,10.3,2.9,21.8,5.2,20.8
						c4-1.8,177.6-49.9,177.6-49.9L2999.6,756.8z"/>
				</g>
			</g>
		</g>
	</g>
</g>
</svg>
